<svg xmlns:xlink="http://www.w3.org/1999/xlink" xmlns="http://www.w3.org/2000/svg" viewBox="0 0 60.56 60.56" width="60.56"  height="60.56" ><defs><linearGradient id="linear-gradient" x1="-1.599" y1="1" x2="-.915" y2="2.211" gradientUnits="objectBoundingBox"><stop offset="0" stop-color="#ff720b"/><stop offset="1" stop-color="#c61cd6"/></linearGradient></defs><g id="allbrand__w" data-name="allbrand _w" transform="translate(-255 -33)"><path id="Subtraction_86" data-name="Subtraction 86" d="M30.28 0A30.28 30.28 0 1 1 0 30.28 30.28 30.28 0 0 1 30.28 0z" transform="translate(255 33)" fill="#fff"/><g id="noun-brand-4326167" transform="translate(39.575 10.953)" fill="url(#linear-gradient)"><path id="Path_68965" data-name="Path 68965" d="M417.538 186.476a.194.194 0 0 0 0-.377c-2.313-.582-2.969-1.244-3.556-3.556a.194.194 0 0 0-.377 0c-.582 2.313-1.244 2.969-3.556 3.556a.194.194 0 0 0 0 .377c2.313.582 2.969 1.244 3.556 3.556a.194.194 0 0 0 .377 0c.582-2.313 1.243-2.974 3.556-3.556z" transform="translate(-154.339 -120.695)"/><path id="Path_68968" data-name="Path 68968" d="M417.079 186.23a.183.183 0 0 0 0-.354c-2.17-.547-2.8-1.169-3.343-3.343a.183.183 0 0 0-.354 0c-.547 2.17-1.169 2.8-3.343 3.343a.183.183 0 0 0 0 .354c2.17.547 2.8 1.169 3.343 3.343a.183.183 0 0 0 .354 0c.547-2.173 1.169-2.796 3.343-3.343z" transform="translate(-181.477 -148.566)"/><path id="Path_68967" data-name="Path 68967" d="M280 84.049a14.054 14.054 0 1 0 4.111-9.936A14.053 14.053 0 0 0 280 84.049zm21.079-2.537-3.513 3.6.834 5.088-4.34-2.4-4.34 2.4.829-5.084-3.513-3.6 4.855-.742 2.17-4.625 2.17 4.627z" transform="translate(-48.652 -32.514)"/></g></g></svg>