<svg xmlns:xlink="http://www.w3.org/1999/xlink" xmlns="http://www.w3.org/2000/svg" width="76" height="76" viewBox="0 0 56.977 56.977"><defs><linearGradient id="linear-gradient" x1=".155" y1=".161" x2=".813" y2=".914" gradientUnits="objectBoundingBox"><stop offset="0" stop-color="#ff720b"/><stop offset="1" stop-color="#c216e2"/></linearGradient></defs><g id="Allbrand_sel" transform="translate(8066.838 9827.82)"><path id="Subtraction_67" data-name="Subtraction 67" d="M28.489 0A28.489 28.489 0 1 1 0 28.489 28.489 28.489 0 0 1 28.489 0z" transform="translate(-8066.838 -9827.82)" fill="url(#linear-gradient)"/><g id="noun-brand-4326167" transform="translate(-8283.774 -9849.868)" fill="#fff"><path id="Path_68965" data-name="Path 68965" d="M417.538 186.476a.194.194 0 0 0 0-.377c-2.313-.582-2.969-1.244-3.556-3.556a.194.194 0 0 0-.377 0c-.582 2.313-1.244 2.969-3.556 3.556a.194.194 0 0 0 0 .377c2.313.582 2.969 1.244 3.556 3.556a.194.194 0 0 0 .377 0c.582-2.313 1.243-2.974 3.556-3.556z" transform="translate(-154.339 -120.695)"/><path id="Path_68968" data-name="Path 68968" d="M417.079 186.23a.183.183 0 0 0 0-.354c-2.17-.547-2.8-1.169-3.343-3.343a.183.183 0 0 0-.354 0c-.547 2.17-1.169 2.8-3.343 3.343a.183.183 0 0 0 0 .354c2.17.547 2.8 1.169 3.343 3.343a.183.183 0 0 0 .354 0c.547-2.173 1.169-2.796 3.343-3.343z" transform="translate(-181.477 -148.566)"/><path id="Path_68967" data-name="Path 68967" d="M280 84.049a14.054 14.054 0 1 0 4.111-9.936A14.053 14.053 0 0 0 280 84.049zm21.079-2.537-3.513 3.6.834 5.088-4.34-2.4-4.34 2.4.829-5.084-3.513-3.6 4.855-.742 2.17-4.625 2.17 4.627z" transform="translate(-48.652 -32.514)"/></g></g></svg>