<svg xmlns:xlink="http://www.w3.org/1999/xlink" xmlns="http://www.w3.org/2000/svg" width="76" height="76" viewBox="0 0 72 72"><defs><linearGradient id="linear-gradient" x1=".155" y1=".161" x2=".813" y2=".914" gradientUnits="objectBoundingBox"><stop offset="0" stop-color="#ff720b"/><stop offset="1" stop-color="#c216e2"/></linearGradient></defs><g id="Group_63163" data-name="Group 63163" transform="translate(8068.355 9827.82)"><path id="Subtraction_67" data-name="Subtraction 67" d="M36 0A36 36 0 1 1 0 36 36 36 0 0 1 36 0z" transform="translate(-8068.355 -9827.82)" fill="url(#linear-gradient)"/><g id="Chaat_Street" data-name="Chaat Street" transform="translate(-8053.822 -7540.835)" fill="#fff"><path id="Path_71841" data-name="Path 71841" d="M25.043-2264.59a37.243 37.243 0 0 0-4.081.324 35.069 35.069 0 0 0-12.643 4.146c-.433.249-1.107.662-1.107.679a.39.39 0 0 0 .106.021 2.738 2.738 0 0 1 .8.264 2.885 2.885 0 0 1 .733.55 4.148 4.148 0 0 1 .538.668l.135.2.008-.075c0-.042.01-.132.012-.2l.006-.126-.3-.222c-.163-.122-.3-.224-.3-.227s.107-.066.238-.141a33.579 33.579 0 0 1 11.583-3.831 35.3 35.3 0 0 1 4.045-.356c.5-.016 1.894-.009 2.308.012.934.047 1.691.112 2.428.206l.34.043a9.23 9.23 0 0 0 1.258-.345 52.703 52.703 0 0 1 1.21-.345 2.263 2.263 0 0 1-.007.257c-.072 1.3-.083 3.421-.025 5.088.095 2.744.321 5.465.734 8.814a.337.337 0 0 1 0 .127c-.006.005-.676.249-1.489.542-1.311.472-2.447.884-2.51.909-.022.008-.023-.033-.018-1.244 0-.767 0-1.251-.007-1.251s-1.262.4-1.27.407-.055.408-.113.9-.106.891-.107.892l-1.852.513-2.016.558a2.926 2.926 0 0 1-.166.044l.167-.642c.026-.1.047-.188.044-.19s-1.9.677-2.5.9c-.091.033-.171.061-.174.061s-.006-.562 0-1.25 0-1.25 0-1.25-1.272.406-1.276.411-.052.4-.109.887-.111.889-.118.9-.8.231-1.762.5l-2 .553c-.138.039-.254.068-.256.067s.044-.192.1-.423c.125-.481.129-.5.112-.5s-.459.173-2.278.881a.9.9 0 0 1-.16.053s.209-4.3.248-4.983a1.839 1.839 0 0 0 .007-.214s-.218.067-.477.156l-.769.262-.3.1-.007.18c-.035.8-.058 2.177-.053 3.063v.767l-1.388.538-1.543.6c-.087.033-.157.059-.159.057s.035-.723.082-1.6c.069-1.3.082-1.608.07-1.635l-.014-.033-.014.029c-.018.031-.022.028-.043-.04l-.016-.047-.02.026-.02.028-.022-.057-.022-.058-.022.029c-.012.016-.023.022-.023.013a.24.24 0 0 0-.019-.06l-.018-.044-.017.03-.016.029-.019-.045a.268.268 0 0 1-.019-.06c0-.008-.011 0-.022.014l-.023.029-.022-.057-.022-.058-.022.029c-.012.016-.023.023-.023.016a.258.258 0 0 0-.019-.06l-.019-.045-.016.029-.016.029-.019-.045a.266.266 0 0 1-.019-.06c0-.007-.011 0-.023.015l-.023.026-.009-.062-.02-.056-.023.03c-.011.014-.022.021-.022.014a.26.26 0 0 0-.019-.06c-.016-.039-.02-.042-.03-.026s-.031.026-.047-.021-.029-.053-.046-.023-.016.008-.032-.038-.023-.056-.042-.03-.02.027-.042-.03-.024-.053-.032-.037-.029.022-.05-.033l-.02-.05-.016.03-.017.029-.019-.046a.258.258 0 0 1-.019-.06c0-.007-.011 0-.022.015l-.023.029-.022-.056-.022-.058-.022.029c-.012.016-.023.023-.023.016a.255.255 0 0 0-.019-.06l-.019-.046-.016.029-.017.03-.014-.04c-.007-.021-.016-.037-.018-.035a2.6 2.6 0 0 0 .1.262l.416 1.06.315.8-.04.056c-.157.223-.37.494-.557.712a9.2 9.2 0 0 1-.74.734 4.109 4.109 0 0 1-2.067.991 4.31 4.31 0 0 1-.851.013 2.665 2.665 0 0 1-1.119-.407c-.029-.02-.049-.03-.046-.024a3.211 3.211 0 0 0 .363.281c.073.048.383.275.691.5a6.008 6.008 0 0 0 .957.653 2.552 2.552 0 0 0 1.219.275 3.392 3.392 0 0 0 1.593-.388 4.94 4.94 0 0 0 1.254-.9c.087-.08.13-.114.126-.1s0 .029.06 0c.017-.007.02 0 .02.036s0 .047.07.022c.01-.005.014.007.014.038s0 .047.071.021c.013 0 .016 0 .01.038s0 .049.055.026c.017-.007.02 0 .02.036s0 .047.07.022c.01-.005.014.007.014.038s0 .047.07.022c.01 0 .014.007.014.038s0 .043.022.036c.055-.023.058-.021.053.024s0 .048.066.021c.011 0 .016.007.016.039s0 .047.069.021c.011 0 .016.008.016.038s0 .043.02.036c.063-.025.066-.024.056.024s-.007.048.065.022c.01 0 .014.008.014.038s0 .047.07.022c.01 0 .014.007.014.039s0 .043.022.036c.063-.027.066-.024.058.023s-.008.048.063.023c.01 0 .014.008.014.038 0 .046 0 .047.069.022.011 0 .016.007.016.039s0 .043.022.036c.061-.025.066-.024.06.023v.043l1.551-.6 1.545-.6.006-.172c0-.122.011-.173.022-.177s.014.008.014.032v.037l.042-.017.042-.018v.095l.042-.017.042-.018v.048c0 .043 0 .047.023.035.038-.02.049-.014.049.03s0 .041.031.03c.047-.018.053-.016.053.03v.042l.042-.017.042-.018v.048c0 .043 0 .047.023.035.043-.023.056-.016.052.03s0 .042.028.03c.048-.018.054-.016.054.03v.042l.042-.017.042-.018v.094l.043-.018.043-.018-.007.044-.008.043.042-.007c.043-.009.043-.009.043.034v.042l.042-.017.042-.018v.094l.043-.018.044-.018-.007.043-.007.044.041-.007c.042-.009.042-.007.042.035v.042l.042-.017.042-.018v.094l.042-.018.042-.017v.048c0 .044 0 .048.023.036.038-.019.048-.014.052.029v.041l.756-.293a7.548 7.548 0 0 1 .764-.28c.006.008.022.01.053 0a.245.245 0 0 1 .043-.011.42.42 0 0 1-.012.042l-.011.041.049-.008.049-.009-.007.038c-.008.041 0 .046.058.025.03-.012.031-.011.023.03s0 .047.053.031a.209.209 0 0 1 .038-.009s0 .021-.011.042c-.013.043-.007.046.055.028l.037-.011-.011.037c-.013.047-.008.052.044.035l.043-.013-.007.042c-.01.044-.007.046.05.03.041-.012.044-.007.026.04s0 .039.056.021l.037-.011-.011.037c-.013.047-.008.052.044.035l.043-.013-.008.043c-.007.042-.007.042.026.035.153-.037 3.991-1.106 4-1.113s.031-.182.056-.392.046-.365.047-.343 0 .039.02.033c.064-.024.077-.023.077.01s0 .032.042.025.042-.008.042.033 0 .043.031.032c.047-.018.053-.016.053.03s0 .042.023.031c.038-.02.049-.015.049.025s0 .037.042.03.042-.009.042.033 0 .042.031.031c.047-.018.053-.016.053.03s0 .042.023.03c.038-.019.049-.015.049.025s0 .037.042.03.042-.007.042.03 0 .037.042.03.042-.009.042.035 0 .042.023.03c.043-.023.061-.014.061.025s0 .036.036.029.036-.006.036.031 0 .038.042.031.042-.008.042.035 0 .042.023.03c.043-.023.061-.015.061.025s0 .036.036.029.036-.006.036.03 0 .039.042.031.042-.008.042.03 0 .037.042.03.042-.007.042.029 0 .037.036.03.036-.006.036.029.006.037.016.037.41-.143.892-.317l.905-.325c.016-.005.026 0 .026.017s0 .024.024.02c.077-.021.072-.024.059.019a.505.505 0 0 0-.011.044.2.2 0 0 0 .078-.019c.019-.006.02 0 .013.037s-.016.047.066.024c.023-.006.024 0 .016.038s-.006.044.018.037l.049-.014c.028-.007.028-.01.012.042s-.018.042.07.018c.025-.007.026-.006.014.024-.022.059-.011.065.066.036.017-.007.018 0 .011.037s-.013.047.065.024c.014 0 .026-.006.026 0a.371.371 0 0 1-.012.044c-.011.037-.01.04.016.033.082-.023.078-.023.071.01a.054.054 0 0 1-.031.042c-.013.006-.72.168-1.57.361s-1.546.351-1.547.353l-.014.1a.771.771 0 0 1-.016.1 1.739 1.739 0 0 1-.161-.087 1.318 1.318 0 0 0-.409-.191 6.62 6.62 0 0 0-3.037.476c-.1.032-.132.037-.139.024a.019.019 0 0 0-.024-.008c-.007 0-.013 0-.013-.011s-.006-.018-.018-.013a.021.021 0 0 1-.026-.012.018.018 0 0 0-.023-.012.012.012 0 0 1-.017-.012c0-.012-.007-.017-.017-.013a.019.019 0 0 1-.024-.01c0-.011-.012-.015-.019-.011s-.016 0-.019-.01a.018.018 0 0 0-.024-.011c-.01 0-.017 0-.017-.013s-.007-.016-.018-.012-.018 0-.018-.006-.011-.013-.024-.013c-.035 0-4.236.854-4.245.863a.414.414 0 0 0 .016.122.9.9 0 0 1 .019.116s-.16-.087-.351-.2-.376-.214-.411-.228a.921.921 0 0 0-.375-.044 4.208 4.208 0 0 0-2.456 1.555 5.808 5.808 0 0 0-.8 1.016 1.825 1.825 0 0 0-.326 1.106l.01.058-.238-.083a15.51 15.51 0 0 1-3.2-1.5 10.064 10.064 0 0 1-2.7-2.4 7.317 7.317 0 0 1-1.377-3.025 2.14 2.14 0 0 0-.073-.277 7.362 7.362 0 0 1-.482-2.227 15.197 15.197 0 0 1 0-1.316 12.54 12.54 0 0 1 .518-2.872c.026-.086.047-.157.046-.16s-.228.364-.357.592c-.137.244-.382.733-.493.986a9.531 9.531 0 0 0-.81 4.808 9.469 9.469 0 0 0 3.833 6.564 15.242 15.242 0 0 0 3.629 2.042 19.3 19.3 0 0 0 1.9.655l.308.09c.01 0 0 .048-.044.139-.034.073-.06.137-.06.142a.109.109 0 0 0 .04.025.511.511 0 0 1 .165.1.016.016 0 0 0 .016.016.879.879 0 0 1 .195.1.72.72 0 0 0 .082.044c.011 0 .02.01.02.015s.019.016.042.025.042.021.042.026.008.01.018.01.018 0 .018.01.019.017.042.026.042.02.042.025.01.01.022.014.042.021.07.036a2.456 2.456 0 0 0 1.1.111 3.113 3.113 0 0 0 .858-.249c.056-.029.06-.029.47.031a30.859 30.859 0 0 0 3.185.286c.457.019 2.018.019 2.476 0a37.426 37.426 0 0 0 4.766-.489 37.051 37.051 0 0 0 7.313-1.994c.238-.093.3-.109.3-.083 0 .011.007.016.018.011s.018 0 .018.012.007.016.026.011.024 0 .018.011-.089.048.857-.249l.811-.255.011-.172.01-.172.4-.195a21.967 21.967 0 0 0 7.509-5.7 12.215 12.215 0 0 0 2.065-3.654 9.218 9.218 0 0 0 .439-4.369 8.918 8.918 0 0 0-1.355-3.57c-.058-.089-.058-.09-.03-.1s.793-.151.921-.172c.04-.006.05-.013.05-.031s-.273-3.318-.284-3.414c-.007-.068-.007-.069-.04-.063s-.035 0-.041-.03-.011-.036-.044-.03-.036.006-.036-.03 0-.039-.042-.03-.042.006-.042-.03 0-.036-.035-.03-.036 0-.043-.03-.011-.036-.043-.029-.035 0-.035-.031 0-.039-.042-.03-.042.006-.042-.03 0-.036-.036-.03-.037 0-.043-.029-.011-.036-.041-.03-.035 0-.038-.028-.007-.035-.042-.031-.04 0-.04-.031 0-.036-.038-.033-.04 0-.043-.032-.008-.032-.037-.026-.035 0-.041-.03-.011-.036-.044-.03-.036.006-.036-.03 0-.038-.042-.03-.042.006-.042-.03 0-.036-.035-.03-.036 0-.043-.03-.011-.036-.043-.029-.035 0-.035-.031 0-.037-.042-.03-.042 0-.042-.03 0-.037-.035-.031-.036 0-.04-.026-.007-.035-.042-.031-.04 0-.04-.032 0-.034-.042-.029-.042 0-.042-.03 0-.036-.038-.034-.04 0-.043-.032-.01-.032-.023-.028a.1.1 0 0 1-.03.008c-.01 0-.011.041 0 .128.008.144.255 3.119.267 3.228l.007.067-.065.013-.466.085c-.667.121-1.9.371-1.918.388s-.181 1.581-.262 2.472a66.966 66.966 0 0 0-.3 6.263v1.028l-1.322.519-1.481.583c-.155.061-.157.063-.165.1s0 .055.04.04.037-.013.037.03 0 .046.064.022c.017-.007.02 0 .02.036s0 .047.07.021c.012 0 .016 0 .014.035 0 .07 0 .071.031.059s.041-.017.041.019.007.033.064.011c.017-.007.02 0 .02.036s0 .047.07.022c.01-.005.014.007.014.038s0 .045.067.021c.007 0 .01.012.007.04-.006.047 0 .049.061.023.017-.007.02 0 .02.036s0 .047.07.021c.01-.005.014.007.014.038s0 .047.07.021c.012 0 .014 0 .007.04s0 .05.059.024c.017-.007.02 0 .02.036s0 .047.07.021c.01 0 .014.007.014.038s0 .047.071.021c.013 0 .016 0 .01.039s0 .049.055.025c.017-.007.02 0 .02.036s0 .047.07.021c.01 0 .014.008.014.039s0 .047.071.021c.012 0 .016 0 .011.039s0 .045.017.038l.043-.014c.019-.006.022 0 .017.038s0 .048.061.023c.017-.007.02 0 .02.036s0 .047.07.021c.01 0 .014.007.014.039s0 .043.022.036c.059-.024.061-.023.054.025s0 .044.016.039.234-.09.492-.192l1.5-.593 1.034-.406v-1c0-2.037.1-4.053.311-6.384.071-.783.195-1.976.208-1.991a.815.815 0 0 1 .12.154 7.108 7.108 0 0 1 1.262 4.927 9.008 9.008 0 0 1-1.583 4.045 18.553 18.553 0 0 1-6.607 5.573c-.29.156-.5.268-.514.268s.252-1.558.274-1.584c0-.006.619-.115.992-.178.189-.031.345-.057.346-.06s-.006-.164-.02-.362-.034-.488-.043-.646c-.023-.341-.025-.367-.048-.367s-.018-.006-.018-.012-.008-.012-.018-.012-.018-.006-.018-.012-.011-.012-.024-.012-.024-.007-.024-.012-.008-.012-.018-.012-.018-.006-.018-.012-.008-.012-.018-.012-.018-.006-.018-.012-.011-.012-.024-.012-.024-.006-.024-.013-.008-.011-.018-.006-.018 0-.018-.012-.007-.017-.017-.013a.019.019 0 0 1-.024-.011c0-.011-.012-.014-.019-.011s-.016 0-.019-.011a.019.019 0 0 0-.024-.011c-.01 0-.017 0-.017-.013s-.007-.015-.018-.012-.018 0-.018-.006-.011-.013-.024-.013-.024-.006-.024-.012-.008-.012-.018-.012-.018-.006-.018-.012-.008-.012-.018-.012-.018 0-.018-.01-.019-.017-.042-.026-.042-.021-.042-.027-.008-.01-.018-.01-.018 0-.018-.009-.019-.017-.042-.027-.042-.021-.042-.027-.008-.01-.018-.01-.018-.006-.018-.012-.007-.012-.017-.012a.023.023 0 0 1-.022-.013c0-.01-.6.107-1.795.35-.984.2-1.8.363-1.82.363s-.032-.006-.035-.013a.03.03 0 0 0-.028-.013c-.012 0-.023-.006-.023-.012s-.008-.012-.018-.012-.018-.006-.018-.012-.008-.012-.018-.012-.018-.006-.018-.012-.011-.012-.024-.012-.024-.006-.024-.012-.008-.012-.018-.012-.018-.006-.018-.012-.008-.012-.018-.012-.018-.006-.018-.012-.011-.012-.024-.012-.024-.006-.024-.013-.008-.011-.018-.006-.018 0-.018-.012-.007-.017-.018-.012-.018 0-.018-.012-.007-.017-.018-.012a.021.021 0 0 1-.026-.012.018.018 0 0 0-.023-.012.011.011 0 0 1-.017-.012c0-.012-.007-.017-.018-.012s-.018 0-.018-.012-.007-.016-.024-.011-.024 0-.024-.011-.007-.015-.018-.012-.018 0-.018-.013-.007-.019-.02-.014c-.09.028-3.216.732-3.249.731s-.043-.006-.046-.013a.024.024 0 0 0-.022-.013c-.01 0-.017-.006-.017-.012s-.008-.012-.018-.012-.018 0-.018-.01-.019-.017-.042-.026-.042-.021-.042-.027-.008-.01-.018-.01-.018-.006-.018-.012-.008-.012-.018-.012-.018-.006-.018-.012-.011-.012-.024-.012-.024-.006-.024-.012-.008-.012-.018-.012-.018 0-.018-.01-.061-.039-.073-.031-.011 0-.011-.013-.006-.018-.018-.013-.018 0-.018-.01.028-.024.064-.034l1.9-.527c1.012-.28 1.845-.515 1.852-.524s.031-.179.054-.379.042-.354.044-.342.034.022.09 0c.017-.007.02 0 .02.029s0 .042.041.026.031-.01.031.03.006.049.053.03c.03-.011.031-.01.031.03s.006.048.053.03c.03-.011.031-.009.031.03s0 .047.041.03.031-.01.031.03.006.048.053.03c.03-.011.031-.01.031.03s.006.048.053.03c.03-.011.031-.01.031.03s0 .047.041.03.031-.01.031.03.006.048.053.03c.03-.011.031-.01.031.03s.006.048.053.03c.03-.011.031-.01.031.031s0 .047.064.023c.017-.007.02 0 .02.035s0 .048.041.031.031-.01.031.03.006.048.053.03c.03-.011.031-.01.031.031s0 .047.064.023c.017-.007.02 0 .02.035s0 .048.041.031.031-.01.031.03.006.048.053.03c.03-.01.031-.009.031.032s0 .046.064.022c.017-.007.02 0 .02.036s0 .043.026.035.922-.332 2.016-.726l1.99-.719v-.046c0-.026-.029-.272-.062-.546a97.275 97.275 0 0 1-.632-7.206c-.049-1-.081-2.044-.059-1.93 0 .023.011.027.04.022s.034 0 .041.03.011.036.042.03.036 0 .04.025.01.032.04.032.036 0 .04.035.007.034.038.026.035 0 .042.03.012.036.042.03.035 0 .038.026.01.032.04.032.036 0 .04.035.007.034.038.026.035 0 .042.03.012.036.042.031.034 0 .041.029.01.036.043.029.036-.006.036.03 0 .038.036.031.037 0 .044.03.011.036.04.03.034 0 .041.03.011.036.042.029.036 0 .04.027.008.033.037.031.035 0 .041.034.014.042.1.012l.069-.024v.033c0 .018.014-.19.03-.46s.038-.69.053-.929.024-.44.02-.442-.844.234-1.6.478c-.188.059-.341.107-.344.1s-.629-3.478-.626-3.481.867-.209 1.924-.46 1.933-.462 1.945-.466-.028-.034-.2-.113a21 21 0 0 0-4.879-1.559 29.178 29.178 0 0 0-4.525-.518c-.289.011-1.731-.003-2.012.007zm4.569 20.552a.046.046 0 0 0 .042.018c.019 0 .035 0 .035.01s.019.017.042.026.042.021.042.027.008.01.018.01.018 0 .018.01.019.017.042.026.042.021.042.026.008.01.018.01.018 0 .018.01.019.017.042.026.042.021.042.028.008.009.018 0 .018 0 .018.012.007.017.017.013a.018.018 0 0 1 .024.012.02.02 0 0 0 .025.01c.011 0 .018 0 .018.012s.007.017.017.013a.019.019 0 0 1 .024.011c0 .011.012.014.019.011s.016 0 .019.01a.019.019 0 0 0 .024.011.011.011 0 0 1 .017.012c0 .016.007.016.067 0a.253.253 0 0 1 .072-.012s-.008.115-.024.25l-.127 1.075c-.058.479-.1.835-.113.842s-.206.09-.382.156c-.019.006-.022 0-.022-.062 0-.131-.014-.234-.031-.234s-.017-.006-.017-.012-.008-.012-.018-.012-.018-.006-.018-.012-.011-.012-.024-.012-.024-.006-.024-.012-.008-.012-.018-.012-.018-.006-.018-.012-.008-.012-.018-.012-.018-.006-.018-.012-.011-.012-.024-.012-.024-.006-.024-.012-.008-.012-.018-.012-.018-.006-.018-.013-.008-.01-.018-.006-.018 0-.018-.012-.007-.017-.018-.012a.02.02 0 0 1-.025-.011.02.02 0 0 0-.024-.01c-.011 0-.017 0-.017-.014s-.006-.018-.018-.013-.018 0-.018-.012-.007-.017-.018-.012a.019.019 0 0 1-.025-.011.019.019 0 0 0-.024-.01c-.01 0-.017 0-.017-.013s-.007-.016-.018-.012-.018 0-.018-.006-.011-.013-.024-.013-.024-.006-.024-.012-.008-.012-.018-.012-.018-.006-.018-.012-.008-.012-.018-.012-.018-.006-.018-.012-.011-.012-.024-.012-.024-.006-.024-.012-.008-.012-.018-.012-.018 0-.018-.011-.01-.013-.02-.016a4.282 4.282 0 0 1 .571-.156l.208-.052-.006-.33a2.681 2.681 0 0 0-.038-.7c-.01 0-.017 0-.017-.01s-.019-.017-.042-.026-.042-.02-.042-.027-.008-.01-.018-.01-.018-.006-.018-.012-.008-.012-.018-.012-.018-.006-.018-.013-.011-.01-.024-.007-.024 0-.024-.012-.007-.015-.018-.01-.018 0-.018-.012-.007-.017-.017-.013a.018.018 0 0 1-.024-.012.02.02 0 0 0-.025-.011c-.011 0-.018 0-.018-.012s-.007-.017-.018-.012-.018 0-.018-.012-.007-.017-.017-.013a.019.019 0 0 1-.024-.01.02.02 0 0 0-.025-.011c-.011 0-.018 0-.018-.012s-.007-.015-.018-.012-.018 0-.018-.012-.007-.015-.018-.012-.018 0-.018-.006-.011-.013-.024-.013-.024-.006-.024-.012-.008-.012-.018-.012-.018-.006-.018-.012-.008-.012-.018-.012-.018-.006-.018-.012-.011-.012-.024-.012-.024-.006-.024-.012-.008-.012-.018-.012-.018-.006-.018-.012-.008-.012-.018-.012-.018-.006-.018-.012-.011-.012-.023-.012a.03.03 0 0 1-.028-.013 1.151 1.151 0 0 0-.3.067l-.309.086c-.011 0-.011-.006 0-.041a.333.333 0 0 1 .014-.048 46.994 46.994 0 0 1 1.345-.291c.003.007.011.015.014.025zm-3.954.5c0 .019-.016.123-.026.232-.018.181-.035.248-.049.207a.028.028 0 0 0-.023-.015c-.01 0-.017-.006-.017-.012s-.011-.012-.024-.012-.024-.006-.024-.013-.008-.011-.018-.006-.018 0-.018-.012-.007-.017-.018-.012-.018 0-.018-.012-.007-.015-.024-.011-.024 0-.024-.01-.007-.016-.018-.012-.018 0-.018-.013-.006-.018-.017-.014a.019.019 0 0 1-.024-.009.019.019 0 0 0-.025-.011c-.011 0-.018 0-.018-.012s-.007-.016-.018-.012-.018 0-.018-.012-.007-.016-.018-.012-.018 0-.018-.006-.011-.013-.024-.013-.024-.006-.024-.012-.007-.012-.017-.012a.024.024 0 0 1-.022-.016c0-.012-.084.007-.314.07-.268.074-.309.083-.3.063.023-.08-.017-.064.361-.147.24-.054.794-.171.815-.173s.002.007-.001.025zm-7.892 1.058c0 .008-.2 1.632-.313 2.594-.038.323-.078.647-.085.717l-.014.13h-.177v-.064c0-.238.077-1.042.15-1.576.089-.649.279-1.743.309-1.781.014-.024.129-.04.129-.024zm-3.281.382c0 .01.007.014.018.01s.018 0 .018.006.008.013.018.013a.028.028 0 0 1 .025.017.019.019 0 0 0 .024.011c.01 0 .017 0 .017.007s.008.013.018.013.018 0 .018.009.019.017.042.027.042.021.042.027.008.01.018.01.018 0 .018.009.019.017.042.027.042.021.042.027.007.01.017.01a.023.023 0 0 1 .022.013c0 .009.025.007.073 0s.069-.017.069 0-.052.456-.24 2.037c-.044.375-.084.686-.089.69s-.558-.038-.567-.048a.6.6 0 0 1 .067-.112 1.565 1.565 0 0 0 .346-1.043.62.62 0 0 0-.215-.457c-.065-.049-.9-.538-.977-.571a.587.587 0 0 0-.1-.032c-.024 0-.04-.011-.034-.017s.844-.353 1.157-.478l.054-.022v-.1c0-.085.006-.1.026-.1s.029.003.029.015zm7.26.443a7.597 7.597 0 0 1-.048.4 3.634 3.634 0 0 1-.288-.344.231.231 0 0 1-.053-.091l.19-.153c.141-.113.236-.188.242-.2s-.021.17-.045.384zm3.709-.026c-.016.126-.022.154-.032.154a.012.012 0 0 1-.011-.012c0-.007-.011-.012-.024-.012s-.024-.006-.024-.012-.008-.012-.018-.012-.018-.006-.018-.013-.008-.011-.018-.006-.018 0-.018-.012-.007-.016-.024-.011-.024 0-.024-.011-.007-.016-.018-.012-.018 0-.018-.012-.007-.016-.02-.011-.018 0-.013 0a2.286 2.286 0 0 1 .278-.078c.003-.007.004.022 0 .056zm-12.946.095a.021.021 0 0 0 .025.006c.01 0 .017 0 .017.012s.007.017.018.012.018 0 .018.012.007.017.017.013a.019.019 0 0 1 .024.01.02.02 0 0 0 .025.011c.011 0 .018 0 .018.012s.007.016.018.012.018 0 .018.013.006.018.018.013.018 0 .018 0-.023.019-.18.036a5.18 5.18 0 0 0-.5.092c-.042.012-.025-.009.056-.071a1.25 1.25 0 0 1 .284-.166c.092-.038.098-.039.104-.021zm7.626 1.856c.153.221.284.4.288.4s.016 0 .023.015.013.021.016.018.052.014.061.03.014.013.019.011.023.006.038.021.024.026.011.029l-.367.034-.406.036-.059.008.008-.106c0-.058.012-.179.019-.268a4.7 4.7 0 0 1 .064-.625s.131.172.284.393z"/><path id="Path_71842" data-name="Path 71842" d="M2030.528-2082.9a48.659 48.659 0 0 0-.067 2.113 71.97 71.97 0 0 0 .176 5.914c.072 1.078.2 2.636.223 2.618s.273-1.215.491-2.269c.266-1.285.556-2.805.75-3.943l.065-.384.007-.583c.008-.609.024-1.222.043-1.659.006-.142.016-.347.019-.456l.008-.2-.037.008c-.037.007-.039.006-.039-.03s0-.039-.042-.031-.042.007-.042-.03 0-.037-.042-.03-.042.007-.042-.029 0-.037-.042-.029l-.042.007.008-.038.007-.04-.043.009c-.043.009-.044.007-.044-.03s0-.037-.042-.03-.042.007-.042-.029 0-.037-.042-.029-.042.006-.042-.029 0-.036-.04-.03-.041 0-.035-.032 0-.037-.039-.03-.043.007-.043-.029-.006-.043-.053-.025c-.03.011-.031.009-.031-.031s0-.042-.043-.033l-.043.008.009-.039.008-.038-.043.007c-.042.009-.043.007-.043-.029s-.006-.043-.053-.025c-.03.01-.031.01-.031-.031s0-.042-.045-.034l-.043.009.008-.039c.008-.038.008-.038-.034-.03s-.042.006-.042-.03-.006-.043-.053-.026c-.03.011-.031.01-.031-.03s-.006-.048-.053-.03c-.03.011-.031.01-.031-.03s0-.041-.036-.035-.036.006-.036-.03-.006-.043-.053-.025c-.03.011-.031.01-.031-.03s-.006-.048-.053-.03c-.03.011-.031.01-.031-.03s0-.041-.042-.034-.042.006-.035-.031c0-.022 0-.037-.005-.037a.258.258 0 0 0-.021.108z" transform="translate(-2006.158 -179.409)"/><path id="Path_71843" data-name="Path 71843" d="M1449.423-1914.889c-.016.006-.017.011-.006.011a.123.123 0 0 0 .042-.011c.016-.006.017-.011.006-.011a.128.128 0 0 0-.042.011z" transform="translate(-1432.097 -345.489)"/><path id="Path_71844" data-name="Path 71844" d="M2349.856-1914.8c-.011.031-.964 7.878-.958 7.88s.215-.064.47-.146l.462-.148.008-.648c.013-1.087.038-6.94.031-6.948s-.011-.003-.013.01z" transform="translate(-2320.773 -345.574)"/><path id="Path_71845" data-name="Path 71845" d="M1439.423-1911.889c-.016.006-.017.011-.006.011a.129.129 0 0 0 .042-.011c.016-.006.017-.011.006-.011a.128.128 0 0 0-.042.011z" transform="translate(-1422.217 -348.453)"/><path id="Path_71846" data-name="Path 71846" d="M1376.126-1909.9c-.016.006-.028.017-.028.024l-.03.219c-.066.459-.2 1.53-.3 2.359-.294 2.487-.5 4.863-.59 6.971a37.562 37.562 0 0 0-.04 1.226c0 .036.026-.051.092-.336q1.107-4.823 1.8-9.306a2.278 2.278 0 0 0 .053-.437c-.008 0-.011-.023-.008-.041s.006-.033-.041-.026l-.047.007.008-.042c.007-.042.007-.042-.025-.03-.053.02-.061.016-.057-.03s.005-.042-.028-.03c-.048.018-.054.016-.054-.025s0-.037-.043-.029l-.044.007.008-.037.007-.038-.048.008-.047.008.007-.043c.007-.043.006-.043-.025-.031-.049.018-.055.016-.055-.025s0-.037-.043-.029l-.045.007.008-.037c.007-.038.007-.038-.035-.031s-.042.008-.042-.034 0-.042-.031-.031c-.047.018-.053.016-.053-.025s0-.037-.043-.029-.043.007-.038-.03l.006-.037-.048.007-.047.008.009-.037c.006-.031 0-.037-.015-.036a.159.159 0 0 0-.048.011z" transform="translate(-1358.718 -350.417)"/><path id="Path_71847" data-name="Path 71847" d="M1432.353-1908.912a.026.026 0 0 0 .023 0s0-.007-.016-.006-.016.002-.007.006z" transform="translate(-1415.24 -351.397)"/><path id="Path_71848" data-name="Path 71848" d="M1422.423-1906.889c-.016.006-.017.011-.006.011a.132.132 0 0 0 .042-.011c.016-.006.017-.011.006-.011a.123.123 0 0 0-.042.011z" transform="translate(-1405.421 -353.393)"/><path id="Path_71849" data-name="Path 71849" d="M1412.423-1903.889c-.016.006-.017.011-.006.011a.13.13 0 0 0 .042-.011c.016-.006.017-.011.006-.011a.13.13 0 0 0-.042.011z" transform="translate(-1395.542 -356.357)"/><path id="Path_71850" data-name="Path 71850" d="M1402.423-1900.889c-.016.006-.017.011-.006.011a.131.131 0 0 0 .042-.011c.016-.006.017-.011.006-.011a.123.123 0 0 0-.042.011z" transform="translate(-1385.662 -359.321)"/><path id="Path_71851" data-name="Path 71851" d="M1392.423-1897.889c-.016.006-.017.011-.006.011a.13.13 0 0 0 .042-.011c.016-.006.017-.011.006-.011a.129.129 0 0 0-.042.011z" transform="translate(-1375.782 -362.285)"/><path id="Path_71852" data-name="Path 71852" d="M1382.423-1894.889c-.016.006-.017.011-.006.011a.129.129 0 0 0 .042-.011c.016-.006.017-.011.006-.011a.128.128 0 0 0-.042.011z" transform="translate(-1365.902 -365.249)"/><path id="Path_71853" data-name="Path 71853" d="M1372.423-1891.889c-.016.006-.017.011-.006.011a.128.128 0 0 0 .042-.011c.016-.006.017-.011.006-.011a.129.129 0 0 0-.042.011z" transform="translate(-1356.022 -368.212)"/><path id="Path_71854" data-name="Path 71854" d="M1362.423-1888.889c-.016.006-.017.011-.006.011a.129.129 0 0 0 .042-.011c.016-.006.017-.011.006-.011a.126.126 0 0 0-.042.011z" transform="translate(-1346.142 -371.176)"/><path id="Path_71855" data-name="Path 71855" d="M1355.353-1885.912a.024.024 0 0 0 .023 0s0-.007-.016-.006-.016.002-.007.006z" transform="translate(-1339.166 -374.121)"/><path id="Path_71856" data-name="Path 71856" d="M1345.354-1882.912a.024.024 0 0 0 .023 0s0-.007-.016-.006-.017.002-.007.006z" transform="translate(-1329.286 -377.085)"/><path id="Path_71857" data-name="Path 71857" d="M1335.423-1880.889c-.016.006-.017.011-.006.011a.133.133 0 0 0 .042-.011c.016-.006.017-.011.006-.011a.127.127 0 0 0-.042.011z" transform="translate(-1319.467 -379.08)"/><path id="Path_71858" data-name="Path 71858" d="M1325.423-1877.889c-.016.006-.017.011-.006.011a.131.131 0 0 0 .042-.011c.015-.006.017-.011.006-.011a.132.132 0 0 0-.042.011z" transform="translate(-1309.587 -382.044)"/><path id="Path_71859" data-name="Path 71859" d="M1315.423-1874.889c-.016.006-.017.011-.006.011a.13.13 0 0 0 .042-.011c.015-.006.017-.011.006-.011a.132.132 0 0 0-.042.011z" transform="translate(-1299.708 -385.008)"/><path id="Path_71860" data-name="Path 71860" d="M1305.423-1871.889c-.016.006-.017.011-.006.011a.13.13 0 0 0 .042-.011c.015-.006.017-.011.006-.011a.126.126 0 0 0-.042.011z" transform="translate(-1289.828 -387.972)"/><path id="Path_71861" data-name="Path 71861" d="M1295.423-1868.889c-.016.006-.017.011-.006.011a.126.126 0 0 0 .042-.011c.016-.006.017-.011.006-.011a.127.127 0 0 0-.042.011z" transform="translate(-1279.948 -390.936)"/><path id="Path_71862" data-name="Path 71862" d="m1025.922-1866.691-.037.012-.019.145a119.95 119.95 0 0 0-.536 4.474c-.082.813-.189 2.023-.179 2.031s1.054-.352 1.389-.47l.123-.043v-.049c0-.026.063-1.249.139-2.716s.136-2.669.134-2.672a.109.109 0 0 0-.043.008l-.04.011.008-.043c.007-.041.006-.042-.022-.035s-.038.011-.049.015-.017 0-.011-.036 0-.05-.049-.031c-.03.011-.031.01-.031-.031s0-.046-.071-.019c-.012 0-.016 0-.011-.037s.009-.046-.061-.026c-.028.008-.028.007-.02-.036s.006-.044-.011-.037-.032.011-.048.015-.029 0-.022-.037.006-.048-.065-.021c-.011 0-.016-.007-.016-.036s0-.043-.038-.031l-.045.011a.116.116 0 0 1 0-.043c.009-.046.006-.046-.062-.02-.011 0-.016-.007-.016-.038s0-.047-.068-.022c-.011 0-.016-.007-.016-.036s0-.043-.039-.031l-.044.011a.112.112 0 0 1 0-.043c.007-.046.012-.043-.065-.022-.022.006-.024 0-.017-.036s.015-.054-.042-.036z" transform="translate(-1012.936 -393.108)"/><path id="Path_71863" data-name="Path 71863" d="M1285.423-1865.889c-.016.006-.017.011-.006.011a.123.123 0 0 0 .042-.011c.016-.006.017-.011.006-.011a.128.128 0 0 0-.042.011z" transform="translate(-1270.068 -393.9)"/><path id="Path_71864" data-name="Path 71864" d="M1275.423-1862.889c-.016.006-.017.011-.006.011a.13.13 0 0 0 .042-.011c.016-.006.017-.011.006-.011a.134.134 0 0 0-.042.011z" transform="translate(-1260.188 -396.864)"/><path id="Path_71865" data-name="Path 71865" d="M1268.353-1859.912a.025.025 0 0 0 .023 0s0-.007-.016-.006-.016.002-.007.006z" transform="translate(-1253.211 -399.808)"/><path id="Path_71866" data-name="Path 71866" d="M1258.423-1857.889c-.016.006-.017.011-.006.011a.131.131 0 0 0 .042-.011c.016-.006.017-.011.006-.011a.133.133 0 0 0-.042.011z" transform="translate(-1243.392 -401.804)"/><path id="Path_71867" data-name="Path 71867" d="M1248.423-1854.889c-.016.006-.017.011-.006.011a.135.135 0 0 0 .042-.011c.016-.006.017-.011.006-.011a.126.126 0 0 0-.042.011z" transform="translate(-1233.513 -404.768)"/><path id="Path_71868" data-name="Path 71868" d="M1238.423-1851.889c-.016.006-.017.011-.006.011a.123.123 0 0 0 .042-.011c.016-.006.017-.011.006-.011a.127.127 0 0 0-.042.011z" transform="translate(-1223.633 -407.732)"/><path id="Path_71869" data-name="Path 71869" d="M1228.423-1848.889c-.016.006-.017.011-.006.011a.127.127 0 0 0 .042-.011c.016-.006.017-.011.006-.011a.128.128 0 0 0-.042.011z" transform="translate(-1213.753 -410.696)"/><path id="Path_71870" data-name="Path 71870" d="M1218.423-1845.889c-.016.006-.017.011-.006.011a.128.128 0 0 0 .042-.011c.016-.006.017-.011.006-.011a.126.126 0 0 0-.042.011z" transform="translate(-1203.873 -413.66)"/><path id="Path_71871" data-name="Path 71871" d="M1208.423-1842.889c-.016.006-.017.011-.006.011a.132.132 0 0 0 .042-.011c.016-.006.017-.011.006-.011a.129.129 0 0 0-.042.011z" transform="translate(-1193.993 -416.623)"/><path id="Path_71872" data-name="Path 71872" d="M1198.423-1839.889c-.016.006-.017.011-.006.011a.121.121 0 0 0 .042-.011c.016-.006.017-.011.006-.011a.131.131 0 0 0-.042.011z" transform="translate(-1184.114 -419.587)"/><path id="Path_71873" data-name="Path 71873" d="M1191.354-1836.912a.024.024 0 0 0 .023 0s0-.007-.016-.006-.017.002-.007.006z" transform="translate(-1177.137 -422.532)"/><path id="Path_71874" data-name="Path 71874" d="m1684.551-1835.992-.48 3.94a699.348 699.348 0 0 0-.475 3.935 1.664 1.664 0 0 0 .182-.052l.46-.148c.155-.049.286-.094.291-.1s.013-1.223.021-2.707.017-3.189.022-3.79c.006-.822 0-1.09-.006-1.09s-.015.004-.015.012z" transform="translate(-1663.469 -423.441)"/><path id="Path_71875" data-name="Path 71875" d="m346.312-1676.4-.885 1.245-.254.357-.085-.065a1.269 1.269 0 0 0-1.343-.151 4.062 4.062 0 0 0-1.6 2.135 8.271 8.271 0 0 0-.7 2.482 6.855 6.855 0 0 0 0 1.112 1.788 1.788 0 0 0 .964 1.5 1.44 1.44 0 0 0 .671.146.669.669 0 0 0 .124-.011.847.847 0 0 0-.024-.156 3.068 3.068 0 0 1-.061-.743 5.95 5.95 0 0 1 .206-1.589 9.917 9.917 0 0 1 1.1-2.588 2.418 2.418 0 0 1 1.168-1.08 1.267 1.267 0 0 1 1.089.137.211.211 0 0 0 .076.038l.174-3.269c.011-.187.018-.352.016-.365s-.201.253-.636.865z" transform="translate(-337.43 -580.27)"/><path id="Path_71876" data-name="Path 71876" d="M2941.3-1603.212v.05a.714.714 0 0 0 0-.1v.05z" transform="translate(-2906.055 -653.368)"/><path id="Path_71877" data-name="Path 71877" d="M2940.3-1585.212v.051a.715.715 0 0 0 0-.1v.049z" transform="translate(-2905.067 -671.151)"/><path id="Path_71878" data-name="Path 71878" d="M2939.3-1566.533c0 .053 0 .073.005.044a.788.788 0 0 0 0-.1c-.005-.02-.005.003-.005.056z" transform="translate(-2904.079 -689.608)"/><path id="Path_71879" data-name="Path 71879" d="M2938.3-1548.212c0 .056 0 .079.005.051a.793.793 0 0 0 0-.1c-.005-.031-.005-.008-.005.049z" transform="translate(-2903.091 -707.707)"/><path id="Path_71880" data-name="Path 71880" d="M2937.3-1530.212c0 .056 0 .079.005.05a.793.793 0 0 0 0-.1c-.005-.029-.005-.007-.005.05z" transform="translate(-2902.103 -725.49)"/><path id="Path_71881" data-name="Path 71881" d="M2936.3-1511.534c0 .053 0 .073.005.044a.786.786 0 0 0 0-.1c-.005-.019-.005.003-.005.056z" transform="translate(-2901.115 -743.947)"/><path id="Path_71882" data-name="Path 71882" d="M2935.3-1493.533c0 .053 0 .073.005.044a.7.7 0 0 0 0-.1c-.005-.02-.005.003-.005.056z" transform="translate(-2900.127 -761.73)"/><path id="Path_71883" data-name="Path 71883" d="M2934.3-1475.212v.05a.714.714 0 0 0 0-.1v.05z" transform="translate(-2899.139 -779.829)"/><path id="Path_71884" data-name="Path 71884" d="M2933.3-1457.212v.05a.646.646 0 0 0 0-.1v.05z" transform="translate(-2898.151 -797.613)"/><path id="Path_71885" data-name="Path 71885" d="M2932.3-1438.533v.045a.575.575 0 0 0 0-.1v.055z" transform="translate(-2897.164 -816.069)"/><path id="Path_71886" data-name="Path 71886" d="M2931.3-1420.212v.051a.65.65 0 0 0 0-.1v.049z" transform="translate(-2896.176 -834.168)"/><path id="Path_71887" data-name="Path 71887" d="M2930.3-1402.212v.051a.6.6 0 0 0 0-.1v.049z" transform="translate(-2895.188 -851.952)"/><path id="Path_71888" data-name="Path 71888" d="M2929.3-1384.212v.051a.65.65 0 0 0 0-.1v.049z" transform="translate(-2894.2 -869.735)"/><path id="Path_71889" data-name="Path 71889" d="M2928.3-1365.534v.045a.529.529 0 0 0 0-.1v.055z" transform="translate(-2893.211 -888.192)"/><path id="Path_71890" data-name="Path 71890" d="M2927.3-1347.212v.051a.6.6 0 0 0 0-.1v.049z" transform="translate(-2892.224 -906.291)"/><path id="Path_71891" data-name="Path 71891" d="M2926.3-1329.212v.051a.715.715 0 0 0 0-.1v.049z" transform="translate(-2891.236 -924.074)"/><path id="Path_71892" data-name="Path 71892" d="M2925.3-1310.533c0 .053 0 .073.005.044a.788.788 0 0 0 0-.1c-.005-.02-.005.003-.005.056z" transform="translate(-2890.247 -942.531)"/><path id="Path_71893" data-name="Path 71893" d="M2924.3-1292.533v.044a.634.634 0 0 0 0-.1v.056z" transform="translate(-2889.26 -960.314)"/><path id="Path_71894" data-name="Path 71894" d="M2923.3-1274.212v.051a.8.8 0 0 0 0-.1v.049z" transform="translate(-2888.272 -978.413)"/><path id="Path_71895" data-name="Path 71895" d="M2922.3-1256.212c0 .056 0 .079.005.05a.894.894 0 0 0 0-.1c-.005-.029-.005-.006-.005.05z" transform="translate(-2887.283 -996.197)"/><path id="Path_71896" data-name="Path 71896" d="M2921.3-1237.533v.044a.629.629 0 0 0 0-.1v.056z" transform="translate(-2886.296 -1014.653)"/><path id="Path_71897" data-name="Path 71897" d="M2920.3-1219.212v.05a.791.791 0 0 0 0-.1v.05z" transform="translate(-2885.307 -1032.752)"/><path id="Path_71898" data-name="Path 71898" d="M2919.3-1201.212v.051a.793.793 0 0 0 0-.1v.049z" transform="translate(-2884.32 -1050.536)"/><path id="Path_71899" data-name="Path 71899" d="M2918.3-1183.212v.051a.714.714 0 0 0 0-.1v.049z" transform="translate(-2883.332 -1068.32)"/><path id="Path_71900" data-name="Path 71900" d="M2917.3-1164.533v.044a.7.7 0 0 0 0-.1v.056z" transform="translate(-2882.344 -1086.776)"/><path id="Path_71901" data-name="Path 71901" d="M2916.3-1146.212v.05a.793.793 0 0 0 0-.1v.05z" transform="translate(-2881.356 -1104.875)"/><path id="Path_71902" data-name="Path 71902" d="M2915.3-1128.212c0 .056 0 .079.005.051a.793.793 0 0 0 0-.1c-.005-.03-.005-.008-.005.049z" transform="translate(-2880.367 -1122.658)"/><path id="Path_71903" data-name="Path 71903" d="M2914.3-1109.533c0 .053 0 .073.005.045a.7.7 0 0 0 0-.1c-.005-.021-.005.002-.005.055z" transform="translate(-2879.379 -1141.115)"/><path id="Path_71904" data-name="Path 71904" d="M2913.3-1091.533c0 .053 0 .073.005.044a.632.632 0 0 0 0-.1c-.005-.02-.005.003-.005.056z" transform="translate(-2878.392 -1158.898)"/><path id="Path_71905" data-name="Path 71905" d="M2912.3-1073.212v.05a.714.714 0 0 0 0-.1v.05z" transform="translate(-2877.404 -1176.997)"/><path id="Path_71906" data-name="Path 71906" d="M2911.3-1055.212v.051a.712.712 0 0 0 0-.1v.049z" transform="translate(-2876.416 -1194.781)"/><path id="Path_71907" data-name="Path 71907" d="M2910.3-1036.533v.044a.527.527 0 0 0 0-.1v.056z" transform="translate(-2875.428 -1213.237)"/><path id="Path_71908" data-name="Path 71908" d="M2909.3-1018.212v.051a.714.714 0 0 0 0-.1v.049z" transform="translate(-2874.44 -1231.336)"/><path id="Path_71909" data-name="Path 71909" d="M2908.3-1000.212v.051a.65.65 0 0 0 0-.1v.049z" transform="translate(-2873.451 -1249.12)"/><path id="Path_71910" data-name="Path 71910" d="M2907.3-982.212v.05a.648.648 0 0 0 0-.1v.05z" transform="translate(-2872.464 -1266.904)"/><path id="Path_71911" data-name="Path 71911" d="M2906.3-963.533v.044a.632.632 0 0 0 0-.1v.056z" transform="translate(-2871.476 -1285.36)"/><path id="Path_71912" data-name="Path 71912" d="M2905.3-945.212v.05a.794.794 0 0 0 0-.1v.05z" transform="translate(-2870.488 -1303.459)"/><path id="Path_71913" data-name="Path 71913" d="M2904.3-927.212v.05a.65.65 0 0 0 0-.1v.05z" transform="translate(-2869.5 -1321.243)"/></g></g></svg>