<svg xmlns:xlink="http://www.w3.org/1999/xlink" xmlns="http://www.w3.org/2000/svg" width="64" height="64" viewBox="0 0 64 64"><g id="Group_63147" data-name="Group 63147" transform="translate(-412.385 -1063)"><g id="Group_62890" data-name="Group 62890" transform="translate(412.384 1063)"><path id="Path_68463" data-name="Path 68463" d="M32 0A32 32 0 1 1 0 32 32 32 0 0 1 32 0z" fill="#fff"/><g id="Group_63149" data-name="Group 63149" transform="translate(-764.934 -309.02)"><path id="Path_71758" data-name="Path 71758" d="m-.162-1.835-.019-.219a1.525 1.525 0 0 0 .019.219" transform="translate(811.271 344.065)" fill="#ea1f27"/><path id="Path_71759" data-name="Path 71759" d="M-.041-.1a.027.027 0 0 0 .017-.012C-.043-.118-.051-.117-.041-.1" transform="translate(789.992 355.281)" fill="#ea1f27"/><path id="Path_71760" data-name="Path 71760" d="m0 0 .019.1C.036.115.014.022 0 0" transform="translate(810.696 339.697)" fill="#ea1f27"/><path id="Path_71761" data-name="Path 71761" d="M0 0a.567.567 0 0 0 .072.061L0 0" transform="translate(806.826 332.698)" fill="#ea1f27"/><path id="Path_71762" data-name="Path 71762" d="M-.359-1.035c-.015-.042-.031-.084-.041-.124l.043.124" transform="translate(784.064 348.325)" fill="#ea1f27"/><path id="Path_71763" data-name="Path 71763" d="M0 0a.082.082 0 0 0 .013.026C.008.015 0 .008 0 0" transform="translate(810.982 341.118)" fill="#ea1f27"/><path id="Path_71764" data-name="Path 71764" d="m0 0 .009.021L0 0" transform="translate(810.744 339.225)" fill="#ea1f27"/><path id="Path_71765" data-name="Path 71765" d="M-6.839-130.189a.846.846 0 0 0 .026.107 1.283 1.283 0 0 0-.026-.107m.484-5.3c.01-.05.021-.094.03-.131a.741.741 0 0 0-.03.131m.031-.136a.123.123 0 0 1 .011-.019.373.373 0 0 0 .013-.056.447.447 0 0 0-.02.071m.761-2.07a.088.088 0 0 0-.015.027c0-.009.011-.017.015-.027m17.5-6.458a.3.3 0 0 0 .043.02.1.1 0 0 0-.043-.02m2.925 2.369v-.007c-.019-.012-.01 0 0 .007m2.477 1.716.148.111-.1-.159a3.925 3.925 0 0 1 .392.444 1.745 1.745 0 0 0-.328-.4c-.093-.079-.164-.127-.268-.221l.173.231zm.329 10.935.029-.107-.029.082zm.079-.305a5.922 5.922 0 0 1-.048.191c.024-.075.03-.12.048-.191m.3-1.41v.049a.113.113 0 0 0 0-.049m-.108-3.571c-.015-.1-.033-.2-.051-.294l-.031-.18a10.57 10.57 0 0 0-.315-1.217v-.006a13.47 13.47 0 0 0-.128-.387c.009-.012.022-.027-.037-.177-.053-.113-.106-.233-.163-.36v-.007a12.207 12.207 0 0 0-.878-1.766c-.231-.407-.479-.8-.718-1.151l.056.049a3.408 3.408 0 0 0-.24-.284c-.086-.1-.175-.191-.253-.283.006-.008.061.05.033 0-.062-.027-.294-.325-.381-.385-.058-.076-.036-.084-.113-.182l-.119-.079a4.662 4.662 0 0 1-.506-.452c-.086-.091-.187-.175-.284-.262a3 3 0 0 0-.309-.248c.024.01.069.038.041.007-.17-.126-.352-.256-.543-.388l-.014-.009a12.277 12.277 0 0 0-1.8-1.1c0-.006 0-.014-.02-.027a.182.182 0 0 1-.055-.009 12.319 12.319 0 0 0-3.039-1.026h-.008l-.07-.012a12.562 12.562 0 0 0-2.357-.223 12.42 12.42 0 0 0-1.51.091h-.053c-.241.029-.479.069-.716.112-.031 0-.059.01-.083.016-.083.016-.167.03-.249.047 0 0-.006 0-.014-.007l-.072.027a11.834 11.834 0 0 0-1.187.323l.02-.013a.641.641 0 0 0-.213.077c-.048.016-.1.033-.142.05a12.213 12.213 0 0 0-2.052.956 1.7 1.7 0 0 0-.164.092.005.005 0 0 1 0 .006 12.2 12.2 0 0 0-1.112.755c.013-.012.031-.029.059-.051l-.166.1c.012-.031.157-.117.1-.1l-.468.388-.152.174q-.231.2-.45.409l-.14.182a5.806 5.806 0 0 0-.153.217c-.085.092-.043 0-.16.135.014 0-.035.063-.066.108-.037.029-.332.4-.4.412-.049.031.127-.091.025 0a1.182 1.182 0 0 0-.286.448h-.007c-.049 0-.115.079-.154.142s-.044.063.013 0a.18.18 0 0 0 .006-.02 5.379 5.379 0 0 1-.274.4.193.193 0 0 0 .034-.1c-.076.137-.155.274-.236.417s-.154.263-.226.4a.737.737 0 0 1 .035-.112 4.91 4.91 0 0 0-.312.563 6.11 6.11 0 0 1-.265.52c.014-.013.023.009.018.01-.09.193-.113.172-.16.3a1.235 1.235 0 0 0-.114.3c-.01.048-.016.047-.008.01-.041.119-.107.3-.176.5l-.256.785a2.51 2.51 0 0 1-.063.385l-.016-.048a1.027 1.027 0 0 0-.04.14c.008-.037.015-.1.025-.169l-.018.084-.021.108h-.009c-.013.057.062.113-.041.169 0 .015 0 .026-.008.028 0 .051.006.037.017-.013-.026.144-.046.286-.084.423.014-.057 0-.177-.034-.007-.048.3 0 .087-.036.33 0 0 0 .039-.008.077v.077c.023.013-.031.241 0 .174-.022.079-.04.42-.075.387l-.029-.045a1.869 1.869 0 0 0 .026.321c0 .015-.013.044-.018.044.049.028-.034.311.008.466a7.27 7.27 0 0 0-.023.466 2.116 2.116 0 0 1-.013.358l.031.309c.01.104.023.211.027.331a.478.478 0 0 0-.027-.125 1.368 1.368 0 0 0 .031.324 4.568 4.568 0 0 0 .007.471c.042.206.061.131.08.149a1.307 1.307 0 0 0 .058.392 2.814 2.814 0 0 1 .079.426c-.024-.069-.09-.294-.066-.12a4.981 4.981 0 0 0 .175.673l.02-.083c.013.139.148.428.1.41.039.1.1.351.124.305.113.5.456 1.139.52 1.451.033.064.112.228.113.185-.035-.117-.09-.143-.093-.191.028.06.044.068.051.071.063.143.118.255.019.139.14.323.22.293.43.684-.025-.009-.014.023.054.135l.075.1.079.1c.149.246.055.159.035.18a1.836 1.836 0 0 0 .248.331l.069.149c-.022-.061.077.085.129.153l-.031-.035a1.217 1.217 0 0 0 .176.238.385.385 0 0 0-.06-.107 2.723 2.723 0 0 0-.1-.153c.056.057.125.158.2.23-.044-.009.139.21.212.308.082.115.121.1.146.138-.008.012.148.175.061.1a1.4 1.4 0 0 0-.122-.143.649.649 0 0 0 .167.219c.105.1.018-.065.183.154a.81.81 0 0 0-.111-.085 5.312 5.312 0 0 0 .158.2l.027-.009c.02.029 0 .013.009.027.073.037.277.279.339.3.094.089.184.2.272.289l-.019-.015c.049.057.112.05.176.106a.288.288 0 0 0 .187.066h-.009c.062 0 .211.252.3.305.152.145-.006.155.2.272.168.132.29.185.233.12.148.119.318.238.483.352a5.233 5.233 0 0 1 .472.327.6.6 0 0 1 .126.051c.473.3 1.047.534 1.433.758-.152-.057-.02.019-.023.034.131.035.14.084.2.067 0-.027.013-.03-.128-.1.155.058.352.129.529.2s.32.118.407.159c-.055-.029.009-.015.075 0-.035.028.2.113.38.147l.031-.014.11.055a.568.568 0 0 1 .26.045.084.084 0 0 0 .047.035c.1.013.211.027.328.045s.233.043.335.069l.161.062c.089.013.239.019.087-.018.171.043.316.068.43.087a1.453 1.453 0 0 1 .253.062c.154.006.325 0 .506 0l.276.007h.556c.1 0 .195-.006.29-.008.192-.006.381 0 .558-.021l-.02.019c.191 0 .1-.037.23-.036-.061.021.148.025 0 .056a2.018 2.018 0 0 0 .523-.092c.024-.026-.14.033-.108 0a2.339 2.339 0 0 0 .414-.07c.069 0 .021.037-.014.055 0 0 .041-.009.082-.021l.08-.023c.1 0-.008.04-.119.079s-.223.066-.112.077l.077-.012c.039-.006.076-.014.076-.014.153.015-.4.094-.013.055.166-.047.3-.12.148-.108.344-.072.147-.1.515-.176.051 0-.021.018-.1.036s-.158.034-.12.041a3.082 3.082 0 0 0 .5-.114c-.173.027-.036-.04.071-.071.19-.027-.112.059.152 0 .039-.031.273-.113.063-.068.083-.07.274-.065.4-.139.094.006-.247.146.044.079-.053-.01.336-.152.174-.145.112-.029.132-.011.057.034.163-.036.364-.18.435-.143l.042-.049c.052-.01.125-.03.21-.045.068-.027.174-.08.263-.12s.159-.076.162-.051c.041-.023.346-.16.216-.135-.2.068-.209.12-.331.127a1.205 1.205 0 0 0 .375-.188l.024.009a2.325 2.325 0 0 0 .223-.125c-.008.013.019.007.058-.009l.055-.058c.247-.143.086.009.322-.12a1.573 1.573 0 0 1-.082.055l-.083.054a1.38 1.38 0 0 0 .244-.115c.034-.049.1-.124.134-.163.114-.077.087-.028.158-.08l-.124.1a.786.786 0 0 0 .324-.143c.111-.082.268-.225.08-.121.09-.057.224-.126.162-.064.2-.138-.041-.006.126-.131.08-.033.308-.169.455-.242l-.154.161.119-.084c-.135.136.092-.035.027.055a1.5 1.5 0 0 0 .246-.2c-.263.135.209-.262.11-.251.3-.253.273-.059.536-.389-.047.027.014-.059-.036-.022a1.4 1.4 0 0 1 .239-.254c-.142.164.2-.12 0 .115 0-.01-.033.016-.07.05s-.084.076-.1.093c.089-.054.022.056.208-.118.108-.11.261-.258.22-.255-.024-.016-.168.166-.118.076.217-.218.283-.225.333-.354-.131.145-.188.155-.2.139 0 0 .039-.041.075-.084l.072-.084-.015.043c.259-.251.048-.1.291-.35l.136-.1c-.026.09-.357.363-.274.356.079-.082.127-.141.175-.2a1.994 1.994 0 0 1 .166-.192 2.335 2.335 0 0 1-.1.128 1.165 1.165 0 0 0 .344-.349c.093-.141.013-.047 0-.062.218-.294.276-.386.408-.581 0 .063.245-.336.127-.1-.045.041-.139.174-.239.3a2.065 2.065 0 0 0-.218.329c.06-.038.014.018-.048.094a.78.78 0 0 0-.157.212c.195-.222.22-.182.273-.2a1.668 1.668 0 0 0 .119-.176c0-.044-.068.04-.094.027a4.46 4.46 0 0 0 .283-.374 3.359 3.359 0 0 0 .182-.31c.076-.08.079-.037.006.071.113-.16.219-.333.328-.5s.21-.338.308-.5c-.136.159.1-.223.1-.258.023-.014.052-.036.054 0 .1-.239.018.022.134-.205s.216-.534.328-.8a5.564 5.564 0 0 0 .244-.581c.066-.212.128-.421.179-.574s.129-.034.186-.209c.058-.206.076.141.076-.159v.031a1.574 1.574 0 0 1 .033-.326.957.957 0 0 0 .018-.314v.083a.834.834 0 0 0 .018-.162c.015 0 .04-.063.028.033a.654.654 0 0 0 .032-.106c-.028.139-.06.276-.094.413.008-.03.018-.068.033-.113-.015.093-.025.18-.031.26s-.015.152-.018.217a2.675 2.675 0 0 0 .1-.441 1.529 1.529 0 0 1 .084-.352 1.481 1.481 0 0 0 .059-.481c.012-.022.041-.142.031-.025a2.486 2.486 0 0 0 .044-.423c0 .035-.014.083-.019.121-.01-.084.007-.234-.014-.252.01-.082.019-.163.027-.245.022-.007.009.225.039.092a.7.7 0 0 0 0-.086c0-.051 0-.121-.007-.19v-.115q.035-.462.035-.934a12.459 12.459 0 0 0-.162-2.013m.216 2.551c-.018-.022-.04.08-.058.1.015.161.04-.04.058-.1m0-.538-.009.138c0-.014.016-.135.017.051a.414.414 0 0 0-.008-.189m.31.823c-.012.006-.013.057-.018.085.006-.033.01-.059.018-.085m.473-1.617a.274.274 0 0 0-.064-.238c.04.068 0 .273.064.238m-.069.794c-.085-.036-.157-.2-.226.057l.061.052c-.064.086-.033.065-.079.1a2.131 2.131 0 0 1-.16.617h.007a1.074 1.074 0 0 1-.021.521l-.041.048c-.082.07.092.4-.017.279a10.565 10.565 0 0 1-.44 2.178c.012.115-.191.552-.051.423a.8.8 0 0 0-.126.171 4 4 0 0 0-.135.241c-.09.171-.161.351-.206.447-.006-.012-.012-.023 0-.052-.292.312-.079.5-.4.762.036.053-.047.205-.146.37a1.061 1.061 0 0 0-.206.474c-.045.028-.075.028-.083 0a13.11 13.11 0 0 1-1.222 1.606 2.3 2.3 0 0 1-.235.329c-.092.108-.2.21-.3.314s-.2.206-.3.3a1.5 1.5 0 0 0-.223.295c-.14.111-.332.242-.527.4a6.483 6.483 0 0 0-.591.48l.029-.042c-.443.339-1.026.715-1.321.975a1.594 1.594 0 0 0-.641.169 1.817 1.817 0 0 1-.293.178c-.115.062-.247.127-.384.195l-.843.368c-.1-.029-.437.175-.493.092a8.158 8.158 0 0 1-2.52.589 10 10 0 0 1-2.664-.159h.024c-.221.019-.491.1-.725.121-.021-.012-.015-.026.031-.018a2.587 2.587 0 0 1-.448-.107 2.593 2.593 0 0 0-.441-.129c.006-.014.006-.014.058-.017a1.114 1.114 0 0 1-.219-.043c-.072-.021-.143-.052-.218-.08a1.789 1.789 0 0 0-.477-.127l-.01-.029-.218-.039c.012-.022.028-.053.093-.036a15.072 15.072 0 0 1-1.808-.747 13.085 13.085 0 0 1-1.759-1.028 13.061 13.061 0 0 1-1.592-1.3 11.723 11.723 0 0 1-1.345-1.568l.082.066-.351-.407c.014-.006.035.011.055.028-.337-.59-.758-1.162-1.032-1.771.015 0 .082.076.058-.015a1.929 1.929 0 0 1-.245-.555.6.6 0 0 0-.216-.372c0-.025.029-.053.059-.01a11.079 11.079 0 0 1-.617-1.97 12.053 12.053 0 0 1-.23-2.06 5.208 5.208 0 0 1-.075-.882 8.29 8.29 0 0 1 .042-.914c.065-.612.157-1.225.246-1.821l.028.013a9.062 9.062 0 0 1 .726-2.27 15.471 15.471 0 0 1 1.2-2.105c.1-.135.189-.26.273-.38s.173-.23.255-.344c.162-.229.346-.442.565-.7l.04.014a5.891 5.891 0 0 1 1.264-1.223c.117-.093.245-.175.365-.266s.241-.178.365-.263.243-.175.36-.268.238-.178.352-.274l-.041.087c.107-.174.625-.343.5-.427l.2-.068a2.514 2.514 0 0 1 .489-.326 4.284 4.284 0 0 1 .533-.22c.181-.071.377-.122.576-.2s.412-.149.636-.256l-.051.051a2.77 2.77 0 0 1 .724-.234c-.028.013-.012.019-.069.043.2-.029.414-.056.623-.1l.635-.135c.212-.053.43-.089.647-.127a5.391 5.391 0 0 1 .651-.079l-.093.068a8.715 8.715 0 0 1 1.729-.061l-.035.026.279-.019v.057c.356.021.7.061 1.042.091a10.3 10.3 0 0 1 1.02.171l-.047.057a9.655 9.655 0 0 1 1.975.6h-.049a8.774 8.774 0 0 1 2.263 1.13 12.76 12.76 0 0 1 2.029 1.516c-.023-.015-.04-.014-.064-.028a1.04 1.04 0 0 1 .228.151c.009.025-.036 0-.062-.019a3.064 3.064 0 0 0 .478.516 2.439 2.439 0 0 1 .4.453c.072.075.127.089.113.026a14.786 14.786 0 0 1 2.2 3.6c.014.066 0 .086-.037.079a7.159 7.159 0 0 1 .613 1.723c.076.3.117.607.167.913.02.153.034.307.05.46l.025.23.014.23c.04.044.029-.128.076-.012a1.859 1.859 0 0 0-.078-.55 2.24 2.24 0 0 1-.08-.522l.043.04c-.024-.261-.1-.036-.1-.311.01-.111.049.019.043-.031a8.34 8.34 0 0 0-.091-.41l-.1-.41a11.625 11.625 0 0 0-.129-.4 2.331 2.331 0 0 0-.16-.37c.033-.147-.184-.567-.2-.781-.08-.122-.126-.26-.193-.29a11.664 11.664 0 0 0-1.431-2.555 14.3 14.3 0 0 0-1.99-2.192c-.4-.251-.779-.581-1.2-.9a8.206 8.206 0 0 0-1.365-.889c0-.008 0-.012.008-.013-.169-.065-.371-.154-.577-.252s-.425-.187-.617-.282l-.359-.075c-.146-.068-.293-.132-.443-.187s-.3-.117-.452-.169c-.308-.1-.616-.2-.931-.269s-.634-.135-.954-.2c-.323-.041-.646-.093-.971-.111a13.211 13.211 0 0 0-1.957-.012 14.952 14.952 0 0 0-1.943.253 13.1 13.1 0 0 0-2.087.6 12.046 12.046 0 0 0-1.9.9 11.8 11.8 0 0 0-1.7 1.21 10.819 10.819 0 0 0-1.442 1.568c-.009-.013-.03 0 .014-.061a13.132 13.132 0 0 0-1.405 1.909l-.012-.009a18.662 18.662 0 0 0-1.209 2.726 10.026 10.026 0 0 0-.56 2.864 13.246 13.246 0 0 0-.064 1.746c0 .3.033.6.055.9.013.152.037.3.055.453s.039.3.07.452.055.3.083.452l.106.449.055.224.064.221c.044.147.084.295.133.44a13.567 13.567 0 0 0 .688 1.685l-.028.007a17.818 17.818 0 0 0 1.477 2.428 10.859 10.859 0 0 0 1.952 2.071A10 10 0 0 0-.4-120.624a19.612 19.612 0 0 0 2.838 1.018 6.292 6.292 0 0 0 1.994.316c.7.027 1.385-.026 1.962.018h.445c.148 0 .295-.014.443-.022.295-.014.586-.061.878-.1a9.7 9.7 0 0 0 1.7-.457 11.64 11.64 0 0 0 3.066-1.707 10.891 10.891 0 0 0 2.424-2.144 21.545 21.545 0 0 0 1.858-2.593c.091-.234.205-.462.314-.7l.177-.353.174-.364c.029-.061.061-.121.089-.184l.08-.189.16-.382c.054-.128.09-.264.132-.4a3.4 3.4 0 0 0 .106-.406l-.044.03a1.393 1.393 0 0 0 .071-.616c0-.208.064-.393.064-.5v.043c.1-.2-.1-.514.1-.628v-.038c0-.254.025-.024.058-.219 0-.075-.085-.035-.05-.187.085-.011.082-.168.086-.323s-.005-.308.09-.314c0 .141.077-.22.109.1.021-.09.021-.527-.06-.487m.063-.676c-.008.02-.022.012-.031.031l.149.394c.073-.182-.167-.308-.118-.426m.091.533.034.143.018-.04z" transform="translate(791.585 475.49)" fill="#ea1f27"/><path id="Path_71766" data-name="Path 71766" d="M-231.67-101.458a4.3 4.3 0 0 1 .078.437c-.02.118-.043.091-.069.042q-.065-.544-.172-1.071c.03.07.047.085.042-.027a.563.563 0 0 0-.118-.324 13.226 13.226 0 0 0-.406-1.406c-.021-.078-.043-.16-.071-.251-.043-.126-.1-.272-.166-.457a.168.168 0 0 1 0 .068l-.112-.268.034-.025a2.489 2.489 0 0 0 .269.392 1.913 1.913 0 0 1 .273.57 1.075 1.075 0 0 1 .171.349c.066.2.142.447.192.662 0 0 0-.055-.007-.11s-.008-.11-.008-.11c.1.211.087.238.079.279s-.016.1.083.379c0 .064-.012.14-.019.215a1.972 1.972 0 0 1-.033.2c-.026.107-.063.142-.127-.011a4.043 4.043 0 0 0 .089.468m.045.814c0-.009 0-.02.006-.033v.117c0-.028 0-.056-.008-.084m-.149 1.317-.034-.143.051.1zm-.156-.645c.009-.02.023-.012.032-.031-.049.118.191.244.118.426zm-.755.782c0-.007 0-.041.009-.138a.412.412 0 0 1 .008.189c0-.187-.015-.065-.018-.051m.013.4c-.019.061-.043.261-.058.1.019-.02.041-.122.058-.1m-.488 2.735v-.026l.029-.082a3.34 3.34 0 0 1-.029.107M-257.64-97a.859.859 0 0 1-.026-.107c.009.035.019.071.026.107m.488-5.542a2.52 2.52 0 0 0-.03.131.749.749 0 0 1 .03-.131m.021-.077a.366.366 0 0 1-.009.053.118.118 0 0 0-.01.019.442.442 0 0 1 .02-.071m24.345 4.896v-.049a.111.111 0 0 1 0 .049m.024-.557c0 .069.006.139.007.19a.7.7 0 0 1 0 .086c-.029.133-.016-.1-.038-.092a6.792 6.792 0 0 1-.027.245c.021.018 0 .168.014.252 0-.038.014-.086.019-.121a2.487 2.487 0 0 1-.044.423c.009-.118-.02 0-.031.025a1.478 1.478 0 0 1-.059.482 1.531 1.531 0 0 0-.084.352 2.686 2.686 0 0 1-.1.441q0-.1.018-.217c.006-.08.015-.167.03-.26a1.929 1.929 0 0 0-.034.113c-.018.071-.023.117-.048.191.016-.063.033-.127.048-.191.034-.136.065-.274.093-.413a.667.667 0 0 1-.034.106c.012-.1-.016-.031-.031-.033a.883.883 0 0 1-.026.162l-.018-.083a.821.821 0 0 1 .011.314 1.58 1.58 0 0 0-.033.326v-.031c0 .3-.018-.048-.076.159-.057.175-.094.054-.157.209s-.128.361-.194.574a5.5 5.5 0 0 1-.251.581c-.112.263-.225.561-.331.8s-.037-.034-.136.205c0-.031-.031-.009-.055 0 0 .035-.241.416-.1.258-.1.159-.195.33-.308.5s-.215.34-.328.5c.073-.108.07-.152-.006-.071a3.334 3.334 0 0 1-.182.31 4.458 4.458 0 0 1-.283.374c.027.013.093-.071.094-.027a1.672 1.672 0 0 1-.119.176c-.052.019-.078-.021-.273.2a.783.783 0 0 1 .157-.212c.062-.077.107-.133.048-.094a2.048 2.048 0 0 1 .218-.329c.1-.129.193-.262.239-.3.118-.234-.122.164-.127.1-.132.195-.19.287-.408.581.012.015.092-.079 0 .062a1.162 1.162 0 0 1-.344.349c.029-.037.069-.09.1-.128a2 2 0 0 0-.165.192 7.28 7.28 0 0 1-.175.2c-.083.007.248-.266.274-.356l-.136.1c-.244.248-.033.1-.291.35l.015-.043-.072.084c-.031.037-.075.084-.075.084.012.016.069.006.2-.139-.05.129-.117.137-.334.355-.05.09.093-.092.118-.076.041 0-.112.146-.22.255-.185.174-.119.064-.207.118.016-.018.061-.058.1-.093s.07-.061.07-.05c.2-.235-.14.049 0-.115a1.4 1.4 0 0 0-.239.254c.05-.037-.01.049.036.022-.264.33-.233.136-.536.389.1-.012-.373.386-.109.251a1.514 1.514 0 0 1-.246.2c.065-.09-.162.082-.027-.055l-.119.084.154-.161c-.147.073-.374.21-.455.242-.167.125.073-.007-.126.131.062-.062-.072.007-.162.064.188-.1.03.04-.081.121a.786.786 0 0 1-.324.143l.124-.1c-.071.052-.044 0-.159.08-.029.04-.1.114-.134.163a1.382 1.382 0 0 1-.244.115l.083-.054c.034-.022.068-.044.082-.055-.236.129-.075-.023-.322.12l-.055.058c-.04.016-.066.022-.058.009a2.321 2.321 0 0 1-.223.125l-.024-.009a1.206 1.206 0 0 1-.375.188c.122-.007.134-.06.331-.127.13-.025-.175.112-.216.135 0-.024-.075.008-.162.051s-.2.093-.263.12c-.085.015-.157.035-.21.045l-.042.049c-.071-.036-.272.107-.435.143.075-.044.055-.063-.057-.034.162-.007-.226.134-.174.145-.291.066.05-.073-.044-.079-.13.074-.322.069-.4.139.21-.045-.025.036-.063.068-.263.057.039-.029-.152 0-.107.031-.244.1-.071.071a3.081 3.081 0 0 1-.5.114c-.038-.007.043-.024.12-.041s.149-.037.1-.036c-.368.072-.171.1-.515.176.15-.012.018.062-.148.108-.389.04.166-.04.013-.055 0 0-.037.008-.076.014l-.077.012c-.111-.01 0-.044.112-.077s.223-.077.119-.079l-.08.023c-.041.012-.082.021-.082.021.035-.018.083-.051.014-.055a2.339 2.339 0 0 1-.414.07c-.031.033.133-.026.108 0a2.018 2.018 0 0 1-.523.092c.148-.031-.061-.035 0-.056-.133 0-.039.037-.23.036l.02-.019c-.177.016-.366.015-.558.021-.1 0-.194.008-.29.008h-.579l-.276-.007c-.181-.006-.352 0-.506 0a1.456 1.456 0 0 0-.253-.062c-.114-.02-.259-.044-.43-.087.152.036 0 .03-.087.018l-.161-.062c-.1-.026-.219-.049-.335-.069s-.232-.033-.327-.045a.084.084 0 0 1-.047-.035.567.567 0 0 0-.26-.046l-.11-.055-.031.014c-.184-.034-.415-.119-.38-.147-.065-.016-.129-.03-.075 0-.087-.041-.241-.093-.407-.159s-.374-.143-.529-.2c.141.07.125.073.128.1-.059.017-.069-.031-.2-.066 0-.015-.128-.091.023-.034-.386-.224-.959-.459-1.433-.757a.551.551 0 0 0-.126-.049 5.221 5.221 0 0 0-.472-.323c-.164-.113-.335-.224-.483-.343.057.065-.065.029-.233-.1-.2-.117-.044-.162-.2-.306-.089-.054-.238-.305-.3-.305h.009a.288.288 0 0 1-.186-.067 1.632 1.632 0 0 1-.176-.141l.019.033c-.087-.089-.177-.192-.272-.28-.062-.021-.266-.258-.339-.3-.008-.014.011 0-.009-.025l-.027.01s-.043-.047-.082-.1-.069-.089-.076-.1a.816.816 0 0 1 .111.085c-.166-.219-.078-.054-.183-.154a.647.647 0 0 1-.167-.219 1.44 1.44 0 0 1 .122.143c.087.07-.069-.093-.061-.1-.024-.033-.064-.022-.146-.138-.073-.1-.256-.317-.212-.308-.078-.071-.147-.173-.2-.23l.1.153a.383.383 0 0 1 .059.107 1.215 1.215 0 0 1-.176-.238l.031.035c-.052-.068-.152-.213-.129-.153l-.069-.149a1.832 1.832 0 0 1-.248-.331c.02-.021.114.066-.035-.179l-.079-.1-.075-.1c-.068-.112-.078-.145-.054-.135-.21-.392-.29-.361-.43-.684.1.117.044 0-.019-.139-.007 0-.023-.012-.051-.071 0 .048.058.075.093.191 0 .043-.08-.121-.113-.185-.064-.312-.407-.954-.52-1.451-.028.045-.085-.21-.124-.305.05.017-.085-.272-.1-.41l-.02.083a4.95 4.95 0 0 1-.175-.673c-.023-.174.042.051.066.12a2.793 2.793 0 0 0-.079-.426 1.312 1.312 0 0 1-.058-.392c-.02-.019-.039.057-.08-.149a4.585 4.585 0 0 1-.007-.471 1.364 1.364 0 0 1-.031-.324.474.474 0 0 1 .027.125c0-.12-.014-.227-.027-.331s-.021-.2-.032-.309a2.107 2.107 0 0 0 .013-.358c0-.156.01-.33.023-.466-.042-.155.041-.438-.008-.466 0 0 .013-.029.018-.044a1.857 1.857 0 0 1-.026-.321l.029.045c.035.033.052-.308.075-.387-.032.068.023-.161 0-.174v-.077c0-.039.008-.077.008-.077.034-.243-.012-.031.036-.33.029-.17.049-.05.035.007.038-.138.061-.279.086-.423-.01.05-.025.064-.021.013 0 0 .008-.013.008-.028.1-.056.028-.112.041-.169h.005l.023-.108c.007-.036.013-.057.019-.084-.009.065-.016.132-.024.169a1.018 1.018 0 0 1 .04-.14l.016.048a2.513 2.513 0 0 0 .063-.385l.257-.785c.069-.2.135-.382.176-.5-.008.036 0 .037.008-.01a1.227 1.227 0 0 1 .114-.3c.047-.131.07-.11.16-.3.006 0 0-.023-.017-.011s-.011.017-.015.027a.086.086 0 0 1 .015-.027c.087-.154.18-.331.265-.52a4.924 4.924 0 0 1 .312-.563.735.735 0 0 0-.035.112c.072-.141.152-.274.226-.4s.16-.282.235-.419a.185.185 0 0 1-.034.1c.1-.139.206-.3.274-.41l-.006.008c-.057.061-.048.086-.013.022s.1-.142.154-.142h.007a1.183 1.183 0 0 1 .286-.448c.1-.1-.073.051-.025.02.069-.013.364-.395.4-.424.031-.045.08-.113.066-.114.117-.139.075-.046.16-.138 0 0 .073-.112.153-.218l.14-.183v-.005q.219-.21.45-.409l.152-.174.467-.388c.061-.02-.085.065-.1.1l.166-.1c-.028.022-.047.04-.06.051a12.211 12.211 0 0 1 1.112-.755v-.006a1.7 1.7 0 0 1 .164-.092 12.217 12.217 0 0 1 2.052-.956c.047-.018.095-.034.142-.05a.639.639 0 0 1 .213-.077l-.02.013a11.857 11.857 0 0 1 1.187-.323l.072-.027c.008 0 .013 0 .014.007.344-.072.694-.132 1.048-.175h.039a12.415 12.415 0 0 1 1.51-.091 12.564 12.564 0 0 1 2.357.223l.07.012h.008a12.318 12.318 0 0 1 3.039 1.026.18.18 0 0 0 .055.009c.015.013.02.021.02.027a12.27 12.27 0 0 1 1.8 1.1l.014.009c.191.132.373.262.543.388.028.031-.016 0-.041-.007a2.989 2.989 0 0 1 .309.248c.1.087.2.171.284.262a4.671 4.671 0 0 0 .506.452l.119.079c.077.1.055.106.113.182.087.06.319.358.381.385.028.051-.027-.007-.033 0 .078.092.167.188.253.283a3.38 3.38 0 0 1 .24.284l-.056-.049c.239.349.487.744.718 1.151a12.213 12.213 0 0 1 .878 1.766v.007l.163.36c.059.15.047.166.037.177.046.128.087.258.128.387v.006a10.567 10.567 0 0 1 .315 1.217l.031.179c.019.1.036.2.051.294a12.456 12.456 0 0 1 .162 2.013q0 .472-.035.934v.115m.864-1.843c-.063.035-.025-.17-.064-.238a.274.274 0 0 1 .064.238m-.011 1.281c-.031-.319-.114.042-.111-.1-.1.006-.094.159-.094.314s-.009.312-.094.323c-.035.152.035.112.034.187-.033.195-.073-.035-.09.219v.038c-.116.114.067.429-.036.628v-.043c0 .111-.06.3-.064.5a1.4 1.4 0 0 1-.084.616l.051-.03a3.42 3.42 0 0 1-.1.406c-.042.133-.084.266-.13.4s-.105.255-.159.382l-.08.189c-.028.063-.059.124-.088.184l-.174.364-.177.353c-.108.238-.223.465-.314.7a21.542 21.542 0 0 1-1.858 2.593 10.891 10.891 0 0 1-2.424 2.144 11.639 11.639 0 0 1-3.066 1.707 9.692 9.692 0 0 1-1.7.457c-.291.042-.583.089-.878.1-.148.008-.295.023-.443.022h-.445c-.577-.043-1.26.009-1.962-.018a6.291 6.291 0 0 1-1.994-.316 19.61 19.61 0 0 1-2.838-1.018 10.005 10.005 0 0 1-2.539-1.617 10.86 10.86 0 0 1-1.952-2.071 17.8 17.8 0 0 1-1.477-2.428l.028-.007a13.56 13.56 0 0 1-.688-1.685c-.049-.145-.089-.293-.133-.439l-.064-.222-.055-.224-.106-.449-.083-.452c-.027-.152-.05-.3-.07-.452s-.042-.3-.055-.453c-.022-.3-.055-.6-.055-.9a13.235 13.235 0 0 1 .064-1.746 10.02 10.02 0 0 1 .559-2.864 18.666 18.666 0 0 1 1.209-2.726l.012.009a13.144 13.144 0 0 1 1.409-1.911c-.044.061-.023.048-.014.061a10.821 10.821 0 0 1 1.457-1.547 11.792 11.792 0 0 1 1.7-1.21 12.041 12.041 0 0 1 1.9-.9 13.094 13.094 0 0 1 2.087-.6 14.955 14.955 0 0 1 1.943-.253 13.214 13.214 0 0 1 1.957.012c.325.017.648.07.971.111.319.062.64.112.954.2s.624.173.931.269c.152.052.3.112.452.169s.3.119.443.186l.359.075c.191.1.407.192.617.282s.408.187.577.252a.1.1 0 0 1 .043.02.3.3 0 0 1-.043-.02c-.009 0-.013 0-.008.013a8.216 8.216 0 0 1 1.365.889c.423.319.8.649 1.2.9a14.293 14.293 0 0 1 1.99 2.192 11.664 11.664 0 0 1 1.43 2.555c.068.03.113.168.194.29.015.215.232.634.2.781a2.322 2.322 0 0 1 .16.37c.047.129.089.262.129.4l.1.41c.033.136.065.274.091.41.006.05-.033-.079-.043.031 0 .275.076.05.1.311l-.043-.04a2.239 2.239 0 0 0 .08.522 1.857 1.857 0 0 1 .078.55c-.047-.117-.036.056-.076.012l-.014-.23-.025-.23c-.016-.154-.03-.308-.05-.46-.05-.305-.091-.613-.167-.913a7.165 7.165 0 0 0-.613-1.723c.034.007.051-.013.037-.079a14.785 14.785 0 0 0-2.2-3.6c.014.063-.041.049-.113-.026a2.436 2.436 0 0 0-.4-.454 3.065 3.065 0 0 1-.478-.516c-.015-.012-.023-.019 0-.007v.007c.026.017.071.043.062.019a1.04 1.04 0 0 0-.228-.153c.025.014.041.01.064.026a12.734 12.734 0 0 0-2.028-1.511 8.778 8.778 0 0 0-2.263-1.13h.049a9.66 9.66 0 0 0-1.975-.6l.047-.052a10.286 10.286 0 0 0-1.02-.174c-.344-.03-.687-.071-1.042-.092v-.058l-.279.018.035-.026a8.718 8.718 0 0 0-1.729.06l.093-.068a5.376 5.376 0 0 0-.651.079c-.217.038-.435.075-.647.127l-.635.135c-.209.044-.419.071-.623.1.057-.024.041-.03.069-.043a2.771 2.771 0 0 0-.724.234l.051-.051c-.225.107-.438.179-.637.256s-.4.127-.576.2a4.284 4.284 0 0 0-.533.22 2.512 2.512 0 0 0-.488.326l-.2.068c.129.084-.388.253-.5.427l.041-.087c-.114.1-.232.187-.352.274s-.238.182-.36.268-.244.175-.365.263-.248.173-.365.266a5.9 5.9 0 0 0-1.264 1.223l-.04-.014c-.219.256-.4.47-.565.7-.083.114-.17.224-.255.344s-.173.245-.273.38a15.463 15.463 0 0 0-1.2 2.105 9.065 9.065 0 0 0-.726 2.27l-.028-.013c-.089.6-.181 1.209-.246 1.821a8.305 8.305 0 0 0-.042.914 5.217 5.217 0 0 0 .075.882 12.069 12.069 0 0 0 .23 2.06 11.088 11.088 0 0 0 .617 1.97c-.03-.042-.061-.014-.059.01a.6.6 0 0 1 .216.372 1.932 1.932 0 0 0 .245.555c.023.091-.043.013-.058.015.274.608.695 1.181 1.032 1.771-.02-.017-.041-.034-.055-.028l.351.407-.082-.066a11.716 11.716 0 0 0 1.345 1.568 13.053 13.053 0 0 0 1.593 1.3 13.074 13.074 0 0 0 1.759 1.028 15.067 15.067 0 0 0 1.808.747c-.065-.016-.082.014-.093.036l.218.039.01.029a1.789 1.789 0 0 1 .477.127c.075.028.146.06.218.08a1.113 1.113 0 0 0 .219.043c-.053 0-.053 0-.058.018a2.587 2.587 0 0 1 .441.129 2.589 2.589 0 0 0 .448.107c-.047-.008-.052.006-.031.018.234-.018.5-.1.725-.121h-.025a10 10 0 0 0 2.664.159 8.159 8.159 0 0 0 2.521-.589c.056.083.392-.121.493-.092l.843-.368c.136-.068.268-.133.383-.195.058-.03.113-.059.162-.089s.092-.061.131-.089a1.592 1.592 0 0 1 .641-.169c.3-.26.878-.635 1.321-.975l-.029.042a6.482 6.482 0 0 1 .591-.48c.195-.155.387-.287.527-.4a1.5 1.5 0 0 1 .223-.295c.094-.094.195-.2.3-.3s.21-.205.3-.314a2.308 2.308 0 0 0 .236-.329 13.116 13.116 0 0 0 1.222-1.607c.008.024.037.024.083 0a1.061 1.061 0 0 1 .206-.474c.1-.164.182-.317.146-.37.324-.266.112-.45.4-.762-.016.029-.01.041 0 .052.045-.1.117-.275.206-.447a4 4 0 0 1 .135-.241.8.8 0 0 1 .126-.171c-.14.128.063-.308.051-.423a10.559 10.559 0 0 0 .44-2.178c.11.117-.064-.209.017-.279l.041-.048a1.073 1.073 0 0 0 .021-.521h-.007a.797.797 0 0 0-.017.085c0-.028.006-.079.017-.085a2.13 2.13 0 0 0 .16-.617c.047-.031.015-.01.079-.1l-.061-.052c.069-.261.141-.093.226-.057.082-.04.079.4.058.487m-8.6-13.345c.137.034.277.071.377.092-.074 0 .041.055-.018.047l.1.029c.063.019.148.039.23.068l.331.111c.182.115.218.171.1.149.171.084.4.2.593.284s.323.18.309.21a13.609 13.609 0 0 0-2.318-1.043c.081.013.183.033.287.054m2.925 1.527-.051-.017-.1-.066zm-1.193-.81c.148.078.3.182.358.166.075-.047.232.055.407.193a4.51 4.51 0 0 0 .518.408.613.613 0 0 0-.059-.021l-.145-.047-.154-.049a12.768 12.768 0 0 0-.592-.359c.365.2-.148-.135-.174-.174l.037.018-.071-.04a4.744 4.744 0 0 0-.16-.08l-.234-.117c-.007-.051.124.021.269.1m7.655 11.541c-.013-.2-.029-.758.034-.542-.024-.249-.121-.708-.156-.908.029-.064.037.171.068.27l-.056-.353-.072-.351v.207a3.085 3.085 0 0 0-.149-.66c-.069-.191-.141-.367-.2-.568a2.351 2.351 0 0 1 .252.641c.015-.274-.078-.162-.166-.589 0-.061.009-.078.035-.056l-.022-.05-.051-.11-.075-.16c-.016-.083 0-.062.015-.028-.106-.255-.126-.246-.148-.261s-.048-.057-.189-.428a1.776 1.776 0 0 0 .147.406 1.84 1.84 0 0 1 .131.354c.016.236-.2-.422-.269-.52a3.231 3.231 0 0 0-.231-.828c.113.213.047-.034.21.393.118.251-.018-.148-.011-.212-.058-.118-.03.1-.154-.236l.013.008-.14-.261-.153-.255c-.184-.522-.618-1.071-.744-1.43l-.014.108a23.133 23.133 0 0 0-.462-.716c-.048-.071-.1-.129-.134-.177a.576.576 0 0 1 .143.138c.057.077.125.174.2.273a6.191 6.191 0 0 0-.987-1.229c.147.267.18.3.325.542a1.094 1.094 0 0 1-.283-.346 1.535 1.535 0 0 0-.322-.427c.04-.052.144.083.108-.055a2.771 2.771 0 0 1-.289-.275 3.829 3.829 0 0 0-.312-.28c-.022-.069.016-.071.106-.008a2.42 2.42 0 0 1 .409.388c.226.335.572.626.732.923l-.042-.092a7.124 7.124 0 0 1-.046-.089c.134.15.221.287.316.408l.114.15a4.363 4.363 0 0 1-.306-.521 1.522 1.522 0 0 0-.284-.377c.006-.042-.15-.293.016-.126.195.218.289.4.342.4-.191-.24-.1-.166-.394-.527a3.7 3.7 0 0 1-.626-.474c-.132-.115-.274-.254-.406-.391s-.267-.259-.36-.36a3.4 3.4 0 0 0 .364.295c.1.07.16.1.145.055-.182-.105-.46-.508-.441-.38a7.071 7.071 0 0 1-.815-.8q.121.082.231.171c.072.063.141.126.209.188.133.126.266.24.387.351-.064-.064-.117-.138-.066-.113l.345.339c-.12-.139-.164-.2-.22-.266-.028-.034-.059-.068-.106-.114s-.111-.1-.2-.174c.019.023.056.071.02.044l-.289-.249.03-.059a8.842 8.842 0 0 1-.567-.459 9.006 9.006 0 0 0-.572-.418c-.068-.046-.14-.083-.212-.121l.057.021a1.83 1.83 0 0 0-.487-.246 2.57 2.57 0 0 1-.534-.22c.154.054.1-.006.092-.048a4.315 4.315 0 0 1-.61-.361c.273.182-.225-.039-.024.087-.012.058-.531-.177-.8-.3-.127-.153.846.331.48.071-.266-.128-.351-.114-.169-.015-.083-.04-.176-.086-.275-.132l-.3-.132c-.1-.044-.2-.09-.283-.132s-.164-.077-.223-.111c-.22-.041-.367-.085-.5-.115a1.682 1.682 0 0 0-.389-.047 2 2 0 0 1 .525.125c-.016 0-.087-.014-.159-.02l-.163-.015c-.2-.055-.382-.124-.549-.177s-.316-.1-.458-.14l.307.043-.018.007a1.859 1.859 0 0 1 .294.048c.1.024.192.041.176.013a1.352 1.352 0 0 1-.2-.031 4.077 4.077 0 0 1-.195-.043 3.8 3.8 0 0 0-.458-.091l.016-.006c-.322-.038-.592-.111-.838-.163a1.939 1.939 0 0 0-.675-.044c.118.009.345.086.27.1a1.944 1.944 0 0 0-.319-.061c-.115-.015-.21-.028-.2-.044h.133a5.026 5.026 0 0 0-.718-.051c-.1.04 0 .075-.265.09-.643-.042.263-.09-.175-.136 0 0-.15 0-.3.022l-.3.029-.134-.035a5.093 5.093 0 0 0-.64.04 5.644 5.644 0 0 0-.6.1l-.3.058c-.1.022-.2.049-.305.072-.206.049-.424.091-.654.148-.014-.027.143-.1.337-.143s.422-.1.537-.121a2.45 2.45 0 0 0-.516.076c-.19.036-.386.1-.585.125-.09.019-.175.04-.248.062a1.8 1.8 0 0 0-.187.073c-.1.047-.146.084-.113.093-.429.147-.322.052-.38.058a8.772 8.772 0 0 1-1 .423l-.03-.03-.257.128-.248.139c.132-.056.028.031.038.054l-.134.056a2.287 2.287 0 0 0 .414-.147c.141-.056.283-.121.427-.188a3.459 3.459 0 0 1 .436-.174 2.141 2.141 0 0 1 .437-.1c-.161.068.066.015-.094.084-.138.043-.167.047-.187.037-.072.058-.281.16.006.061.007.042-.135.106-.325.179s-.424.178-.612.267c-.161.043-.092-.015.04-.085s.324-.165.4-.216a2.987 2.987 0 0 1-.477.211l.029-.079c-.518.262-.124.113-.219.221-.108.138-.473.205-.61.289l.147-.093a6.734 6.734 0 0 0-.821.476l-.189.051a1.647 1.647 0 0 0 .457-.279 1.251 1.251 0 0 1 .261-.183c-.589.239.137-.218.325-.359a4.88 4.88 0 0 1-.722.329 4.068 4.068 0 0 1-.616.385 2.942 2.942 0 0 0-.576.417c-.21.135.154-.162-.063-.012a8.063 8.063 0 0 0-1.172.949c-.2.171-.185.121-.259.149-.126.1-.232.2-.332.3s-.192.188-.28.276c-.166.185-.311.358-.457.534s-.283.365-.444.572q-.115.158-.252.332l-.142.183-.149.2.091-.185a2.287 2.287 0 0 0-.373.576 15.738 15.738 0 0 0-.9 1.455 2.151 2.151 0 0 0-.237.568 6.042 6.042 0 0 1-.149.494c-.023-.009-.012-.164-.114.065a14.541 14.541 0 0 0-.641 2.217 14.722 14.722 0 0 0-.291 2.4.646.646 0 0 1-.014-.146 15.747 15.747 0 0 0 .238 3.146c.023.085.063.255.1.382s.075.212.077.131c-.037-.213.015-.254.05-.246.044.2.079.323.092.407a.513.513 0 0 1 .008.161.691.691 0 0 0 .046.374c-.016.094-.056.015-.094-.088s-.077-.227-.113-.219l.036.12c.022.072.05.168.086.262.066.189.134.377.134.377.1.44.3.85.409 1.226-.056-.166-.079-.03-.156-.314.02.04.014.01.034.05a3.987 3.987 0 0 0-.189-.473 2.341 2.341 0 0 1-.111-.234l.078.213c.054.139.1.283.159.423.12.279.219.557.313.771.01-.115.178.336.267.438l.008.028a1.748 1.748 0 0 1 .216.314l-.012.138c.1.177.006-.069.107.107.081.12.245.407.4.667a2.133 2.133 0 0 1 .284.55c.1.141.178.226.253.314s.146.178.255.322c-.033-.012-.092-.076-.108-.08a17.526 17.526 0 0 0 1.612 1.84l.163.147.164.133.307.246c.2.149.386.272.548.37-.128-.094-.483-.4-.228-.248.145.073.324.238.535.366-.065 0 .486.389.071.127.048.15.894.574.848.634.056.018.234.118.43.224a3.817 3.817 0 0 0 .542.246c.036.058-.347-.15-.359-.128l.29.135-.012.022a2.316 2.316 0 0 0 .591.244c.148.038.265.068.437.124h-.016l.233.078-.294-.044c.368.134.575.16.992.28l.034.034.127.031.088.021.041.008c-.044-.008-.061 0-.035.009a3.171 3.171 0 0 1 .519.1 2.4 2.4 0 0 0 .507.082 1.265 1.265 0 0 0 .529.146l-.057.069a1.732 1.732 0 0 1-.281-.059.733.733 0 0 1-.107-.042 1.692 1.692 0 0 0-.412-.1 4.922 4.922 0 0 0 1.089.31 11.054 11.054 0 0 0 1.416.167l.574.007c.205 0 .417.013.618 0s.389-.009.544-.029a1.306 1.306 0 0 0 .347-.08l-.069.053.18-.008.183-.007.21-.019.393-.036c.108-.009.178-.02.178-.02a11.142 11.142 0 0 0 2.614-.725l.2-.037c.166-.1.4-.207.656-.344l.4-.2.408-.223c.136-.072.266-.152.389-.23s.24-.153.345-.223a2.811 2.811 0 0 0 .45-.386c.19-.1.169-.077.1-.01a2.206 2.206 0 0 0-.2.177 2.357 2.357 0 0 0 .224-.153l.239-.2c.08-.068.162-.133.242-.189a1.4 1.4 0 0 1 .223-.14c.008.009-.077.084-.142.14s-.115.093-.028.041c.211-.1.232-.239.469-.36-.062.016.009-.063.12-.19s.276-.286.416-.417a.371.371 0 0 1-.08.062c-.034 0 .007-.037.065-.1l.195-.192a.159.159 0 0 1-.033.049 15.489 15.489 0 0 0 1.968-2.419 16.293 16.293 0 0 0 1.468-2.832l-.108.37c.041-.145.12-.336.184-.515s.127-.344.159-.423l-.01.043c.031-.064.057-.12.077-.173s.034-.1.045-.146a3.12 3.12 0 0 0 .047-.234 1.642 1.642 0 0 1 .132-.462l-.012.084c.075-.328.159-.583.213-.844.03-.131.061-.26.086-.4s.035-.288.045-.452c.05-.254.071-.368.1-.463a3.04 3.04 0 0 0 .079-.346 1.2 1.2 0 0 0-.038-.463l-.008.145c-.048.156-.028-.317-.042-.532-.065.145-.16.087-.24.534.007-.177.012-.354.012-.534 0-.148 0-.295-.008-.442 0 .019.007.036.011.048a1.06 1.06 0 0 1-.009-.224c.025.21.069.59.087.618-.043-.31.036-.34-.019-.664a.359.359 0 0 1 .055.253c.04-.273.007-.542.047-.66a1.168 1.168 0 0 0 .051.423 4.647 4.647 0 0 0-.073-.751c.075-.037-.1-.725-.011-.562a1.362 1.362 0 0 1-.038-.177 2.526 2.526 0 0 1-.04-.293.672.672 0 0 1 .085.225c.037.119.064.261.1.344.14.8-.059-.007-.061.183 0 0 .006.038.013.1s.021.133.027.21l.026.305c.007-.063.075.242.04-.159a2.239 2.239 0 0 1 .085.393 2.219 2.219 0 0 1 .009.5c.024.072.014-.16.014-.232.026.07.119.462.119-.049 0 .146-.044-.246-.064.017" transform="translate(1042.411 442.406)" fill="#ea1f27"/><path id="Path_71767" data-name="Path 71767" d="M-.089-.482-.1-.54v.073c0-.024 0-.025.008-.016" transform="translate(810.786 340.179)" fill="#ea1f27"/><path id="Path_71768" data-name="Path 71768" d="M0-58.308.614-56.3 6.2-53.307s-.35.223 4.234.41 4.069-.161 6.664.262 3.4.871 4.239.5 1.44-2.724 1.44-2.724-.873-.96.309-2.388 2.127-.486 1.207-2.6-.414-4-4.6-4.4-9.223-1.694-11.724-.6-4.213 1.294-5.943 2.687A6.482 6.482 0 0 0 0-58.308" transform="translate(784.882 390.295)" fill="#fff" fill-rule="evenodd"/><path id="Path_71769" data-name="Path 71769" d="m-98.816-58.8 3.345-3.721c-.391 2.31-2.417 3.726-2.821 5.916-.241 1.307.108 1.528.344 2.517a3.375 3.375 0 0 1-.867-4.712m15.8 17.025h-.105c-1.165-2.671-1.918-5.377-.779-8.941a3.01 3.01 0 0 0-2.612 1.06c-.737.941-.663 1.758-.5 3-3.124-1.573-.513-6.962-1.929-10.154a3.329 3.329 0 0 0-2.176-1.852 3.616 3.616 0 0 1-1.385 4.98c-1.9 1.031-4.358-.215-4.558-2.051-.216-1.988 1.611-3.646 2.3-5.133.928-2 .37-4.26-1.3-4.958.176 1.856-.986 3.076-2.011 4.006a16.431 16.431 0 0 1-1.779 1.306c-1.6 1.076-3.677 2.066-4.376 4.815-.626 2.46.337 3.511 1.008 4.754-3.649-.656-2.647-5.4-6.457-5.82 2.446 5.4 1.008 10.275-.827 14.78-.04-.384-.126-.982-.126 1.121a13.877 13.877 0 0 0 13.883 13.875 13.877 13.877 0 0 0 13.877-13.877z" transform="translate(893.976 383.074)" fill="#ea1f27" fill-rule="evenodd"/><path id="Path_71770" data-name="Path 71770" d="m0-.683.029-.082A3.34 3.34 0 0 1 0-.658z" transform="translate(809.251 347.009)" fill="#fff"/><path id="Path_71771" data-name="Path 71771" d="M-.337-.068c-.053.056-.048.079-.019.031l.025-.04-.006.008" transform="translate(787.353 336.307)" fill="#212222"/><path id="Path_71772" data-name="Path 71772" d="M-.074-.44a.091.091 0 0 0 .015-.008l.01-.011c.1-.1-.073.051-.024.02" transform="translate(787.499 336.131)" fill="#212222"/><path id="Path_71773" data-name="Path 71773" d="M-175.227-105.18a3.7 3.7 0 0 1-.093-.513c-.063-.314-.118-.676-.183-1.045a6.437 6.437 0 0 0-.217-.836 8.528 8.528 0 0 1 .384 2.537c0 .207-.01.412-.025.616l.009.1.012.131v.06c-.024.091-.02-.074-.042-.064-.005.056-.013.111-.02.166.025.007.012.115.026.175 0-.028.011-.062.014-.087a1.355 1.355 0 0 1-.025.295c0-.085-.021.008-.031.016a.685.685 0 0 1-.031.331c-.068.119-.048.342-.119.544a1.911 1.911 0 0 1 .011-.332c-.039.105-.033.136-.062.217l-.018.065a.679.679 0 0 1-.007.279h-.025a1.631 1.631 0 0 1-.075.352c-.059.162-.133.32-.193.473s-.132.29-.189.407h-.026a1.172 1.172 0 0 1-.119.3c-.057.115-.13.228-.168.319-.09.141-.191.293-.273.432a1.738 1.738 0 0 1-.237.308 6.942 6.942 0 0 1-1.131 1.291s.014-.023.026-.048l.026-.048c-.062.094-.064.035-.142.109.111-.06-.089.124-.133.19-.11.081-.236.173-.35.274s-.232.192-.323.273l-.021-.014a1.652 1.652 0 0 1-.324.233c-.122.072-.26.133-.393.207a.6.6 0 0 0-.174.058 2.306 2.306 0 0 1-.419.269 4.751 4.751 0 0 1-.607.223 7.758 7.758 0 0 1-1.978.515l-.053-.021a4.982 4.982 0 0 1-.525.066c-.182.006-.367.019-.549.009l-.27-.009c-.089 0-.175-.014-.26-.019-.169-.01-.328-.028-.473-.039l.061-.04c-.177-.033-.408-.047-.368-.007-.088-.023-.2-.037-.3-.054a.873.873 0 0 1-.249-.075c-.179-.048-.226-.033-.376-.069-.177-.057-.3-.1-.414-.142l-.183-.06-.12-.044c.024 0 .021-.019-.046-.048s-.174-.064-.255-.1-.134-.05-.086 0a7.333 7.333 0 0 1-1.087-.59c.018.03-.061-.017-.1-.029a6.763 6.763 0 0 1-.207-.138l-.2-.148c-.13-.094-.247-.191-.358-.262-.036-.038.082.031-.022-.053-.066-.044-.014.015-.1-.039a7.05 7.05 0 0 1-1.093-1.114 7.247 7.247 0 0 1-.782-1.044 9.447 9.447 0 0 1-.59-1.134h.014a1.989 1.989 0 0 1-.171-.422 1.392 1.392 0 0 0-.152-.385c-.011-.065-.064-.241-.031-.2a1.943 1.943 0 0 1-.112-.415c-.016-.082-.032-.166-.052-.249a3.822 3.822 0 0 0-.039-.169c-.016-.159-.046-.305-.065-.456l-.032-.231a2.754 2.754 0 0 1-.012-.245.352.352 0 0 0 .028.1c.013-.131-.074-.305-.019-.38 0-.074-.029-.052-.026-.006a10.52 10.52 0 0 1 .174-2.292c.078-.266.1-.268.114-.259s.01.03.05-.184c.02-.031-.013-.03 0-.033a.612.612 0 0 1 .077-.194.356.356 0 0 0 .065-.157c-.047.035.007-.08-.011-.089.062-.157.113-.246.154-.329a2.137 2.137 0 0 0 .112-.287l.008.025c.079-.305.262-.618.344-.874a8.755 8.755 0 0 1 3.575-3.514 8.58 8.58 0 0 1 4.856-.924 6.485 6.485 0 0 0 .85.149c-.019 0-.046 0-.019.013.03-.038.3.06.349.034a9.248 9.248 0 0 1 1.746.607c-.1-.038-.154-.031-.043.017l.063.015.062.017.014.019c.076.033.165.057.095.007a7.769 7.769 0 0 1 1.981 1.377 9.818 9.818 0 0 1 .811.881 10.712 10.712 0 0 1 .691.97c.186.328.452.792.618 1.168a9.566 9.566 0 0 1 .468 1.692 11.692 11.692 0 0 1 .181 1.754.613.613 0 0 1-.056-.142m3.731-2.1c-.015-.1-.033-.2-.051-.294a12.093 12.093 0 0 0-.346-1.4v-.006a13.47 13.47 0 0 0-.328-.924v-.007a12.215 12.215 0 0 0-.878-1.766 12.534 12.534 0 0 0-3.338-3.661l-.014-.009a12.261 12.261 0 0 0-1.8-1.1l-.075-.036a12.318 12.318 0 0 0-3.039-1.026l-.078-.015a12.562 12.562 0 0 0-2.357-.223 12.412 12.412 0 0 0-1.51.091h-.039c-.241.029-.479.069-.716.112-.031 0-.059.01-.083.016-.083.016-.167.03-.249.047l-.086.02a11.906 11.906 0 0 0-1.187.323c-.065.02-.129.042-.193.064-.048.016-.1.033-.142.05a12.221 12.221 0 0 0-2.052.956c-.055.033-.11.064-.164.1a12.165 12.165 0 0 0-1.112.755q-.322.243-.626.508c-.154.133-.3.269-.45.409v.005l-.14.183c-.079.106-.153.218-.153.218-.085.092-.043 0-.16.138.014 0-.035.069-.066.115a4.391 4.391 0 0 1-.387.415 1.167 1.167 0 0 0-.276.437h-.007c-.049 0-.115.079-.154.142l-.006.009c-.067.109-.16.247-.249.371a.186.186 0 0 0 .034-.1l-.236.419c-.081.144-.154.263-.226.4a.732.732 0 0 1 .035-.112 4.927 4.927 0 0 0-.312.563 6.11 6.11 0 0 1-.265.52c.014-.013.023.009.018.011-.09.193-.113.172-.16.3a1.235 1.235 0 0 0-.114.3c-.01.048-.016.047-.008.01-.041.119-.107.3-.176.5l-.256.785a2.5 2.5 0 0 1-.063.385l-.016-.048a1.037 1.037 0 0 0-.04.14c.008-.037.015-.1.024-.169-.006.027-.013.055-.018.084s-.016.073-.023.108h-.005c-.013.057.062.113-.041.169 0 .015 0 .026-.008.028 0 .051.01.037.021-.013-.026.145-.048.286-.086.423.014-.057-.006-.177-.035-.007-.048.3 0 .087-.036.33 0 0 0 .038-.008.077v.077c.023.013-.031.241 0 .174-.022.079-.04.42-.075.387l-.029-.045a1.886 1.886 0 0 0 .026.321c0 .015-.013.044-.018.044.049.028-.034.311.008.466a7.27 7.27 0 0 0-.023.466 2.117 2.117 0 0 1-.013.358l.031.309c.01.104.023.211.027.331a.474.474 0 0 0-.027-.125 1.376 1.376 0 0 0 .031.324 4.592 4.592 0 0 0 .007.471c.042.206.061.131.08.149a1.307 1.307 0 0 0 .058.392 2.829 2.829 0 0 1 .079.426c-.025-.069-.09-.294-.066-.12a4.947 4.947 0 0 0 .175.673l.02-.083c.013.139.148.428.1.41.038.1.1.351.124.306.113.5.456 1.139.52 1.451.033.064.112.229.113.185-.035-.117-.09-.143-.093-.191.028.059.044.068.051.071.063.143.118.255.019.139.14.323.22.293.43.684-.024-.009-.014.023.054.135l.075.1.079.1c.149.246.055.159.035.179a1.833 1.833 0 0 0 .248.331l.069.149c-.022-.061.077.085.129.153l-.031-.035a1.22 1.22 0 0 0 .176.238.383.383 0 0 0-.059-.107 3.423 3.423 0 0 0-.1-.153c.056.057.125.159.2.23-.044-.009.139.21.212.308.082.115.121.1.146.138-.008.012.148.175.061.1a1.421 1.421 0 0 0-.122-.143.648.648 0 0 0 .167.219c.1.1.017-.065.183.154a.818.818 0 0 0-.111-.085 5.312 5.312 0 0 0 .158.2l.027-.01c.02.029 0 .011.009.025.073.037.277.274.339.3.094.089.184.192.272.28l-.019-.033a1.63 1.63 0 0 0 .176.141.288.288 0 0 0 .187.067h-.009c.062 0 .211.252.3.305.152.145-.006.19.2.307.168.132.29.168.233.1.148.119.318.23.483.343a5.179 5.179 0 0 1 .472.323.542.542 0 0 1 .126.049c.473.3 1.047.533 1.433.757-.152-.057-.02.019-.023.034.131.035.14.084.2.066 0-.027.013-.03-.128-.1.155.058.352.129.529.2s.319.118.407.159c-.055-.029.009-.015.075 0-.035.028.2.113.38.147l.031-.014.11.055a.565.565 0 0 1 .26.045.085.085 0 0 0 .047.035c.1.013.211.027.328.045s.233.043.335.069l.161.062c.089.013.239.019.087-.018.171.043.316.068.43.088a1.445 1.445 0 0 1 .253.062c.154.006.325 0 .506 0l.276.007h.579c.1 0 .195-.006.29-.008.192-.006.381 0 .558-.021l-.02.019c.191 0 .1-.037.23-.036-.061.021.148.025 0 .056a2.016 2.016 0 0 0 .523-.092c.025-.026-.14.033-.108 0a2.343 2.343 0 0 0 .414-.07c.069 0 .021.037-.014.055 0 0 .041-.009.082-.021l.08-.023c.1 0-.008.04-.119.079s-.223.066-.112.077l.077-.012.076-.014c.153.015-.4.094-.013.055.165-.047.3-.12.148-.108.344-.072.147-.1.515-.176.051 0-.021.017-.1.036s-.159.034-.12.041a3.083 3.083 0 0 0 .5-.114c-.173.027-.036-.04.071-.071.19-.027-.112.059.152 0 .038-.031.273-.113.063-.068.083-.07.274-.065.4-.139.094.006-.247.146.044.079-.052-.01.336-.152.174-.144.112-.029.132-.011.057.034.163-.036.364-.18.435-.143l.042-.049c.052-.01.125-.03.21-.045.068-.027.174-.08.263-.12s.158-.076.162-.051c.041-.023.346-.16.216-.135-.2.068-.209.12-.331.127a1.207 1.207 0 0 0 .375-.188l.025.009a2.328 2.328 0 0 0 .223-.125c-.008.013.019.007.058-.009l.055-.058c.247-.143.086.009.322-.12a2.68 2.68 0 0 1-.082.055l-.083.054a1.392 1.392 0 0 0 .244-.115c.034-.049.1-.124.134-.163.114-.077.087-.028.159-.08l-.124.1a.786.786 0 0 0 .324-.143c.111-.082.268-.225.08-.121.09-.057.224-.126.162-.064.2-.138-.041-.006.126-.131.08-.033.308-.169.455-.242l-.154.161.119-.084c-.135.136.092-.035.027.055a1.524 1.524 0 0 0 .246-.2c-.263.135.209-.262.11-.251.3-.253.273-.059.536-.389-.047.027.014-.059-.036-.022a1.393 1.393 0 0 1 .239-.254c-.142.164.2-.12 0 .115 0-.011-.033.016-.07.05s-.084.076-.1.093c.089-.054.022.056.207-.118.108-.11.261-.258.22-.255-.024-.016-.168.166-.118.076.217-.218.283-.225.333-.354-.131.144-.188.155-.2.139 0 0 .039-.041.075-.084l.072-.084-.015.043c.259-.251.048-.1.291-.35l.137-.1c-.026.09-.357.363-.274.356.079-.082.127-.141.175-.2a1.983 1.983 0 0 1 .165-.192 2.007 2.007 0 0 1-.1.128 1.162 1.162 0 0 0 .344-.349c.093-.141.013-.047 0-.062.218-.294.276-.386.408-.581 0 .063.245-.336.127-.1-.045.041-.139.174-.239.3a2.048 2.048 0 0 0-.218.329c.059-.039.014.018-.048.094a.782.782 0 0 0-.157.212c.195-.222.22-.182.273-.2a1.668 1.668 0 0 0 .119-.176c0-.044-.068.04-.094.027a4.472 4.472 0 0 0 .283-.374 3.34 3.34 0 0 0 .182-.31c.076-.08.079-.037.006.071.113-.16.219-.333.328-.5s.21-.338.308-.5c-.136.159.1-.223.1-.258.023-.014.053-.036.055 0 .1-.239.019.022.136-.205s.219-.534.331-.8a5.5 5.5 0 0 0 .251-.581c.066-.212.143-.421.194-.574s.1-.034.157-.209c.058-.206.076.141.076-.159v.031a1.578 1.578 0 0 1 .033-.326.821.821 0 0 0-.011-.313l.017.083a.869.869 0 0 0 .026-.162c.015 0 .043-.063.031.033a.658.658 0 0 0 .034-.106 11.332 11.332 0 0 0 .148-.868.385.385 0 0 0 .007-.051 10.187 10.187 0 0 0 .073-.702q.035-.462.035-.934a12.459 12.459 0 0 0-.162-2.013" transform="translate(980.778 448.895)" fill="#212222"/><path id="Path_71774" data-name="Path 71774" d="M-.154-1.084a.2.2 0 0 0-.01-.129c-.023.236.007-.069.01.129" transform="translate(805.897 344.525)"/><path id="Path_71775" data-name="Path 71775" d="M0 0v.032V0" transform="translate(805.661 344.379)"/><path id="Path_71776" data-name="Path 71776" d="M-.667-.289h.016l-.1-.035z" transform="translate(794.699 351.735)"/><path id="Path_71777" data-name="Path 71777" d="M-.168-.648a2.795 2.795 0 0 0-.02-.077.377.377 0 0 0 .02.077" transform="translate(788.758 345.567)"/><path id="Path_71778" data-name="Path 71778" d="M-119.551-84.386a.676.676 0 0 1-.032.161l.032-.161m.083-.528a.56.56 0 0 1-.009.086c0-.027.007-.054.01-.081m-.4-3.882q-.075-.216-.161-.426c.05.107.1.208.144.3.045.109.027.116.017.126m-3.073-4.121c.151.1.3.2.429.294.018.023-.014.006-.032 0a2.779 2.779 0 0 1 .406.348 1.949 1.949 0 0 0 .353.3l.088.047c.05.07.03.08.067.135.065.036.22.244.27.257.016.037-.023 0-.029.005.105.128.254.255.345.383l-.042-.031c.174.264.353.564.521.87a8.572 8.572 0 0 0-2.377-2.612m-1.191-.72-.053-.027a.111.111 0 0 0 .045 0c.011.011.012.018.008.024m-2.221-.743.088.012.009.005-.1-.017m-2.727-.067.117-.02h.015l-.132.017m-.461.075a.462.462 0 0 1 .094-.017h.008l-.1.018m-.251.053c.028-.01.056-.02.08-.031.007 0 .009.006.009.01l-.089.021m-.788.216-.132.045c.011-.015.033-.032.15-.059zm-.225.076h-.01l.011-.006m-1.519.721a.007.007 0 0 0 0-.007.552.552 0 0 1 .127-.066c-.042.024-.085.048-.126.073m-.765.52c-.151.115-.3.236-.441.361.039-.05.074-.1.112-.144.062-.046.251-.212.318-.268.046-.008-.059.044-.063.07l.118-.06a.355.355 0 0 0-.044.041m-.744.638.011-.017-.014.013" transform="translate(925.08 429.309)"/><path id="Path_71779" data-name="Path 71779" d="M0-.585c.018.111.039-.026.057-.068C.04-.668.018-.6 0-.585" transform="translate(805.684 344.333)"/><path id="Path_71780" data-name="Path 71780" d="M-.193 0c-.042.049.046 0-.022.038A.028.028 0 0 1-.193 0" transform="translate(789.247 335.371)" fill="#ea1f27"/><path id="Path_71781" data-name="Path 71781" d="M-129.179-29.19a.871.871 0 0 1-.272-.215 1.312 1.312 0 0 0-.274-.233c-.022-.015.038-.031-.014-.063a2.275 2.275 0 0 1-.627-.549h.021c-.034-.039-.111-.041-.15-.079.005-.008.021 0 .019-.018-.027.013-.086-.048-.117-.044-.011-.021 0-.037-.012-.063l-.044.008c-.113.012-.167-.124-.285-.16.009 0 .021 0 .018-.012-.183-.063-.373-.2-.563-.292.013-.005.03-.019.026-.036-.026.023-.086 0-.138-.024-.005-.042-.1-.021-.146-.07h.009c-.059.007-.052-.054-.107-.036l-.015-.038c-.042.032-.051-.054-.1-.051v.009c-.039-.007-.045-.037-.08-.046v-.007c-.079-.027-.109-.072-.124-.038-.012-.04.077.025.056-.035-.128-.047-.256-.1-.383-.152s-.25-.116-.377-.165c-.023-.026-.039-.037-.041-.053-.028 0-.1-.032-.128-.024.009 0-.009-.024-.022-.032-.041-.032-.065.018-.109-.018.024 0 .035-.01.033-.025a.531.531 0 0 1-.165-.025c.01 0 .024 0 .026-.014-.068.011-.1-.043-.158-.041l.026-.014c-.071-.053-.039.034-.1 0 .019 0 .016-.011.022-.018-.078.015-.176-.037-.246-.042a.01.01 0 0 0 .006-.008 1.544 1.544 0 0 0-.226-.058c-.026-.018.024-.048-.053-.063-.01.042-.133-.021-.1.039a.63.63 0 0 0-.208-.065c.033-.009-.018-.059.037-.049l-.034-.036c.011-.016.041.016.033-.008a.743.743 0 0 1-.134-.022.419.419 0 0 1-.2.035c.042-.007-.011-.052.017-.053l-.066.026-.066.029c-.028 0 0-.035-.04-.032 0 .012-.019.015-.033.022s-.115-.012-.119-.056c-.009-.019.046 0 .019-.021-.051-.01-.056 0-.106-.005v-.006c-.032-.013-.1 0-.07.028.023.006 0-.027.028-.008a.214.214 0 0 1-.138 0c.018 0 .018-.015.027-.026a.906.906 0 0 1-.226.023c0 .02.034-.032.044-.02-.093-.043-.207.009-.282-.045.014 0 0 .03 0 .024-.047-.01-.041-.039-.072-.032 0-.018-.039 0-.072 0s-.007-.009.021-.008a.815.815 0 0 1-.324-.018c0 .012-.066.035-.09.031l.012-.026c-.02-.018-.079-.006-.08-.029-.053.027.195-.007.125.011-.015-.024-.1.032-.08 0-.047-.005-.1.024-.138 0 .013.005.041-.035 0-.035-.068 0-.02.012-.075.018l-.035.009c0 .026-.06-.007-.037.024-.007-.022-.1.008-.089-.035l.011-.033c-.029 0-.05.033-.073.047 0 0-.011-.011-.009-.016-.007.052-.069-.008-.105.03-.06-.023-.154-.009-.182-.04a.259.259 0 0 1-.143.023c.011 0 .025-.006.028-.018-.033-.015-.042 0-.072.007.007-.008-.067-.03-.1-.049-.047.016-.03.044-.035.061-.043-.051-.13.033-.185-.014.016-.007.067-.025.028-.038-.044-.052-.085.041-.154.019l.018.042c-.031-.025-.1.03-.094-.014-.022.017-.081-.01-.072.031-.114-.029-.271.035-.346-.034-.015.009-.056.006-.046.026.029.02.036-.021.047-.006a.022.022 0 0 0-.018.02c-.036-.006-.063-.006-.033-.044-.08-.017-.074.079-.173.073 0-.017-.005-.023-.034-.017l-.051.035c-.064 0-.041-.035-.045-.064-.034.009-.076.012-.088.035l-.046-.032c.033.023-.026.02-.041.029l.015-.009c-.008-.011-.047 0-.066.006.007.017.048.02.071.023-.016.015-.043.014-.064.032 0-.03-.058-.011-.085-.01s-.031.031-.04.031-.051.006-.03-.019c.01-.006.026.01.042-.005-.022-.008-.023-.034-.063-.008s.017.054-.046.046c.015-.01.016-.021.027-.033l-.059-.005v.026c-.009-.005 0-.008-.008-.011-.012.03-.085.022-.092.055-.028.007-.063-.008-.091-.007h-.006c-.036-.01-.112 0-.114.028v-.006a.244.244 0 0 0-.068.035c-.049-.009-.029-.093-.073-.049-.046.011-.06.063-.038.075-.086 0-.169.063-.255.04-.009.013 0 .018-.023.029-.124.013-.245.095-.353.07.032-.02 0-.026-.009-.04-.022.03-.041-.014-.041.028.009.022.009.034.045.034a.484.484 0 0 1-.222.051c.023.005.009.016 0 .027-.005-.037-.06-.029-.1 0v.024l-.032-.014c-.013.012 0 .051-.048.043a.042.042 0 0 0-.019-.019c-.035.031-.082.08-.132.077l-.047-.02c-.018.01-.043.039-.007.037-.081.006-.13.02-.164 0a1.191 1.191 0 0 1-.435.238v-.018c-.045 0-.009.036-.041.036.007-.02-.044-.021-.02-.052-.064.006-.062.056-.1.077 0 .023.024-.025.028 0 0 .009-.084.017-.079.052-.019-.006-.018-.034-.016-.05l-.027.031c-.057-.018.066-.108 0-.133l-.029.019c-.044-.019.068-.075-.016-.05-.028.031-.037.09 0 .089-.067.041 0 .089-.077.121-.029-.009.059-.032.033-.051-.047-.009-.066.047-.1.052.041 0 .025.041 0 .056-.045 0 .012-.041-.044-.019 0 .022-.045.058 0 .051 0 .049-.062.015-.077.059-.031-.02.025-.091-.041-.078.022.023-.057.071-.006.1-.027 0-.04-.017-.031-.042-.042 0-.057.088-.094.04v.034c-.015 0-.033 0-.057-.009-.029.015-.074.085-.093.043-.007.009-.074.041-.034.057.05 0 .036-.045.079-.018-.045-.017-.057.035-.075.057l-.012-.014c-.011.014-.045.027-.045.049.006-.015-.005-.023-.019-.021v.032c-.051.042-.036-.036-.088 0l.032-.041c-.007.009-.038 0-.061.018v.085c-.026.026-.028-.018-.046.021l.026-.047c0-.01-.048-.023-.088 0-.022.023-.045.078 0 .066-.02.012-.056.016-.049-.01-.042.035.019.02-.013.057-.025-.005-.087 0-.13 0l.021-.061-.028.016c.019-.05-.031-.011-.029-.054a.123.123 0 0 0-.053.049c.084.016-.023.1.019.138-.069.056-.112-.08-.15.036.02 0 0 .059.043.019-.05.023-.005.063-.071.077.029-.044-.071-.017-.029-.08.005.017.04-.008.047-.018-.03-.005-.023-.047-.072-.018-.027.022-.065.05-.045.069s.042-.031.04.006c-.052.046-.085.014-.081.074a.043.043 0 0 1 .069.01l-.035.038v-.022c-.074.032 0 .043-.068.081l-.052-.013c0-.038.1-.05.061-.088-.044.026-.043.058-.09.073.006-.01.018-.019.024-.029-.016.008-.071-.042-.108.033-.022.034 0 .022.013.039-.064.05-.073.08-.115.111-.014-.04-.078.049-.054-.018.036 0 .132-.062.135-.109-.051-.023.057-.03.046-.079-.055.035-.079-.005-.1-.025-.017.008-.024.029-.031.039.01.028.029.015.047.038a.271.271 0 0 0-.132.132c-.028 0-.038-.025-.016-.044a1.351 1.351 0 0 1-.215.152c.071.006-.068.063-.015.073.042-.018.092-.013.085.018-.024.014-.011-.017-.027-.018-.013.041-.068 0-.072.052.055-.059-.021-.055-.031-.093-.034.05-.014-.022-.059.011a1.121 1.121 0 0 1-.127.149c-.083.023-.157.127-.212.173-.041.009-.047-.039-.083-.018s.056.012-.011.042v-.019c-.01.021-.119.06-.1.119l-.012-.048c-.013.005-.016.021-.021.031-.01-.011-.03-.011-.02-.032-.054 0-.066.065-.1.1h.04c-.047.07-.1.087-.156.146l-.016-.021-.024.043c-.008-.026-.051-.009-.056.023l.048-.129c.035-.011-.007.048.026.053s.078-.049.07-.076c-.023.017-.02.022-.03.043-.031-.021 0-.048 0-.08-.01.011-.033.017-.027.027a.2.2 0 0 1 .065-.087c-.015.032.028 0 .025.021-.018-.026.01-.065.06-.1.056 0 .071-.089.131-.125a.23.23 0 0 1-.036.121c.044-.015.037-.031.08-.046a.158.158 0 0 1 .023-.116l.017.016c.032-.042.01-.069.065-.105.094-.062.182-.135.254-.181l.017.017c.008-.068.116-.108.154-.164.1-.045.176-.16.247-.155a3.472 3.472 0 0 1 .453-.328l-.011.046c.017-.039.03.005.058-.017-.049 0 .023-.055.034-.085a.526.526 0 0 0 .229-.165l.014.019c.047-.079.147-.094.24-.131a.078.078 0 0 0 .066 0c.03-.058.056-.069.115-.127a1.014 1.014 0 0 1 .2-.074 5.114 5.114 0 0 1 .583-.321l.026.02a1.257 1.257 0 0 1 .315-.154l.161-.06a1.04 1.04 0 0 0 .142-.058v.051c.06 0 .122-.054.1-.081.06 0 .132-.068.18-.043.06-.01.063-.044.109-.066a1.069 1.069 0 0 0 .27-.071h-.028c-.009.013 0 .033.023.029.037-.024.153-.029.1-.073.125 0 .267-.1.393-.081-.013-.013.015-.022.025-.035a1.216 1.216 0 0 0 .3-.06c.018 0-.021.032.021.024.024-.011 0-.02.026-.035a3.24 3.24 0 0 1 .5-.062 2.423 2.423 0 0 1 .417-.072c.14-.014.279-.033.412-.04v.012c.087-.048.212.033.28-.036.022.01.081 0 .066.024.07-.035.2.017.3-.02a.043.043 0 0 0-.026.006c.1.025.2-.009.305.014-.011 0-.031.009-.035.02.042.022.1-.048.123.007.024 0 .018-.028 0-.026.239.022.5.009.747.008.175.052 0 .093.147.067.01.012.01-.02.011-.009.056-.009.078.07.119.045-.012-.035.027-.016.03-.036.106.033.124.066.213.049l-.009.017c.106-.036.218.01.312-.035a10.309 10.309 0 0 1 1.612.323 8.783 8.783 0 0 1 1.5.6.45.45 0 0 0 .239.148c-.009 0-.017 0-.012.012.024-.031.09.043.119.016.179.1.345.182.526.287-.031-.013-.061.006-.026.023h.048v.012c.026.009.061.007.043-.018a8.719 8.719 0 0 1 1.257.915 3.108 3.108 0 0 0 .332.27c.135.144.25.294.38.428a4.383 4.383 0 0 0 .407.4.288.288 0 0 1-.238-.069" transform="translate(933.815 364.881)" fill="#ea1f27"/><path id="Path_71782" data-name="Path 71782" d="M0-.014c.023 0 .064-.018.055.025C.039 0 .008 0 0-.014" transform="translate(789.109 335.331)" fill="#ea1f27"/><path id="Path_71783" data-name="Path 71783" d="M-.037-.033c0-.005.018 0 .023 0-.011.01-.012.031-.028.029.011-.01 0-.016 0-.026" transform="translate(790.186 334.737)" fill="#ea1f27"/><path id="Path_71784" data-name="Path 71784" d="M-.565 0C-.558.017-.6.066-.632.09z" transform="translate(790.965 334.535)" fill="#ea1f27"/><path id="Path_71785" data-name="Path 71785" d="M-.031 0C0 0 0 .008-.031.026-.038.019-.032.01-.031 0" transform="translate(790.702 334.436)" fill="#ea1f27"/><path id="Path_71786" data-name="Path 71786" d="M0-.092A.062.062 0 0 1 .049-.1C.041-.113.009-.064 0-.092" transform="translate(790.667 334.484)" fill="#ea1f27"/><path id="Path_71787" data-name="Path 71787" d="M0-.244c.012-.008.032-.037.053-.027C.033-.275 0-.217 0-.244" transform="translate(791.208 334.356)" fill="#ea1f27"/><path id="Path_71788" data-name="Path 71788" d="M0-.1c.008 0 .013 0 .02-.012s.009.018 0 .027z" transform="translate(791.438 334.05)" fill="#ea1f27"/><path id="Path_71789" data-name="Path 71789" d="m-.255-.059-.03.01v-.017z" transform="translate(796.6 332.588)" fill="#ea1f27"/><path id="Path_71790" data-name="Path 71790" d="M0-.008c.032-.006.018.019.023.022C0 .012.037 0 0-.008" transform="translate(798.602 332.697)" fill="#ea1f27"/><path id="Path_71791" data-name="Path 71791" d="M-.076-.291h-.009l.013-.033z" transform="translate(799.891 333.179)" fill="#ea1f27"/><path id="Path_71792" data-name="Path 71792" d="M-.169 0c-.037.046.044 0-.018.036 0-.015 0-.03.018-.036" transform="translate(789.885 336.447)" fill="#ea1f27"/><path id="Path_71793" data-name="Path 71793" d="M-116.973-26.835a.726.726 0 0 1-.248-.2 1.09 1.09 0 0 0-.247-.214c-.02-.014.038-.031-.01-.061a1.864 1.864 0 0 1-.564-.508h.02c-.03-.037-.1-.036-.137-.071.005-.008.02 0 .019-.018-.026.013-.079-.043-.108-.039-.009-.02.005-.036-.008-.061l-.044.007c-.107.015-.151-.115-.26-.146.008 0 .02 0 .017-.012a5.185 5.185 0 0 1-.513-.265c.012-.006.029-.019.026-.036-.025.024-.08 0-.127-.019 0-.041-.091-.018-.133-.064h.008c-.056.009-.046-.052-.1-.031l-.012-.036c-.04.033-.045-.052-.089-.047v.009c-.036-.006-.04-.035-.072-.043v-.01c-.072-.024-.1-.068-.114-.034-.01-.039.07.022.054-.036-.117-.043-.235-.086-.349-.137s-.227-.106-.343-.151c-.02-.025-.035-.036-.036-.051-.026 0-.089-.029-.117-.02.008 0-.008-.024-.019-.031-.037-.03-.061.019-.1-.015.022 0 .032-.011.031-.026a.4.4 0 0 1-.152-.019c.01 0 .022 0 .025-.014-.063.012-.092-.04-.144-.037l.024-.014c-.064-.051-.037.035-.094 0 .017 0 .015-.011.02-.018-.071.016-.162-.031-.226-.035a.01.01 0 0 0 .005-.008 1.262 1.262 0 0 0-.206-.053c-.023-.017.024-.048-.047-.061-.01.042-.121-.018-.094.041a.577.577 0 0 0-.189-.058c.031-.009-.016-.059.035-.05l-.031-.035c.01-.016.037.016.031-.009a.6.6 0 0 1-.122-.019.365.365 0 0 1-.181.038c.039-.008-.009-.052.016-.053l-.061.029-.061.03c-.025 0 0-.035-.036-.031 0 .012-.018.015-.031.022s-.1-.01-.107-.055c-.008-.019.042 0 .018-.021-.046-.009-.051 0-.1 0v-.006c-.029-.012-.093 0-.064.029.021.006 0-.027.026-.008a.2.2 0 0 1-.126.009c.017 0 .017-.016.025-.027a.7.7 0 0 1-.206.027c0 .02.031-.033.04-.02-.084-.042-.188.011-.256-.041.012 0 0 .03 0 .024-.042-.009-.037-.037-.066-.03 0-.017-.036 0-.065 0s-.007-.009.019-.008a.677.677 0 0 1-.295-.015c0 .012-.061.036-.082.032l.011-.026c-.018-.019-.071 0-.073-.026-.048.027.178-.013.114.007-.014-.024-.089.033-.073 0-.043 0-.087.026-.126 0 .012 0 .037-.035 0-.035-.061 0-.018.012-.068.018l-.032.009c0 .026-.054-.006-.033.024-.006-.022-.089.008-.081-.034l.01-.034c-.027 0-.045.033-.066.047 0 0-.01-.011-.008-.016-.006.052-.063-.008-.1.031-.055-.023-.14 0-.166-.036a.217.217 0 0 1-.13.024c.01 0 .023-.007.026-.018-.031-.015-.038 0-.066.007.006-.008-.061-.03-.1-.049-.042.016-.027.044-.031.061-.04-.05-.118.031-.168-.011.014-.009.061-.028.025-.04-.041-.049-.077.042-.14.022l.017.042c-.029-.025-.09.03-.086-.014-.02.017-.074-.01-.065.031-.1-.028-.246.033-.315-.032-.014.009-.051.006-.042.026.026.02.032-.02.043-.006a.021.021 0 0 0-.015.02c-.032-.006-.058-.006-.031-.044-.073-.017-.066.079-.156.073 0-.018-.005-.023-.031-.018l-.046.035c-.058 0-.038-.035-.043-.064-.03.009-.069.012-.08.035l-.043-.032c.031.023-.023.02-.037.029l.014-.009c-.008-.012-.042 0-.06.008.007.018.044.017.065.021-.014.014-.039.016-.057.034 0-.029-.053-.012-.078-.01s-.028.031-.036.031c0-.015-.046.005-.028-.019.009-.006.024.011.038-.005-.02-.008-.022-.034-.057-.008s.017.054-.041.046c.013-.009.014-.021.023-.033l-.054-.006v.026c-.008-.005 0-.008-.007-.011-.01.03-.077.022-.083.054-.025.007-.058-.008-.083-.007a.1.1 0 0 0-.093.029v-.006a.134.134 0 0 0-.072.034c-.045-.01-.034-.093-.073-.05-.042.01-.055.062-.035.074-.079 0-.154.061-.233.037-.008.013 0 .018-.021.028-.113.014-.22.093-.321.067.028-.02-.005-.026-.01-.04-.02.03-.038-.014-.036.027.009.022.01.034.043.034a.4.4 0 0 1-.2.048c.021.005.009.016 0 .027-.006-.037-.056-.03-.087 0v.024l-.03-.014c-.011.012 0 .051-.042.042a.043.043 0 0 0-.018-.02c-.031.031-.072.078-.118.074l-.044-.02c-.016.009-.038.038 0 .037-.074 0-.119.017-.151 0a.957.957 0 0 1-.389.229v-.017c-.042 0-.007.035-.036.034.005-.02-.041-.021-.021-.051-.058 0-.055.053-.084.076 0 .023.02-.025.026 0 0 .009-.076.016-.07.051-.018-.006-.019-.034-.017-.049l-.024.029c-.054-.018.056-.105 0-.131l-.026.018c-.042-.02.059-.072-.018-.05-.024.03-.03.087 0 .088-.06.039 0 .088-.066.118-.027-.009.053-.03.028-.05-.044-.009-.058.045-.091.05.037 0 .025.04.007.056-.042 0 .009-.04-.042-.019 0 .022-.038.056.007.05 0 .048-.057.013-.068.057-.03-.02.019-.089-.042-.077.022.023-.049.068 0 .095-.025 0-.038-.018-.031-.042-.039 0-.047.087-.084.038v.033c-.014 0-.03 0-.053-.01-.026.014-.064.082-.084.04-.006.009-.066.039-.028.055.046 0 .031-.044.072-.016-.043-.017-.051.033-.066.055l-.012-.014c-.009.013-.04.025-.039.047 0-.014-.006-.022-.018-.021v.031c-.045.04-.036-.036-.082 0l.028-.039c-.006.008-.036 0-.056.016v.084c-.022.025-.027-.018-.041.02l.021-.046c0-.01-.046-.023-.082 0-.019.022-.037.075.007.064-.018.012-.051.014-.046-.01-.037.033.019.02-.009.055-.023-.005-.081 0-.121 0l.016-.059-.025.015c.015-.049-.03-.012-.03-.053-.02.006-.035.029-.047.047.08.017-.015.1.026.135-.06.053-.11-.08-.138.032.019 0 .007.058.042.019-.045.022 0 .06-.062.075.024-.042-.067-.017-.032-.079.006.016.037-.008.042-.017-.028-.006-.025-.046-.068-.019-.023.022-.058.047-.038.066s.037-.03.037.007c-.045.044-.079.012-.071.07a.041.041 0 0 1 .065.012l-.03.036v-.021c-.068.029 0 .042-.058.077l-.049-.013c-.005-.037.093-.046.052-.084-.039.024-.036.056-.08.069.005-.009.015-.018.021-.027-.015.008-.069-.042-.1.03-.019.033 0 .021.015.038-.057.047-.063.076-.1.106-.016-.039-.07.047-.052-.018.033 0 .12-.057.12-.1-.049-.023.052-.027.038-.076-.05.033-.074-.007-.1-.026-.015.008-.021.027-.026.037.011.027.028.015.046.038a.225.225 0 0 0-.115.125.024.024 0 0 1-.018-.043 1.113 1.113 0 0 1-.192.143c.067.007-.06.06-.01.07.038-.016.086-.011.081.019-.022.013-.012-.017-.026-.018-.01.039-.064 0-.064.049.048-.056-.024-.053-.036-.09-.029.048-.014-.022-.055.01a.988.988 0 0 1-.109.142c-.077.021-.14.119-.188.163-.038.008-.047-.038-.08-.019s.054.013-.008.04v-.01c-.008.02-.108.056-.083.112l-.015-.046c-.012 0-.013.02-.018.03-.01-.01-.03-.011-.021-.031-.051 0-.058.061-.088.091h.038c-.039.066-.093.081-.138.137l-.016-.02-.02.041c-.01-.025-.05-.01-.051.021l.036-.122c.033-.01 0 .046.029.051s.07-.046.061-.072c-.02.015-.017.02-.025.041-.031-.02 0-.046 0-.077-.009.01-.03.015-.024.026a.164.164 0 0 1 .055-.082c-.012.031.027.005.026.021-.019-.026 0-.062.05-.093.053 0 .061-.084.116-.118a.208.208 0 0 1-.026.116c.04-.013.033-.029.073-.042a.148.148 0 0 1 .014-.111l.018.016c.027-.039 0-.066.054-.1.085-.057.164-.127.228-.17l.017.017c0-.066.1-.1.135-.156.093-.042.156-.151.223-.146a3.019 3.019 0 0 1 .4-.31l-.007.045c.013-.039.028.005.053-.016-.046 0 .018-.053.026-.083a.441.441 0 0 0 .2-.157l.014.019c.039-.076.132-.09.216-.125a.07.07 0 0 0 .061 0c.024-.057.048-.067.1-.122a.847.847 0 0 1 .179-.069 4.376 4.376 0 0 1 .524-.308l.025.02a3.44 3.44 0 0 1 .558-.261v.05c.055 0 .11-.052.086-.079.056 0 .119-.066.164-.04.055-.01.056-.043.1-.064a.975.975 0 0 0 .245-.068h-.025c-.008.013 0 .033.022.029.033-.023.14-.027.087-.071.115 0 .241-.1.358-.078-.013-.013.013-.022.022-.035a1.014 1.014 0 0 0 .271-.057c.017 0-.018.031.02.024.022-.011 0-.02.023-.035a2.449 2.449 0 0 1 .458-.061 1.957 1.957 0 0 1 .379-.072l.376-.042v.012c.078-.048.194.033.255-.036.02.01.074 0 .061.024.064-.033.182.015.275-.022a.036.036 0 0 0-.023.006c.1.025.178-.01.279.013-.01 0-.029.009-.032.02.038.022.092-.048.112.007.022 0 .016-.028 0-.026.055.005.11.006.166.007h.17c.114 0 .23-.007.345-.007.16.045 0 .092.134.064.01.012.01-.02.01-.009.051-.01.071.069.108.044-.011-.035.025-.016.028-.037.1.032.113.065.194.047l-.008.017c.1-.041.2.006.285-.041.254.029.5.074.746.114s.487.1.726.175a7.63 7.63 0 0 1 1.37.556.377.377 0 0 0 .216.137c-.008 0-.016 0-.012.012.023-.031.082.039.11.012.08.047.16.086.239.129l.24.136c-.028-.012-.057.007-.025.023h.045v.012c.024.008.057.005.041-.018a7.527 7.527 0 0 1 1.138.848 2.66 2.66 0 0 0 .3.249c.121.134.222.274.338.4a3.615 3.615 0 0 0 .366.372.263.263 0 0 1-.224-.058" transform="translate(920.804 363.474)" fill="#ea1f27"/><path id="Path_71794" data-name="Path 71794" d="M0-.008C.023 0 .059-.024.054.017.038.007.009.007 0-.008" transform="translate(789.764 336.403)" fill="#ea1f27"/><path id="Path_71795" data-name="Path 71795" d="M-.02-.03c0-.005.017 0 .022 0S-.007 0-.022 0c.01-.009 0-.015 0-.025" transform="translate(790.728 335.856)" fill="#ea1f27"/><path id="Path_71796" data-name="Path 71796" d="M-.481 0c.007.016-.031.063-.058.085z" transform="translate(791.414 335.668)" fill="#ea1f27"/><path id="Path_71797" data-name="Path 71797" d="M-.018 0c.026 0 .026.009 0 .026C-.024.019-.019.01-.018 0" transform="translate(791.199 335.577)" fill="#ea1f27"/><path id="Path_71798" data-name="Path 71798" d="M0-.082A.054.054 0 0 1 .046-.09C.037-.1.011-.054 0-.082" transform="translate(791.173 335.616)" fill="#ea1f27"/><path id="Path_71799" data-name="Path 71799" d="M0-.23c.011-.008.028-.035.048-.025C.029-.259 0-.2 0-.23" transform="translate(791.662 335.503)" fill="#ea1f27"/><path id="Path_71800" data-name="Path 71800" d="M0-.1c.008 0 .012 0 .018-.009s.009.018 0 .026z" transform="translate(791.867 335.215)" fill="#ea1f27"/><path id="Path_71801" data-name="Path 71801" d="m-.23-.059-.028.01v-.017z" transform="translate(796.532 333.817)" fill="#ea1f27"/><path id="Path_71802" data-name="Path 71802" d="M0-.008C.029-.015.016.01.021.013 0 .011.033-.006 0-.008" transform="translate(798.354 333.901)" fill="#ea1f27"/><path id="Path_71803" data-name="Path 71803" d="M-.07-.29h-.008l.013-.033z" transform="translate(799.529 334.353)" fill="#ea1f27"/><path id="Path_71804" data-name="Path 71804" d="M-.04-.317c.04-.049-.047.001.022-.038a.028.028 0 0 1-.022.038" transform="translate(804.736 352.217)" fill="#ea1f27"/><path id="Path_71805" data-name="Path 71805" d="M-2-.611a.871.871 0 0 1 .277.211 1.308 1.308 0 0 0 .274.233c.022.015-.038.032.014.064a2.276 2.276 0 0 1 .626.552H-.83c.034.039.111.041.15.079C-.685.537-.7.529-.7.547c.027-.013.086.048.117.044.011.021 0 .037.012.063l.045-.008c.113-.012.167.124.285.16-.009 0-.021 0-.018.012.183.063.373.2.563.292-.013.005-.03.019-.026.036.026-.023.086 0 .138.024.005.042.1.021.146.07H.553c.059-.007.052.054.107.036l.015.038c.042-.032.051.054.1.051v-.009c.039.007.045.037.08.046v.007c.079.027.109.072.124.038.012.04-.077-.025-.056.035.128.047.256.1.383.152s.25.116.377.165c.023.026.039.037.041.053.028 0 .1.032.128.024-.009 0 .009.024.022.032.041.032.065-.018.109.018-.024 0-.035.01-.033.025a.531.531 0 0 1 .165.025c-.01 0-.024 0-.026.014.068-.011.1.043.158.041l-.026.014c.071.053.039-.034.1 0-.019 0-.016.011-.022.018.078-.015.176.037.246.042a.01.01 0 0 0-.006.008 1.542 1.542 0 0 0 .226.058c.026.018-.024.048.053.063.009-.042.133.021.1-.039a.629.629 0 0 0 .208.065c-.033.009.018.059-.037.049l.034.036c-.011.016-.041-.016-.033.008a.742.742 0 0 1 .134.022.419.419 0 0 1 .2-.035c-.042.007.011.052-.017.053l.066-.026.066-.029c.028 0 0 .035.04.032 0-.012.019-.015.033-.022s.115.012.119.056c.009.019-.046 0-.019.021.051.01.056 0 .106.005v.006c.032.013.1 0 .07-.028-.023-.006 0 .027-.028.008a.214.214 0 0 1 .138 0c-.018 0-.018.015-.027.026a.906.906 0 0 1 .229-.02c0-.02-.034.032-.044.02.093.043.207-.009.282.045-.014 0 0-.03 0-.024.047.01.041.039.072.032 0 .018.039 0 .072 0s.007.009-.021.008a.815.815 0 0 1 .324.018c0-.012.066-.035.09-.031l-.012.026c.02.018.079.006.08.029.053-.027-.195.007-.125-.011.015.024.1-.032.08 0 .047.005.1-.024.138 0-.013-.005-.041.035 0 .035.068 0 .02-.012.075-.018l.035-.009c0-.026.06.007.037-.024.007.022.1-.008.089.035l-.011.033c.029 0 .05-.033.073-.047 0 0 .011.011.009.016.007-.052.069.008.105-.03.06.023.154.009.182.04a.258.258 0 0 1 .143-.023c-.011 0-.025.006-.028.018.033.015.042 0 .072-.007-.007.008.067.03.1.049.047-.016.03-.044.035-.061.043.051.13-.033.185.014-.016.007-.067.025-.028.038.044.052.085-.041.154-.019l-.018-.042c.031.025.1-.03.094.014.022-.017.081.01.072-.031.114.029.271-.035.346.034.015-.009.056-.006.046-.026-.029-.02-.036.021-.047.006a.022.022 0 0 0 .018-.02c.036.006.063.006.033.044.08.017.074-.079.173-.074 0 .018.005.023.034.018l.051-.035c.064 0 .041.035.045.064.034-.009.076-.012.088-.035l.046.032c-.034-.023.026-.02.041-.029l-.014.006c.008.011.047 0 .066-.006-.007-.017-.048-.02-.071-.023.016-.015.043-.014.064-.032 0 .03.058.011.085.01s.031-.031.04-.031.051-.006.03.019c-.01.006-.026-.01-.042.005.022.008.023.034.063.008s-.017-.054.046-.046c-.015.01-.016.021-.026.033l.059.005v-.026c.009.005 0 .008.008.011.012-.03.085-.022.092-.055.028-.007.063.008.09.007h.006c.036.01.112 0 .114-.028v.006a.243.243 0 0 0 .069-.035c.049.009.029.093.073.049.046-.011.06-.063.038-.075.086 0 .169-.063.255-.04.009-.013 0-.018.023-.029.124-.013.245-.095.353-.07-.032.02 0 .026.009.04.023-.03.041.014.041-.028-.009-.022-.009-.034-.045-.034a.484.484 0 0 1 .222-.051c-.023-.005-.009-.016 0-.027.005.037.06.029.1 0v-.012l.032.014c.013-.012 0-.051.048-.043a.041.041 0 0 0 .019.019c.035-.031.082-.08.132-.077l.047.02c.018-.01.043-.039.007-.037.081-.006.13-.02.164 0a1.191 1.191 0 0 1 .428-.241v.018c.045 0 .009-.036.041-.036-.007.02.044.021.02.052.064-.006.062-.056.1-.077 0-.023-.024.025-.028 0 0-.009.084-.017.079-.052.019.006.018.034.016.05l.027-.031c.057.018-.066.108 0 .133l.029-.019c.044.019-.068.075.016.05.028-.031.037-.09 0-.089.067-.041 0-.089.077-.121.029.009-.059.032-.033.051.047.009.066-.047.1-.052-.041 0-.025-.041 0-.056.045 0-.012.041.044.019 0-.022.045-.058 0-.051 0-.049.062-.015.077-.059.031.02-.026.091.041.078-.022-.023.057-.071.006-.1.027 0 .04.017.031.042.042 0 .057-.088.094-.04v-.034c.015 0 .033 0 .057.009.029-.015.074-.085.093-.043.007-.009.074-.041.034-.057-.05 0-.036.045-.079.018.045.017.057-.035.075-.057l.012.014c.011-.014.045-.027.045-.049-.006.015.005.023.019.021V1.2c.051-.042.036.036.088 0l-.032.041c.007-.009.038 0 .061-.018v-.085c.026-.026.028.018.046-.021l-.026.047c0 .01.048.023.088 0 .022-.023.045-.078 0-.066.02-.012.056-.016.049.01.042-.035-.019-.02.013-.057.024.005.087 0 .13 0l-.021.061.028-.016c-.019.05.031.011.028.054a.123.123 0 0 0 .045-.05c-.084-.016.023-.1-.019-.138.069-.056.112.08.15-.036-.02 0 0-.059-.043-.019.05-.023.005-.063.071-.077-.029.044.071.017.029.08-.005-.017-.04.008-.047.018.03.005.023.047.072.018.027-.022.065-.05.045-.069s-.042.031-.04-.006C11.767.824 11.8.856 11.8.8a.043.043 0 0 1-.069-.01l.035-.038v.022c.074-.032 0-.043.068-.081l.05.007c0 .038-.1.049-.061.088.044-.026.042-.058.09-.073-.006.01-.018.019-.024.029.016-.008.071.042.108-.033.022-.034 0-.022-.013-.039.064-.05.073-.08.115-.111.014.04.078-.049.054.018-.036 0-.132.062-.135.109.051.023-.057.03-.046.079.055-.035.079.005.1.025.017-.008.024-.029.031-.039-.003-.028-.025-.014-.043-.038a.27.27 0 0 0 .132-.132c.028 0 .038.025.016.044a1.351 1.351 0 0 1 .215-.152c-.071-.006.068-.063.015-.073-.042.018-.092.013-.085-.018.024-.014.011.017.027.018.013-.041.068 0 .072-.052-.055.059.021.055.031.093.034-.05.014.022.059-.011a1.129 1.129 0 0 1 .128-.149c.083-.023.157-.127.212-.173.041-.009.047.039.083.018s-.056-.012.011-.042V.1c.01-.021.119-.06.1-.119l.012.048c.013-.005.016-.021.021-.031.01.011.03.011.02.032.054 0 .066-.065.1-.1h-.04c.047-.07.1-.087.156-.146l.016.021.024-.043c.008.026.051.009.055-.023l-.048.129c-.035.011.007-.048-.026-.053s-.078.049-.07.076c.023-.017.02-.022.03-.043.031.021 0 .048 0 .08.01-.011.033-.017.027-.027a.2.2 0 0 1-.065.087c.015-.032-.028 0-.026-.021.018.026-.01.065-.06.1-.056 0-.071.089-.131.125A.23.23 0 0 1 13.1.068c-.044.015-.037.031-.08.046A.158.158 0 0 1 13 .23l-.017-.016c-.032.042-.01.069-.065.105-.094.062-.182.135-.254.181l-.017-.017c-.008.068-.116.108-.154.164-.1.045-.176.16-.247.155a3.472 3.472 0 0 1-.453.328l.011-.046c-.017.039-.03-.005-.058.017.049 0-.023.055-.034.085a.526.526 0 0 0-.229.165l-.014-.019c-.047.079-.147.094-.24.131a.078.078 0 0 0-.066 0c-.03.058-.056.069-.115.127a1.013 1.013 0 0 1-.2.074 5.11 5.11 0 0 1-.583.321l-.026-.02a1.257 1.257 0 0 1-.315.154l-.161.06a1.039 1.039 0 0 0-.142.058v-.048c-.06 0-.122.054-.1.081-.06 0-.132.068-.18.043-.06.011-.063.044-.109.066a1.069 1.069 0 0 0-.27.071h.028c.009-.013 0-.033-.023-.029-.037.024-.153.029-.1.073-.125 0-.266.1-.393.081.013.013-.015.022-.025.035a1.215 1.215 0 0 0-.3.06c-.018 0 .021-.032-.021-.024-.024.011 0 .02-.026.035a3.239 3.239 0 0 1-.5.062 2.424 2.424 0 0 1-.417.072c-.14.014-.279.033-.412.04v-.012c-.087.048-.212-.033-.28.036-.022-.01-.081 0-.066-.024-.07.035-.2-.017-.3.02a.043.043 0 0 0 .026-.006c-.1-.025-.2.009-.305-.014.011 0 .031-.009.035-.02-.042-.022-.1.048-.123-.007-.024 0-.018.028 0 .026-.239-.022-.5-.009-.747-.008-.175-.052 0-.093-.147-.067-.01-.012-.01.02-.011.009-.056.009-.078-.07-.119-.045.012.035-.027.016-.03.036-.106-.033-.124-.066-.213-.049l.009-.017c-.107.036-.218-.01-.312.035a10.309 10.309 0 0 1-1.612-.323 8.783 8.783 0 0 1-1.5-.6.45.45 0 0 0-.238-.156c.009 0 .017 0 .012-.012-.024.031-.09-.043-.119-.016-.179-.1-.345-.182-.526-.287.031.013.061-.006.026-.023H.185v-.013c-.026-.008-.061-.007-.043.018A8.717 8.717 0 0 1-1.115.42a3.11 3.11 0 0 0-.332-.27c-.135-.144-.25-.294-.38-.428a4.386 4.386 0 0 0-.407-.4A.288.288 0 0 1-2-.611" transform="translate(791.108 352.192)" fill="#ea1f27"/><path id="Path_71806" data-name="Path 71806" d="M-.468-.211c-.023 0-.064.018-.055-.025.015.01.046.009.055.025" transform="translate(805.108 352.166)" fill="#ea1f27"/><path id="Path_71807" data-name="Path 71807" d="M-.194-.219c0 .005-.018 0-.023 0 .011-.01.012-.031.028-.029-.011.01 0 .016 0 .026" transform="translate(803.793 352.787)" fill="#ea1f27"/><path id="Path_71808" data-name="Path 71808" d="M0-.752c-.006-.017.038-.066.067-.09z" transform="translate(803.354 353.489)" fill="#ea1f27"/><path id="Path_71809" data-name="Path 71809" d="M-.173-.222C-.2-.22-.2-.23-.172-.248c.007.006 0 .016 0 .026" transform="translate(803.25 353.058)" fill="#ea1f27"/><path id="Path_71810" data-name="Path 71810" d="M-.413-.074a.062.062 0 0 1-.049.009c.009.012.04-.037.049-.009" transform="translate(803.495 352.954)" fill="#ea1f27"/><path id="Path_71811" data-name="Path 71811" d="M-.446-.061c-.012.009-.032.037-.053.027.02 0 .05-.054.053-.027" transform="translate(802.987 353.221)" fill="#ea1f27"/><path id="Path_71812" data-name="Path 71812" d="M-.255-.121c-.008 0-.013 0-.02.012s-.009-.018 0-.027z" transform="translate(802.565 353.446)" fill="#ea1f27"/><path id="Path_71813" data-name="Path 71813" d="m0-.084.03-.01v.017z" transform="translate(797.404 354.827)" fill="#ea1f27"/><path id="Path_71814" data-name="Path 71814" d="M-.192-.186C-.224-.18-.21-.2-.215-.208c.028 0-.014.019.023.022" transform="translate(795.339 354.768)" fill="#ea1f27"/><path id="Path_71815" data-name="Path 71815" d="M-.031 0h.009l-.013.035z" transform="translate(793.965 354.384)" fill="#ea1f27"/><path id="Path_71816" data-name="Path 71816" d="M-.052-.3c.037-.046-.048 0 .019-.036 0 .015 0 .03-.018.036" transform="translate(804.085 351.125)" fill="#ea1f27"/><path id="Path_71817" data-name="Path 71817" d="M-1.878-.535a.726.726 0 0 1 .248.2 1.089 1.089 0 0 0 .247.214c.02.014-.038.031.01.061a1.862 1.862 0 0 1 .564.504h-.02c.03.037.1.036.137.072-.005.008-.02 0-.019.018.026-.012.08.044.111.04.009.02-.005.036.008.061l.039-.009c.107-.015.151.115.26.146-.008 0-.02 0-.017.012a5.153 5.153 0 0 1 .51.266c-.012.006-.029.019-.026.036.025-.024.08 0 .127.019 0 .041.091.018.133.064H.426c.056-.009.046.052.1.031l.014.04c.04-.033.045.052.089.047v-.009c.036.006.04.035.072.043v.006c.072.024.1.068.114.034.013.039-.066-.021-.05.039.117.043.235.086.349.137s.227.106.343.151c.02.025.035.036.036.051.026 0 .089.029.117.02-.008 0 .008.024.019.031.037.03.061-.019.1.015-.022 0-.032.011-.031.026a.4.4 0 0 1 .152.019c-.01 0-.022 0-.025.014.063-.012.092.04.144.037l-.024.014c.064.051.037-.035.094 0-.017 0-.015.011-.02.018.071-.016.162.031.226.035a.01.01 0 0 0-.005.008 1.261 1.261 0 0 0 .206.053c.023.017-.024.048.047.061.01-.042.121.018.094-.041a.577.577 0 0 0 .189.058c-.031.009.016.059-.035.05l.031.035c-.01.016-.037-.016-.031.009a.6.6 0 0 1 .122.019.365.365 0 0 1 .181-.038c-.039.008.009.052-.016.053l.061-.029.061-.03c.025 0 0 .035.036.031 0-.012.018-.015.031-.022s.1.01.107.055c.008.019-.042 0-.018.021.046.009.051 0 .1 0v.006c.029.012.093 0 .064-.029-.021-.006 0 .027-.026.008a.2.2 0 0 1 .126-.009c-.017 0-.017.016-.025.027a.7.7 0 0 1 .206-.027c0-.02-.031.033-.04.02.084.042.188-.011.256.041-.012 0 0-.03 0-.024.042.009.037.037.066.03 0 .018.036 0 .065 0s.007.009-.019.008a.677.677 0 0 1 .295.015c0-.012.061-.036.082-.032l-.011.026c.018.019.072 0 .073.026.048-.027-.178.013-.114-.007.014.024.089-.033.073 0 .043 0 .087-.026.126 0-.012 0-.037.035 0 .035.061 0 .018-.012.068-.018L4.7 2.35c0-.026.054.006.033-.024.006.022.089-.008.081.034l-.01.034c.027 0 .045-.033.066-.047 0 0 .01.011.008.016.006-.052.063.008.1-.031.055.023.14 0 .166.036a.217.217 0 0 1 .13-.024c-.01 0-.023.007-.026.018.03.015.038 0 .066-.007-.006.008.061.03.1.049.042-.016.027-.044.031-.061.04.05.118-.031.168.011-.014.009-.061.028-.025.04.041.049.077-.042.14-.022L5.7 2.331c.029.025.09-.03.086.014.02-.017.074.01.065-.031.1.028.246-.033.315.032.014-.009.051-.006.042-.026-.026-.02-.032.02-.043.006a.021.021 0 0 0 .015-.02c.032.006.058.006.031.044.073.017.066-.079.156-.073 0 .018.005.023.031.018l.046-.035c.058 0 .038.035.043.064.03-.009.069-.012.08-.035l.043.032c-.031-.023.023-.02.037-.029l-.018.008c.008.012.042 0 .06-.008-.007-.018-.044-.017-.065-.021.014-.014.039-.016.057-.034 0 .029.053.012.078.01s.027-.031.036-.031c0 .015.046-.005.028.019-.009.006-.024-.011-.038.005.02.008.022.034.057.008s-.017-.054.041-.046c-.013.009-.014.021-.023.033l.054.006v-.026c.008.005 0 .008.007.011C6.929 2.2 7 2.2 7 2.172c.025-.007.058.008.083.007a.1.1 0 0 0 .093-.029v.006a.133.133 0 0 0 .071-.034c.045.01.034.093.073.05.042-.01.055-.062.035-.074.079 0 .154-.061.233-.037.008-.013 0-.018.021-.028.113-.014.22-.093.321-.067-.028.02.005.026.01.04.02-.03.038.014.036-.027-.009-.022-.01-.034-.043-.034a.4.4 0 0 1 .2-.048c-.021-.005-.009-.016 0-.027.006.037.056.03.087 0v-.024l.03.014c.011-.012 0-.051.042-.042a.043.043 0 0 0 .018.02c.031-.031.072-.078.118-.074l.044.02c.016-.009.038-.038 0-.037.074 0 .119-.017.151 0a.957.957 0 0 1 .389-.23v.017c.042 0 .007-.035.036-.034-.005.02.041.021.021.051.058 0 .055-.053.084-.076 0-.023-.02.025-.026 0 0-.009.076-.017.07-.051.018.006.019.034.017.049l.024-.029c.054.018-.056.105 0 .131l.026-.018c.042.02-.059.072.018.05.024-.03.03-.087 0-.088.06-.039 0-.088.066-.118.027.009-.053.03-.028.05.044.009.058-.045.091-.05-.037 0-.025-.04-.007-.056.042 0-.009.04.042.019 0-.022.038-.056-.007-.05 0-.048.057-.013.068-.057.03.02-.019.089.042.077-.022-.023.049-.068 0-.095.025 0 .038.018.031.042.039 0 .047-.087.084-.038V1.21c.014 0 .03 0 .053.01.026-.014.064-.082.084-.04.006-.009.066-.039.028-.055-.046 0-.031.044-.072.016.043.017.051-.033.066-.055l.012.014c.009-.013.04-.025.039-.047 0 .014.006.022.018.021V1.05c.045-.04.036.036.082 0l-.028.039c.006-.008.036 0 .056-.016V.989c.023-.025.027.018.041-.02l-.021.046c0 .01.046.023.082 0 .019-.015.037-.073-.004-.062.018-.012.051-.014.046.01.037-.033-.019-.02.009-.055.023.005.081 0 .121 0l-.016.059.025-.015c-.015.049.03.012.03.053.02-.006.035-.029.047-.047-.08-.018.015-.1-.026-.135.06-.053.11.08.138-.032-.019 0-.007-.058-.042-.019.045-.022 0-.06.062-.075-.024.042.067.017.032.079-.006-.016-.037.008-.043.017.028.006.025.046.068.019.023-.022.058-.047.038-.066s-.038.03-.037-.007c.045-.044.079-.012.071-.07a.041.041 0 0 1-.066-.012l.03-.036v.021c.068-.029 0-.042.058-.077l.055.016c.005.037-.093.046-.052.084.039-.024.036-.056.08-.069-.005.009-.015.018-.02.027.015-.008.069.042.1-.03.018-.033 0-.021-.015-.038.057-.047.063-.076.1-.106.016.039.07-.047.052.018-.033 0-.12.057-.12.1.049.023-.052.027-.038.076.05-.033.074.007.1.026.015-.008.021-.027.026-.037C10.9.608 10.88.621 10.862.6a.225.225 0 0 0 .115-.125.024.024 0 0 1 .023.041 1.115 1.115 0 0 1 .192-.143c-.067-.007.06-.06.01-.07-.038.016-.086.011-.081-.019.022-.013.012.017.026.018.009-.039.064 0 .064-.049-.048.056.024.053.036.09.029-.048.014.022.055-.01a.987.987 0 0 1 .109-.142c.077-.021.14-.119.188-.163.038-.008.047.038.08.019s-.054-.013.008-.04v.01c.008-.02.108-.056.083-.112l.015.046c.012 0 .013-.02.018-.03.01.011.03.011.021.031.051 0 .058-.061.088-.091h-.038c.039-.066.093-.081.138-.137l.016.02.02-.041c.01.025.05.01.051-.021l-.036.122c-.033.01 0-.046-.029-.051s-.07.046-.061.072c.02-.015.017-.02.025-.041.031.02 0 .046 0 .077.009-.01.03-.015.024-.026a.165.165 0 0 1-.055.082c.012-.031-.027-.005-.026-.021.019.026 0 .062-.05.093-.053 0-.061.084-.116.118a.209.209 0 0 1 .025-.113c-.04.013-.033.029-.073.042a.148.148 0 0 1-.014.111L11.7.131c-.027.039 0 .066-.054.1-.085.057-.163.127-.228.17L11.4.384c0 .066-.1.1-.135.156-.093.042-.156.151-.223.146a3.013 3.013 0 0 1-.4.31l.007-.045c-.013.039-.028-.005-.053.016.046 0-.018.053-.026.083a.44.44 0 0 0-.2.157l-.015-.019c-.039.076-.132.09-.216.125a.07.07 0 0 0-.061 0c-.024.057-.048.067-.1.122a.847.847 0 0 1-.188.065 4.375 4.375 0 0 1-.524.308l-.025-.02a3.442 3.442 0 0 1-.558.261V2c-.055 0-.11.052-.086.079-.055 0-.119.066-.164.04-.055.01-.056.043-.1.064a.976.976 0 0 0-.245.068h.026c.008-.013 0-.033-.022-.029-.033.023-.14.027-.087.071-.115 0-.241.1-.358.078.013.013-.013.022-.022.035a1.014 1.014 0 0 0-.271.057c-.017 0 .018-.031-.02-.024-.022.011 0 .02-.023.035a2.449 2.449 0 0 1-.458.061 1.957 1.957 0 0 1-.379.072l-.374.039v-.012c-.078.048-.194-.033-.255.036-.02-.01-.074 0-.061-.024-.064.033-.182-.015-.275.022a.036.036 0 0 0 .023-.006c-.1-.025-.178.01-.279-.013.01 0 .029-.009.031-.02-.038-.022-.092.048-.112-.007-.022 0-.016.028 0 .026a2.28 2.28 0 0 0-.166-.007h-.17c-.114 0-.23.007-.345.007-.16-.045 0-.092-.134-.064-.009-.012-.009.02-.01.009-.051.01-.071-.069-.108-.044.011.035-.025.016-.028.037-.1-.032-.113-.065-.194-.047l.008-.017c-.1.041-.2-.006-.285.041-.254-.029-.5-.074-.746-.114s-.487-.1-.726-.175a7.63 7.63 0 0 1-1.37-.556.377.377 0 0 0-.22-.138c.008 0 .016 0 .012-.012-.023.032-.082-.04-.11-.013-.08-.047-.16-.086-.239-.129L.1 1.29c.028.012.057-.007.025-.023H.08v-.011c-.024-.008-.057-.005-.041.018A7.526 7.526 0 0 1-1.1.427a2.659 2.659 0 0 0-.3-.25c-.121-.134-.222-.274-.338-.4a3.616 3.616 0 0 0-.362-.37.263.263 0 0 1 .224.058" transform="translate(791.796 351.168)" fill="#ea1f27"/><path id="Path_71818" data-name="Path 71818" d="M-.455-.21c-.023-.005-.059.016-.054-.025.015.01.045.01.054.025" transform="translate(804.44 351.086)" fill="#ea1f27"/><path id="Path_71819" data-name="Path 71819" d="M-.18-.211c0 .005-.017 0-.022 0s.009-.029.024-.028c-.01.009 0 .015 0 .025" transform="translate(803.221 351.657)" fill="#ea1f27"/><path id="Path_71820" data-name="Path 71820" d="M-.007-.716C-.014-.732.024-.778.051-.8z" transform="translate(802.823 352.319)" fill="#ea1f27"/><path id="Path_71821" data-name="Path 71821" d="M-.165-.214c-.026 0-.026-.009 0-.026.007.006 0 .015 0 .026" transform="translate(802.733 351.909)" fill="#ea1f27"/><path id="Path_71822" data-name="Path 71822" d="M-.382-.073a.054.054 0 0 1-.046.008c.009.012.035-.035.046-.008" transform="translate(802.958 351.81)" fill="#ea1f27"/><path id="Path_71823" data-name="Path 71823" d="M-.4-.06c-.011.008-.028.035-.048.025.019 0 .044-.052.048-.025" transform="translate(802.489 352.059)" fill="#ea1f27"/><path id="Path_71824" data-name="Path 71824" d="M-.234-.121c-.008 0-.012 0-.018.012s-.009-.018 0-.026z" transform="translate(802.116 352.276)" fill="#ea1f27"/><path id="Path_71825" data-name="Path 71825" d="m0-.083.028-.01v.017z" transform="translate(797.447 353.597)" fill="#ea1f27"/><path id="Path_71826" data-name="Path 71826" d="M-.172-.183C-.2-.177-.189-.2-.193-.2c.025 0-.013.019.021.022" transform="translate(795.567 353.562)" fill="#ea1f27"/><path id="Path_71827" data-name="Path 71827" d="M-.036 0h.008L-.04.035z" transform="translate(794.325 353.209)" fill="#ea1f27"/><path id="Path_71828" data-name="Path 71828" d="m-76.178-29.259-9.1-3.5 9.294 2.8z" transform="translate(887.161 376.611)" fill="#ea1f27"/><path id="Path_71829" data-name="Path 71829" d="M-71.719 0v.82l-8.568.854z" transform="translate(883.115 342.013)" fill="#ea1f27"/><path id="Path_71830" data-name="Path 71830" d="m-90.642-3.78-.423-.127-.391-.12-.183-.058-.167-.051-.319-.1-9.181 2.582s-.014 0-.018.006c-.3.116-.087.619.184.557l11.024-2.529-.284-.08z" transform="translate(892.134 347.783)" fill="#212222"/><path id="Path_71831" data-name="Path 71831" d="M-196.6-56.394a.914.914 0 0 0-.252-.846.6.6 0 0 0-.226-.107l-9.886-2.514-12.823-3.264a.01.01 0 0 1-.013 0c-.322-.049-.389.49-.122.575l10.261 3.151.413.128 11.738 3.6c.007 0 .009.005.015.007a.77.77 0 0 0 .894-.728" transform="translate(1010.888 403.001)" fill="#212222"/><path id="Path_71832" data-name="Path 71832" d="m-16.67-28.408.153.038.354.089.076.022 8.055-1.851a.017.017 0 0 0 .014 0 .767.767 0 0 0 .409-1.076.9.9 0 0 0-.64-.607.522.522 0 0 0-.246.023l-10.167 2.859h.019l.354.089.162.043.2.051.587.147z" transform="translate(821.883 371.559)" fill="#212222"/><path id="Path_71833" data-name="Path 71833" d="m-35.68 0 2.857 4.441-1.085.7-1.784-2.773-2.463 1.582.881 1.37a.351.351 0 0 0 .235.162.371.371 0 0 0 .282-.055l.7 1.092a1.589 1.589 0 0 1-.618.239 1.769 1.769 0 0 1-.641-.014 1.63 1.63 0 0 1-.586-.25 1.629 1.629 0 0 1-.46-.476l-1.584-2.462 3.546-2.282-.366-.574z" transform="translate(817.396 349.706)" fill="#221f1f"/><path id="Path_71834" data-name="Path 71834" d="m-21.208-18.67.622-.792-.539-.423.8-1.015 1.56 1.225-1.419 1.808 1.319 1.035 1.419-1.808 1.021.8-3.4 4.333-1.021-.8 1.186-1.51-1.325-1.04a1.964 1.964 0 0 1-.6.482 2.021 2.021 0 0 1-.714.215 1.99 1.99 0 0 1-.745-.065 1.95 1.95 0 0 1-.69-.351l.8-1.015a.659.659 0 0 0 .48.147.71.71 0 0 0 .453-.214l-.545-.428.8-1.015z" transform="translate(804.885 374.978)" fill="#221f1f"/><path id="Path_71835" data-name="Path 71835" d="m-17.634-15.94-.759 2.027a.737.737 0 0 0 .016.586.738.738 0 0 0 .431.4l.442.166a.738.738 0 0 0 .586-.016.738.738 0 0 0 .4-.431l.491-1.312a.744.744 0 0 0 .048-.3.809.809 0 0 0-.066-.285.718.718 0 0 0-.171-.24.767.767 0 0 0-.259-.16zm-1.857-.7.453-1.209 3.014 1.129a2 2 0 0 1 .691.431 2.128 2.128 0 0 1 .461.643 2.046 2.046 0 0 1 .187.768 1.994 1.994 0 0 1-.129.8l-.491 1.312a1.994 1.994 0 0 1-.431.691 2.045 2.045 0 0 1-.645.456 2.123 2.123 0 0 1-.77.182 1.993 1.993 0 0 1-.8-.129l-.442-.166a1.994 1.994 0 0 1-.691-.431 2.125 2.125 0 0 1-.461-.643 2.045 2.045 0 0 1-.187-.768 1.992 1.992 0 0 1 .129-.8l.759-2.027z" transform="translate(807.423 374.977)" fill="#221f1f"/><path id="Path_71836" data-name="Path 71836" d="M-.337-35.3a.7.7 0 0 0 .5-.2.669.669 0 0 0 .213-.487l.056-2.226-.684-.017.032-1.29 1.983.05-.088 3.517a1.889 1.889 0 0 1-.151.7l.362.009a.9.9 0 0 0 .368-.066 1.014 1.014 0 0 0 .3-.193.918.918 0 0 0 .212-.294.9.9 0 0 0 .084-.36l.082-3.281 1.29.032-.082 3.284a.9.9 0 0 0 .066.364.949.949 0 0 0 .193.3.961.961 0 0 0 .29.208.892.892 0 0 0 .364.084l.212.005.106-4.217 1.3.032-.138 5.507-1.513-.033a2.177 2.177 0 0 1-.869-.2 2.193 2.193 0 0 1-.7-.5 2.3 2.3 0 0 1-.724.466 2.167 2.167 0 0 1-.882.155l-2.211-.055h-.011l.032-1.29z" transform="translate(793.414 398.625)" fill="#221f1f"/><path id="Path_71837" data-name="Path 71837" d="m-4.208-25.706-.5-1.189 4.448-1.882.5 1.189-1.595.674.868 2.051a1.942 1.942 0 0 1 .157.775 1.971 1.971 0 0 1-.148.75 2.067 2.067 0 0 1-.418.638 1.929 1.929 0 0 1-.656.448l-.5-1.189a.675.675 0 0 0 .377-.382.675.675 0 0 0 0-.536l-.868-2.051z" transform="translate(806.559 385.667)" fill="#221f1f"/><path id="Path_71838" data-name="Path 71838" d="m-19.69-19.372.668.816.914-.747-.814-.7zm-.338 1.638-.667-.816-.53.433-.817-1 3.144-2.57 4.255 3.637-1.017.832-1.443-1.23-1.1.9a1.929 1.929 0 0 1 .315.683 2.006 2.006 0 0 1 .041.734 2.027 2.027 0 0 1-.227.7 1.937 1.937 0 0 1-.49.588l-.817-1a.673.673 0 0 0 .246-.414.7.7 0 0 0-.073-.469l-.536.438-.822-1.005z" transform="translate(828.279 376.051)" fill="#221f1f"/><path id="Path_71839" data-name="Path 71839" d="m-18.076-22.467 1.819 1.173a.738.738 0 0 0 .576.109.737.737 0 0 0 .479-.337l.256-.4a.738.738 0 0 0 .109-.576.737.737 0 0 0-.337-.479l-1.177-.759a.743.743 0 0 0-.28-.11.811.811 0 0 0-.292 0 .717.717 0 0 0-.271.116.768.768 0 0 0-.212.219zm-1.075 1.667-1.085-.7 1.744-2.705a2 2 0 0 1 .568-.584 2.136 2.136 0 0 1 .724-.311 2.053 2.053 0 0 1 .79-.02 1.994 1.994 0 0 1 .759.3l1.177.759a2 2 0 0 1 .584.568 2.046 2.046 0 0 1 .308.728 2.127 2.127 0 0 1 .014.791 2 2 0 0 1-.3.759l-.256.4a2 2 0 0 1-.568.584 2.127 2.127 0 0 1-.727.313 2.046 2.046 0 0 1-.79.02 1.993 1.993 0 0 1-.759-.3l-1.819-1.173z" transform="translate(829.949 375.76)" fill="#221f1f"/></g></g></g></svg>