<svg xmlns="http://www.w3.org/2000/svg" xmlns:xlink="http://www.w3.org/1999/xlink" version="1.1" id="Layer_1" x="0px" y="0px" style="enable-background:new 0 0 1600 900;" xml:space="preserve" viewBox="303.75 307.47 992.42 285.47">
<style type="text/css">
	.st0{fill:#02205F;}
	.st1{fill:#EB0C77;}
</style>
<g>
	<g>
		<path class="st0" d="M689.4,521.17c-9.09,0-13.9-4.74-13.9-13.7V392.13c0-8.97,4.81-13.7,13.9-13.7H755    c8.96,0,13.7,4.74,13.7,13.7v9.79c0,8.97-4.74,13.7-13.7,13.7h-36.23v15.09h25.66c9.09,0,13.9,4.74,13.9,13.7v9.79    c0,8.96-4.81,13.7-13.9,13.7h-25.66v16.06h38.58c9.09,0,13.9,4.74,13.9,13.7v9.79c0,8.96-4.81,13.7-13.9,13.7H689.4z"/>
		<path class="st0" d="M878.82,521.17c-7.74,0-12.93-3.85-15.42-11.44c-0.01-0.03-0.02-0.07-0.03-0.1l-2.77-12.94h-38.17    l-2.77,12.94c-2.09,7.67-7.15,11.54-15.05,11.54h-15.86c-4.88,0-8.44-1.48-10.58-4.41c-2.15-2.94-2.39-6.83-0.72-11.57    l38.18-115.71c2.49-7.33,7.68-11.05,15.42-11.05h21.34c7.74,0,12.92,3.71,15.41,11.04l38.19,115.73    c1.67,4.72,1.42,8.62-0.73,11.55c-2.14,2.93-5.7,4.41-10.58,4.41H878.82z M850.78,462.04l-4.05-18.4    c-0.64-2.31-1.31-5.06-1.96-8.13c-0.65-3.07-1.31-5.92-1.95-8.48l-1.21-5.79c0,0-1.2,5.78-1.21,5.79    c-0.64,2.56-1.26,5.4-1.85,8.46c-0.59,3.06-1.22,5.82-1.88,8.2l-4.4,18.35H850.78z"/>
		<path class="st0" d="M939.76,521.17c-8.97,0-13.7-4.74-13.7-13.7v-91.84h-26.44c-8.97,0-13.7-4.74-13.7-13.7v-9.79    c0-8.97,4.74-13.7,13.7-13.7h96.15c8.97,0,13.7,4.74,13.7,13.7v9.79c0,8.97-4.74,13.7-13.7,13.7h-26.44v91.84    c0,8.96-4.74,13.7-13.7,13.7H939.76z"/>
		<path class="st0" d="M1030.26,521.17c-9.09,0-13.9-4.74-13.9-13.7V392.13c0-8.97,4.81-13.7,13.9-13.7h64.62    c8.96,0,13.7,4.74,13.7,13.7v9.79c0,8.97-4.74,13.7-13.7,13.7h-35.25v19.79h26.24c9.09,0,13.9,4.81,13.9,13.9v9.6    c0,8.96-4.81,13.7-13.9,13.7h-26.24v34.86c0,8.96-4.74,13.7-13.7,13.7H1030.26z"/>
		<path class="st0" d="M1133.45,521.17c-9.09,0-13.9-4.74-13.9-13.7V392.13c0-8.97,4.81-13.7,13.9-13.7h15.67    c8.96,0,13.7,4.74,13.7,13.7v115.34c0,8.96-4.74,13.7-13.7,13.7H1133.45z"/>
		<path class="st0" d="M1226.46,521.17c-8.96,0-13.7-4.74-13.7-13.7v-91.84h-26.44c-8.96,0-13.7-4.74-13.7-13.7v-9.79    c0-8.97,4.74-13.7,13.7-13.7h96.15c8.96,0,13.7,4.74,13.7,13.7v9.79c0,8.97-4.74,13.7-13.7,13.7h-26.44v91.84    c0,8.96-4.74,13.7-13.7,13.7H1226.46z"/>
	</g>
	<g>
		<g>
			<g>
				<path class="st0" d="M610.08,420.37c-1.84-1.52-5.66-3.59-19.02-6.06c-4.14-0.77-8.03-1.35-10.57-1.71l-1.9-5.69l-0.04-0.1      c-0.17-0.48-3.98-11.01-9.72-22.3c5.32-6.41,17.9-23.84,17.07-44.47c-0.58-14.5-5.64-24.7-14.62-29.5      c-6.29-3.36-14.31-3.96-23.85-1.79c-9.53,2.17-20.91,7.19-33.83,14.94c-7.63-1.65-36.02-7.3-54.71-4.52      c-18.69-2.78-47.08,2.87-54.71,4.52c-12.92-7.75-24.3-12.78-33.83-14.94c-9.54-2.17-17.57-1.56-23.85,1.79      c-8.98,4.8-14.03,15-14.62,29.5c-0.83,20.63,11.76,38.07,17.07,44.47c-5.74,11.3-9.55,21.83-9.72,22.3l-1.93,5.79      c-2.54,0.36-6.43,0.95-10.57,1.71c-13.36,2.47-17.18,4.54-19.02,6.06c-3.42,2.83-4.52,8.83-3.7,20.06      c0.36,4.95,1.02,9.59,1.39,11.95c2.19,15.37,6.61,35.91,6.61,35.91l4.39-1.11c0,0,1.49,5.14,6.3,16.41      c10.72,25.15,24.23,37.75,24.23,37.75l9.17-0.01l0.03,11.28l29.5,8.32l0,0l4.67,1.44l27.02,5.87c1.75,4.68,3.22,8.62,4.15,11.09      c0.79,2.1,2.14,3.94,3.91,5.32c2.18,1.7,5.51,3.84,9.66,5.09c6.71,2.03,20.56,3,23.87,3.2l0,0l0,0c0,0,0,0,0,0l0,0      c3.31-0.21,17.16-1.17,23.87-3.2c4.14-1.26,7.47-3.4,9.66-5.09c1.77-1.38,3.12-3.22,3.91-5.32c0.92-2.47,2.4-6.41,4.15-11.09      l27.02-5.87l4.67-1.44l0,0l29.5-8.32l0.03-11.28l9.17,0.01c0,0,13.51-12.6,24.23-37.75c4.81-11.27,6.3-16.41,6.3-16.41      l4.39,1.11c0,0,4.42-20.54,6.61-35.9c0.37-2.36,1.03-7,1.39-11.95C614.6,429.21,613.5,423.21,610.08,420.37z M486.48,576.52      c-3.96,5.31-21.8,6.27-26.74,7.03c-0.44,0.07-0.84,0.1-0.84,0.1c0,0-0.4-0.03-0.84-0.1c-4.94-0.76-22.78-1.72-26.74-7.03      c-1.38-1.85-7.54-17.15-12.81-29.87c2.69,0.78,6.22,1.52,10.49,1.76c10.24,0.59,19.15-1.78,23.75-4.31      c2.93-1.61,5.02-3.82,6.15-5.21c1.13,1.39,3.21,3.6,6.15,5.21c4.6,2.52,13.51,4.9,23.75,4.31c4.27-0.25,7.81-0.99,10.49-1.76      C494.02,559.38,487.86,574.67,486.48,576.52z M455.44,328.27c0.3,0.03,0.59,0.07,0.88,0.1c0.69,0.11,1.42,0.22,1.93,0.3      c0.35,0.06,0.61,0.11,0.61,0.11c0.01,0,0.02,0,0.03-0.01c0.01,0,0.03,0,0.03,0.01c0,0,0.27-0.05,0.61-0.11      c0.52-0.08,1.25-0.19,1.93-0.3c0.29-0.04,0.58-0.07,0.87-0.1l4.82-0.34c19.53-0.72,45.9,5.33,46.2,5.4l1.89,0.44l1.65-1.01      c29.25-17.88,43.29-17.41,49.92-13.87c7.39,3.95,9.31,13.89,9.62,21.52c0.86,21.46-16.55,39.94-16.72,40.12l-2.38,2.48      l1.62,3.03c6.05,11.34,10.36,23.09,10.67,23.92l3.76,11.26l2.96,0.37c0.06,0.01,6.22,0.78,12.89,2.01      c10.64,1.96,13.8,3.45,14.59,3.92c0.3,0.7,1.22,3.75,0.43,13.26c-0.19,2.3-0.44,4.52-0.69,6.39c-0.02,0-0.04,0-0.06,0      c-0.08,0.79-0.18,1.61-0.28,2.44c-0.24,1.68-0.43,2.73-0.43,2.76l0.07,0.01c-0.4,2.89-0.92,6.04-1.58,9.44      c-2.86,14.74-3.62,17.01-3.62,17.01l-16.95,2.06l9.92,9.02c0,0-6.49,16.49-12.44,26.23c-5.95,9.73-13.56,16.56-13.56,16.56      l-11.95-0.06l0.09,12.51l-27.34,8.1l0,0l-21.2,4.89c5.65-15.13,12-32.17,12.63-34.07c1.16-3.48-0.23-6.73-0.23-6.73      l-26.94-50.26c0.53,0.54,1.1,1.04,1.64,1.56c-4.93-6.79-15.01-22.55-15.01-22.55l-0.65-0.04c0.18,0.41,0.34,0.82,0.53,1.24      c-0.07,0.2-0.13,0.41-0.18,0.67c-1.39,7.19,7.42,25.52,7.42,25.52s11.03,20.45,18.13,33.63l-31.06,13.43l34.62-5.43      c0.44-0.04,0.86,0.19,1.07,0.58l1.14,2.11c0.45,0.84,0.59,2.08,0.57,3.4c0,2.03-0.29,4.05-0.84,6.01l-0.02-0.01l-32.88-2.23      l29.39,9.8c-1.59,2-3.72,3.54-6.19,4.37c-0.04,0.02-0.09,0.03-0.13,0.04c-0.55,0.14-1.1,0.29-1.68,0.43      c-7.61,1.91-16.59,1.5-22.09-1.02c-5.49-2.52-10.99-11.43-10.99-11.43l0.59-17.17l-4.22,8.31l-4.22-8.31l0.59,17.17      c0,0-5.49,8.91-10.99,11.43c-5.49,2.52-14.48,2.93-22.09,1.02c-0.57-0.14-1.13-0.29-1.68-0.43c-0.04-0.01-0.09-0.03-0.13-0.04      c-2.47-0.83-4.6-2.37-6.19-4.37l29.39-9.8l-32.88,2.23l-0.02,0.01c-0.55-1.95-0.83-3.97-0.84-6.01      c-0.03-1.33,0.11-2.56,0.57-3.4l1.14-2.11c0.21-0.39,0.63-0.62,1.07-0.58l34.62,5.43l-31.06-13.43      c7.1-13.17,18.13-33.63,18.13-33.63s8.82-18.33,7.42-25.52c-0.05-0.26-0.11-0.48-0.18-0.67c0.19-0.41,0.34-0.82,0.53-1.24      l-0.65,0.04c0,0-10.08,15.76-15.01,22.55c0.55-0.52,1.12-1.02,1.64-1.56l-26.94,50.26c0,0-1.39,3.25-0.23,6.73      c0.63,1.9,6.98,18.94,12.63,34.07l-21.2-4.89l0,0l-27.34-8.1l0.09-12.51l-11.95,0.06c0,0-7.61-6.83-13.56-16.56      c-5.95-9.73-12.44-26.23-12.44-26.23l9.92-9.02l-16.95-2.06c0,0-0.76-2.27-3.62-17.01c-0.66-3.4-1.17-6.54-1.58-9.44l0.07-0.01      c0-0.02-0.19-1.08-0.43-2.76c-0.1-0.83-0.2-1.65-0.28-2.44c-0.02,0-0.04,0-0.06,0c-0.24-1.87-0.5-4.09-0.69-6.39      c-0.79-9.5,0.13-12.55,0.43-13.26c0.8-0.47,3.96-1.96,14.59-3.92c6.66-1.23,12.83-2,12.89-2.01l2.96-0.37l3.76-11.27      c0.31-0.85,4.62-12.59,10.67-23.92l1.62-3.03l-2.38-2.48c-0.18-0.18-17.59-18.56-16.72-40.12c0.31-7.64,2.23-17.57,9.62-21.52      c6.63-3.54,20.67-4.01,49.92,13.87l1.65,1.01l1.89-0.44c0.3-0.07,26.67-6.12,46.19-5.4L455.44,328.27z M451.34,327.42"/>
				<path class="st0" d="M389.62,368.34l-19.64,16.37l1.22-0.58c10.65-5.11,22.78-6.25,34.19-3.21l16.49,4.39l29.76-8.38      l-26.65,1.79L389.62,368.34z"/>
				<path class="st0" d="M448.25,339.13l8.38-12.71l-27.66,6.99l-28.8,19.18l19.22-6.34C428.73,343.17,438.48,340.4,448.25,339.13      L448.25,339.13L448.25,339.13z"/>
				<path class="st0" d="M347.94,484.01l29.62,19.32l25.64-10.06c-0.26,0-5.26,0.43-11.01,0.93c-11.21,0.97-22.33-2.68-30.78-10.11      l-13.7-12.05L347.94,484.01z"/>
				<path class="st0" d="M356.08,511.05l-2.06-0.87l6.86,10.25l16.12,3.14l20.49-18.59l-18.37,8c-3.47,1.51-7.29,2.01-11.04,1.44      l-0.35-0.05C363.74,513.75,359.82,512.64,356.08,511.05z"/>
				<path class="st0" d="M528.17,368.34l19.61,16.37l-1.22-0.58c-10.65-5.11-22.78-6.25-34.19-3.21l-16.49,4.39l-29.76-8.38      l26.68,1.79L528.17,368.34z"/>
				<path class="st0" d="M469.75,339.13l-8.61-12.71l27.66,6.99l28.8,19.18l-19.22-6.34C489.03,343.17,479.52,340.4,469.75,339.13      L469.75,339.13z"/>
				<path class="st0" d="M569.83,484.01l-29.62,19.32l-25.64-10.06c0.26,0,5.26,0.43,11.01,0.93c11.21,0.97,22.33-2.68,30.78-10.11      l13.7-12.05L569.83,484.01z"/>
				<path class="st0" d="M561.68,511.05l2.06-0.87l-6.86,10.25l-16.12,3.14l-20.49-18.59l18.37,8c3.47,1.51,7.3,2.01,11.04,1.44      l0.35-0.05C554.03,513.75,557.95,512.64,561.68,511.05z"/>
				<path class="st0" d="M467.17,327.94"/>
				<polygon class="st0" points="497.16,360.22 458.9,351.16 458.9,351.15 458.88,351.15 458.87,351.15 458.87,351.16       420.61,360.22 448.84,360.12 458.87,360.9 458.87,360.9 458.88,360.9 458.9,360.9 458.9,360.9 468.92,360.12     "/>
			</g>
			<path class="st0" d="M483.73,494.9L483.73,494.9c-2.5-5.31-8.7-7.61-13.97-5.18l-11.04,5.09l-11.04-5.09     c-5.26-2.43-11.47-0.13-13.97,5.18c-2.51,5.32-0.35,11.71,4.83,14.34l20.18,10.26h0l20.18-10.26     C484.08,506.61,486.23,500.22,483.73,494.9z"/>
		</g>
		<path class="st1" d="M569.92,437.22c0-15.18-7.34-27.89-18.9-34.72c-8.18-4.83-20.02-5.63-27.35-5.63c0,0-11.18-0.29-21.24,0.16    v-0.05H458.9h0h-43.53v0.05c-10.06-0.45-21.24-0.16-21.24-0.16c-7.33,0-19.17,0.8-27.35,5.63c-11.56,6.82-18.9,19.54-18.9,34.72    c0,0-1.01,12.83,5.36,25.2c11.39,22.12,35.39,22.79,35.39,22.79c32.8,0,59.38-26.59,59.38-59.38c0-0.36-0.02-0.72-0.03-1.08h10.92    h0h10.92c-0.01,0.36-0.03,0.72-0.03,1.08c0,32.8,26.59,59.38,59.38,59.38c0,0,23.99-0.67,35.39-22.79    C570.92,450.05,569.92,437.22,569.92,437.22z M471.47,414.93H458.9h0h-12.57c-1-2.97-2.49-5.72-4.49-8.14h17.06h0h17.06    C473.96,409.2,472.47,411.96,471.47,414.93z"/>
	</g>
</g>
</svg>