<svg xmlns:xlink="http://www.w3.org/1999/xlink" xmlns="http://www.w3.org/2000/svg" version="1.1" id="Layer_1" x="0" y="0" viewBox="0 0 60.6 60.6" style="enable-background:new 0 0 60.6 60.6" xml:space="preserve" width="60.6"  height="60.6" ><style type="text/css">.st1{fill:#02205f}</style><path d="M30.3 60.6C13.6 60.6 0 47 0 30.3 0 13.6 13.6 0 30.3 0 47 0 60.6 13.6 60.6 30.3 60.6 47 47 60.6 30.3 60.6z" style="fill:#fff"/><g id="Eatfit_w" transform="translate(-255 -229)"><g id="Eatfit_sel"><path class="st1" d="M-7750.2-9695.8c-.3-.2-.9-.6-2.9-.9-.7-.1-1.2-.2-1.5-.2l-.3-.9c0-.1-.6-1.7-1.4-3.3.8-1 2.7-3.7 2.5-6.8-.1-2.2-.9-3.8-2.2-4.4-1-.6-2.2-.6-3.7-.2s-3.2 1.1-5.1 2.2c-1.1-.2-5.4-1.1-8.3-.7-2.9-.4-7.1.4-8.3.7-2-1.2-3.7-1.9-5.1-2.2s-2.7-.2-3.7.2c-1.3.8-2.1 2.3-2.2 4.4-.1 3.1 1.8 5.8 2.5 6.8-.9 1.7-1.4 3.3-1.4 3.3l-.3.9c-.3 0-1 .1-1.5.2-2 .3-2.5.7-2.9.9-.6.4-.7 1.3-.6 3 0 .8.1 1.4.2 1.8.3 2.3 1 5.4 1 5.4l.7-.2s.2.8 1 2.4c1.7 3.8 3.7 5.8 3.7 5.8h1.4v1.7l4.4 1.2.7.2 4.1.9c.2.7.4 1.3.7 1.7.1.3.3.6.6.8.3.2.9.6 1.4.8 1 .3 3.1.4 3.7.4.6 0 2.5-.2 3.7-.4.7-.2 1.1-.6 1.4-.8.2-.2.4-.4.6-.8s.3-1 .7-1.7l4.1-.9.7-.2 4.4-1.2v-1.7h1.4s2-1.9 3.7-5.8c.8-1.7 1-2.4 1-2.4l.7.2s.7-3.1 1-5.4c0-.3.1-1.1.2-1.8-.2-1.7-.4-2.6-.8-3zm-18.7 23.5c-.6.8-3.3 1-4.1 1.1h-.2c-.8-.1-3.4-.2-4.1-1.1-.2-.3-1.1-2.5-2-4.5.4.1 1 .2 1.5.2 1.6.1 2.9-.2 3.5-.7.4-.2.8-.6.9-.8.2.2.4.6.9.8.7.3 2 .8 3.5.7.7 0 1.2-.1 1.5-.2-.3 2-1.2 4.3-1.4 4.5zm-4.8-37.5h1.8c3-.1 7 .8 7 .8l.3.1.2-.1c4.4-2.7 6.5-2.7 7.5-2.1 1.1.6 1.4 2.1 1.4 3.2.1 3.2-2.5 6.1-2.5 6.1l-.3.3.2.4c.9 1.7 1.5 3.5 1.7 3.7l.6 1.7.4.1s1 .1 2 .3c1.7.3 2.1.6 2.2.6 0 .1.2.6.1 2 0 .3-.1.7-.1 1v.3c0 .2-.1.4-.1.4-.1.4-.1.9-.2 1.4-.4 2.2-.6 2.5-.6 2.5l-2.5.3 1.5 1.3s-1 2.5-1.9 4c-.9 1.4-2.1 2.5-2.1 2.5h-1.8v1.9l-4.1 1.2-3.2.8c.9-2.3 1.8-4.9 1.9-5.2.2-.6 0-1 0-1l-4.1-7.6.2.2c-.8-1-2.3-3.4-2.3-3.4h-.1c0 .1 0 .1.1.2v.1c-.2 1.1 1.1 3.9 1.1 3.9s1.7 3.1 2.8 5.1l-4.6 2 5.2-.8c.1 0 .1 0 .1.1l.2.3c.1.1.1.3.1.6s0 .7-.1.9l-5-.3 4.4 1.4c-.2.3-.6.6-.9.7-.1 0-.2 0-.2.1-1.1.3-2.5.2-3.3-.1-.9-.3-1.7-1.8-1.7-1.8l.1-2.5-.7 1.2-.7-1.2.1 2.5s-.9 1.3-1.7 1.8c-.9.3-2.2.4-3.3.1-.1 0-.2 0-.2-.1-.3-.1-.7-.3-.9-.7l4.4-1.4-5 .3c-.1-.3-.1-.6-.1-.9 0-.2 0-.3.1-.6l.2-.3c0-.1.1-.1.1-.1l5.2.8-4.7-2c1.1-2 2.8-5.1 2.8-5.1s1.3-2.8 1.1-3.9v-.1c0-.1 0-.1.1-.2h-.1s-1.5 2.4-2.3 3.4c.1-.1.2-.1.2-.2l-4.1 7.6s-.2.4 0 1c.1.3 1.1 2.9 1.9 5.2l-3.2-.8-4.1-1.2v-1.9h-1.8s-1.1-1-2.1-2.5c-.9-1.4-1.9-4-1.9-4l1.5-1.3-2.5-.3s-.1-.3-.6-2.5c-.1-.6-.2-1-.2-1.4 0 0 0-.1-.1-.4v-.3c0-.3-.1-.7-.1-1-.1-1.4 0-1.9.1-2s.6-.3 2.2-.6c1-.2 2-.3 2-.3l.4-.1.6-1.7c0-.1.7-1.9 1.7-3.7l.2-.4-.3-.3s-2.7-2.8-2.5-6.1c0-1.1.3-2.7 1.4-3.2 1-.6 3.1-.6 7.5 2.1l.2.1.3-.1s4-.9 7-.8h.5z" transform="translate(8058.45 9951.46)"/><path class="st1" d="m-7783.7-9703.7-3 2.4.2-.1c1.7-.8 3.4-1 5.2-.4l2.5.7 4.5-1.2-4 .2-5.4-1.6zm9-4.4 1.2-1.9-4.2 1.1-4.3 2.9 2.9-1c1.4-.6 2.9-1 4.4-1.1zm-15.3 21.9 4.5 2.9 3.9-1.5s-.8.1-1.7.1c-1.7.1-3.4-.4-4.7-1.6l-2.1-1.8v1.9h.1zm1.2 4.1-.3-.1 1 1.6 2.4.4 3.1-2.8-2.8 1.2c-.6.2-1.1.3-1.7.2-.4-.2-1-.3-1.7-.5zm26.2-21.6 3 2.4-.2-.1c-1.7-.8-3.4-1-5.2-.4l-2.5.7-4.5-1.2 4 .2 5.4-1.6zm-8.9-4.4-1.3-1.9 4.2 1.1 4.3 2.9-2.9-1c-1.4-.6-2.8-1-4.3-1.1zm15.2 21.9-4.5 2.9-3.9-1.5s.8.1 1.7.1c1.7.1 3.4-.4 4.7-1.6l2.1-1.8v1.9h-.1zm-1.2 4.1.3-.1-1 1.6-2.4.4-3.1-2.8 2.8 1.2c.6.2 1.1.3 1.7.2.4-.2 1-.3 1.7-.5zm-9.9-22.8-5.7-1.5-5.8 1.5 4.2-.1 1.6.1 1.5-.1zm-2 20.3c-.3-.8-1.3-1.1-2.1-.8l-1.7.8-1.7-.8c-.8-.3-1.8 0-2.1.8-.3.8 0 1.8.8 2.2l3.1 1.6 3.1-1.6c.6-.4 1-1.4.6-2.2z" transform="translate(8058.45 9951.46)"/><path d="M-7756-9693.3c0-2.3-1.1-4.2-2.9-5.2-1.2-.8-3-.9-4.1-.9h-16.4c-1.5-.1-3.2 0-3.2 0-1.1 0-2.9.1-4.1.9-1.8 1-2.9 3-2.9 5.2 0 0-.1 2 .8 3.8 1.8 3.3 5.3 3.4 5.3 3.4 5 0 9-4 9-9v-.1h3.4v.1c0 5 4 9 9 9 0 0 3.7-.1 5.3-3.4.9-1.9.8-3.8.8-3.8zm-14.9-3.4h-3.8c-.1-.4-.3-.9-.7-1.2h5c-.1.4-.3.7-.5 1.2z" style="fill:#ec0f78" transform="translate(8058.45 9951.46)"/></g></g></svg>