<svg xmlns:xlink="http://www.w3.org/1999/xlink" xmlns="http://www.w3.org/2000/svg" version="1.1" id="Layer_1" x="0" y="0" viewBox="0 0 60.6 60.6" style="enable-background:new 0 0 60.6 60.6" xml:space="preserve" width="76"  height="76" ><style type="text/css">.st1{fill:#fff}</style><g id="Eatfit_w" transform="translate(-255 -229)"><g id="Eatfit_sel_00000125602319073414331270000001459149480901031301_" transform="translate(8058.45 9951.46)"><linearGradient id="Subtraction_86_00000116216510252788479740000014335596514555836094_" gradientUnits="userSpaceOnUse" x1="-7794.631" y1="-9725.703" x2="-7752.52" y2="-9659.925"><stop offset=".163" style="stop-color:#ff720b"/><stop offset="1" style="stop-color:#c216e2"/></linearGradient><path id="Subtraction_86_00000160878933017960319970000017239730506728090040_" style="fill:url(#Subtraction_86_00000116216510252788479740000014335596514555836094_)" d="M-7773.2-9722.5c16.7 0 30.3 13.6 30.3 30.3 0 16.7-13.6 30.3-30.3 30.3-16.7 0-30.3-13.6-30.3-30.3 0-16.7 13.6-30.3 30.3-30.3z"/><path class="st1" d="M-7752.5-9695c-.3-.2-.8-.5-2.6-.8-.6-.1-1.1-.2-1.4-.2l-.3-.8c0-.1-.5-1.5-1.3-3 .7-.9 2.4-3.3 2.3-6.1-.1-2-.8-3.4-2-4-.9-.5-2-.5-3.3-.2-1.3.3-2.9 1-4.6 2-1-.2-4.9-1-7.5-.6-2.6-.4-6.4.4-7.5.6-1.8-1.1-3.3-1.7-4.6-2-1.3-.3-2.4-.2-3.3.2-1.2.7-1.9 2.1-2 4-.1 2.8 1.6 5.2 2.3 6.1-.8 1.5-1.3 3-1.3 3l-.3.8c-.3 0-.9.1-1.4.2-1.8.3-2.3.6-2.6.8-.5.4-.6 1.2-.5 2.7 0 .7.1 1.3.2 1.6.3 2.1.9 4.9.9 4.9l.6-.2s.2.7.9 2.2c1.5 3.4 3.3 5.2 3.3 5.2h1.3v1.5l4 1.1.6.2 3.7.8c.2.6.4 1.2.6 1.5.1.3.3.5.5.7.3.2.8.5 1.3.7.9.3 2.8.4 3.3.4s2.3-.2 3.3-.4c.6-.2 1-.5 1.3-.7.2-.2.4-.4.5-.7.1-.3.3-.9.6-1.5l3.7-.8.6-.2 4-1.1v-1.5h1.3s1.8-1.7 3.3-5.2c.7-1.5.9-2.2.9-2.2l.6.2s.6-2.8.9-4.9c0-.3.1-1 .2-1.6.1-1.5-.1-2.3-.5-2.7zm-16.9 21.3c-.5.7-3 .9-3.7 1h-.2c-.7-.1-3.1-.2-3.7-1-.2-.3-1-2.3-1.8-4.1.4.1.9.2 1.4.2 1.4.1 2.6-.2 3.2-.6.4-.2.7-.5.8-.7.2.2.4.5.8.7.6.3 1.8.7 3.2.6.6 0 1.1-.1 1.4-.2-.4 1.8-1.2 3.9-1.4 4.1zm-4.3-33.9h1.7c2.7-.1 6.3.7 6.3.7l.3.1.2-.1c4-2.4 5.9-2.4 6.8-1.9 1 .5 1.3 1.9 1.3 2.9.1 2.9-2.3 5.5-2.3 5.5l-.3.3.2.4c.8 1.5 1.4 3.2 1.5 3.3l.5 1.5.4.1s.9.1 1.8.3c1.5.3 1.9.5 2 .5 0 .1.2.5.1 1.8 0 .3-.1.6-.1.9v.3c0 .2-.1.4-.1.4-.1.4-.1.8-.2 1.3-.4 2-.5 2.3-.5 2.3l-2.3.3 1.4 1.2s-.9 2.3-1.7 3.6c-.8 1.3-1.9 2.3-1.9 2.3h-1.6v1.7l-3.7 1.1-2.9.7c.8-2.1 1.6-4.4 1.7-4.7.2-.5 0-.9 0-.9l-3.7-6.9.2.2c-.7-.9-2.1-3.1-2.1-3.1h-.1c0 .1 0 .1.1.2v.1c-.2 1 1 3.5 1 3.5s1.5 2.8 2.5 4.6l-4.2 1.8 4.7-.7c.1 0 .1 0 .1.1l.2.3c.1.1.1.3.1.5 0 .3 0 .6-.1.8l-4.5-.3 4 1.3c-.2.3-.5.5-.8.6-.1 0-.2 0-.2.1-1 .3-2.3.2-3-.1-.8-.3-1.5-1.6-1.5-1.6l.1-2.3-.6 1.1-.6-1.1.1 2.3s-.8 1.2-1.5 1.6c-.8.3-2 .4-3 .1-.1 0-.2 0-.2-.1-.3-.1-.6-.3-.8-.6l4-1.3-4.5.3c-.1-.3-.1-.5-.1-.8 0-.2 0-.3.1-.5l.2-.3c0-.1.1-.1.1-.1l4.7.7-4.2-1.8c1-1.8 2.5-4.6 2.5-4.6s1.2-2.5 1-3.5v-.1c0-.1 0-.1.1-.2h-.1s-1.4 2.2-2.1 3.1c.1-.1.2-.1.2-.2l-3.7 6.9s-.2.4 0 .9c.1.3 1 2.6 1.7 4.7l-2.9-.7-3.7-1.1v-1.7h-1.6s-1-.9-1.9-2.3c-.8-1.3-1.7-3.6-1.7-3.6l1.4-1.2-2.3-.3s-.1-.3-.5-2.3c-.1-.5-.2-.9-.2-1.3 0 0 0-.1-.1-.4v-.3c0-.3-.1-.6-.1-.9-.1-1.3 0-1.7.1-1.8.1-.1.5-.3 2-.5.9-.2 1.8-.3 1.8-.3l.4-.1.5-1.5c0-.1.6-1.7 1.5-3.3l.2-.4-.3-.3s-2.4-2.5-2.3-5.5c0-1 .3-2.4 1.3-2.9.9-.5 2.8-.5 6.8 1.9l.2.1.3-.1s3.6-.8 6.3-.7h.1zm-.5-.1"/><path class="st1" d="m-7782.7-9702.1-2.7 2.2.2-.1c1.5-.7 3.1-.9 4.7-.4l2.3.6 4.1-1.1-3.6.2-5-1.4zm8.1-4 1.1-1.7-3.8 1-3.9 2.6 2.6-.9c1.3-.5 2.6-.9 4-1zm-13.8 19.8 4.1 2.6 3.5-1.4s-.7.1-1.5.1c-1.5.1-3.1-.4-4.2-1.4l-1.9-1.6v1.7zm1.1 3.7-.3-.1.9 1.4 2.2.4 2.8-2.5-2.5 1.1c-.5.2-1 .3-1.5.2-.5-.2-1-.3-1.6-.5zm23.6-19.5 2.7 2.2-.2-.1c-1.5-.7-3.1-.9-4.7-.4l-2.3.6-4.1-1.1 3.6.2 5-1.4zm-8-4-1.2-1.7 3.8 1 3.9 2.6-2.6-.9c-1.3-.5-2.6-.9-3.9-1zm13.7 19.8-4.1 2.6-3.5-1.4s.7.1 1.5.1c1.5.1 3.1-.4 4.2-1.4l1.9-1.6v1.7zm-1.1 3.7.3-.1-.9 1.4-2.2.4-2.8-2.5 2.5 1.1c.5.2 1 .3 1.5.2.5-.2 1-.3 1.6-.5zm-8.9-20.6-5.2-1.3-5.2 1.3 3.8-.1 1.4.1 1.4-.1zm-1.8 18.4c-.3-.7-1.2-1-1.9-.7l-1.5.7-1.5-.7c-.7-.3-1.6 0-1.9.7-.3.7 0 1.6.7 2l2.8 1.4 2.8-1.4c.5-.4.8-1.3.5-2z"/><path class="st1" d="M-7758-9692.7c0-2.1-1-3.8-2.6-4.7-1.1-.7-2.7-.8-3.7-.8h-14.9c-1.4-.1-2.9 0-2.9 0-1 0-2.6.1-3.7.8-1.6.9-2.6 2.7-2.6 4.7 0 0-.1 1.8.7 3.4 1.6 3 4.8 3.1 4.8 3.1 4.5 0 8.1-3.6 8.1-8.1v-.1h3v.1c0 4.5 3.6 8.1 8.1 8.1 0 0 3.3-.1 4.8-3.1 1-1.7.9-3.4.9-3.4zm-13.5-3.1h-3.4c-.1-.4-.3-.8-.6-1.1h4.6c-.2.4-.4.7-.6 1.1z"/></g></g></svg>