<svg xmlns:xlink="http://www.w3.org/1999/xlink" xmlns="http://www.w3.org/2000/svg" viewBox="0 0 60.56 60.56" width="60.56"  height="60.56" ><g id="india_W" transform="translate(-255 -522)"><path id="Subtraction_86" data-name="Subtraction 86" d="M30.28 0A30.28 30.28 0 1 1 0 30.28 30.28 30.28 0 0 1 30.28 0z" transform="translate(255 522)" fill="#fff"/><g id="Group_8" data-name="Group 8" transform="translate(215 72.765)"><g id="Group_40386" data-name="Group 40386" transform="translate(7398.47 10276.616)"><g id="THE_GREAT_INDIAN_KHICHDI_LOGO-01-01" data-name="THE GREAT INDIAN KHICHDI LOGO-01-01" transform="translate(-7359.591 -9829.631)"><path id="Path_69089" data-name="Path 69089" d="M32.116 49.484a2.5 2.5 0 0 1-1.427-.441c-1.591-1.1-4.972-1.964-9.277-2.376-4.965-.479-6.212-3.127-6.505-4.667a1.192 1.192 0 0 0-1.078-.9 6.5 6.5 0 0 1-4.687-2.169 5.034 5.034 0 0 1-1.021-3.12l.091-7.611a4.25 4.25 0 0 1 .427-1.833 4.537 4.537 0 0 1 .545-.852 6.556 6.556 0 0 1 4.643-2.115 1.191 1.191 0 0 0 1.078-.905c.3-1.537 1.541-4.187 6.505-4.664 4.305-.413 7.687-1.279 9.278-2.376a2.529 2.529 0 0 1 2.853 0c1.591 1.1 4.973 1.964 9.277 2.376 4.965.478 6.208 3.126 6.505 4.664a1.192 1.192 0 0 0 1.077.905 6.555 6.555 0 0 1 4.643 2.117 4.741 4.741 0 0 1 .966 2.12l.073.727a4.929 4.929 0 0 1 .025.5v6.949a5.022 5.022 0 0 1-1.021 3.12A6.5 6.5 0 0 1 50.4 41.1a1.192 1.192 0 0 0-1.075.9c-.3 1.537-1.541 4.187-6.5 4.664-4.3.414-7.686 1.28-9.278 2.377a2.5 2.5 0 0 1-1.431.443z" fill="#f39422"/><path id="Path_69090" data-name="Path 69090" d="M71.658 44.74c-.024-1.535-.727-4.155-5.152-4.6a1.8 1.8 0 0 1-1.621-1.4c-.285-1.488-1.477-3.74-5.961-4.169-4.7-.45-7.986-1.39-9.568-2.482a1.915 1.915 0 0 0-2.154 0c-1.583 1.092-4.867 2.032-9.567 2.483-4.484.43-5.672 2.683-5.961 4.168a1.8 1.8 0 0 1-1.621 1.4c-4.425.447-5.129 3.066-5.152 4.6v7.2c0 1.523.653 4.224 5.153 4.678a1.8 1.8 0 0 1 1.621 1.4c.289 1.487 1.477 3.738 5.961 4.168 4.7.451 7.985 1.391 9.567 2.483a1.915 1.915 0 0 0 2.154 0c1.583-1.092 4.867-2.032 9.568-2.483 4.484-.43 5.672-2.681 5.961-4.168a1.8 1.8 0 0 1 1.621-1.4c4.5-.453 5.152-3.155 5.153-4.678z" transform="translate(-16.163 -16.132)" fill="#10316b"/><path id="Path_69091" data-name="Path 69091" d="M658.009 193.656a.118.118 0 1 0-.118-.118.118.118 0 0 0 .118.118z" transform="translate(-625.894 -171.853)" fill="#00a99b"/><path id="Path_69092" data-name="Path 69092" d="M101.17 476.1h.419v-2.877h-.419v-.654h1.568v.654h-.418v2.877h.418v.654h-1.568z" transform="translate(-89.63 -440.744)" fill="#fff"/><path id="Path_69093" data-name="Path 69093" d="M153.665 503.557a.116.116 0 0 0-.13-.13h-.235v-.636h.689c.265 0 .4.124.4.336v.088a.829.829 0 0 1-.012.13h.012a1.156 1.156 0 0 1 1.061-.625c.666 0 1.049.348 1.049 1.143v1.173a.118.118 0 0 0 .129.13h.236v.631h-.713c-.283 0-.4-.118-.4-.4v-1.38c0-.365-.094-.613-.472-.613a.826.826 0 0 0-.809.613 1.273 1.273 0 0 0-.059.4v1.383h-.742z" transform="translate(-139.844 -469.786)" fill="#fff"/><path id="Path_69094" data-name="Path 69094" d="M259.558 473.678a.966.966 0 0 1 .866.365h.012s-.006-.076-.006-.177v-.53a.115.115 0 0 0-.129-.13h-.236v-.637h.713c.277 0 .4.124.4.4v3.024a.118.118 0 0 0 .13.13h.23v.631h-.69c-.271 0-.371-.13-.371-.306v-.112h-.012a1.034 1.034 0 0 1-.937.49 1.389 1.389 0 0 1-1.338-1.574 1.407 1.407 0 0 1 1.368-1.574zm.89 1.568c0-.466-.242-.925-.743-.925-.413 0-.755.336-.755.931 0 .572.3.943.743.943.389.005.755-.283.755-.949z" transform="translate(-240.879 -440.744)" fill="#fff"/><path id="Path_69095" data-name="Path 69095" d="M357.2 474.515a.116.116 0 0 0-.13-.13h-.236v-.637h.713c.277 0 .4.124.4.4v1.845a.118.118 0 0 0 .13.13h.236v.631h-.713c-.277 0-.4-.118-.4-.4zm.037-1.945h.648v.69h-.65z" transform="translate(-335.894 -440.744)" fill="#fff"/><path id="Path_69096" data-name="Path 69096" d="M407.846 503.949h.094v-.023c0-.43-.171-.588-.554-.588-.136 0-.4.037-.4.2v.159h-.7v-.318c0-.56.79-.619 1.1-.619 1 0 1.3.525 1.3 1.2v1.12a.117.117 0 0 0 .129.13h.236v.631h-.672c-.277 0-.383-.153-.383-.331q0-.065.006-.13h-.012a.978.978 0 0 1-.908.531.95.95 0 0 1-1.026-.938c.004-.947 1.301-1.024 1.79-1.024zm-.578 1.373a.773.773 0 0 0 .684-.79v-.071h-.13c-.389 0-1.008.053-1.008.472a.4.4 0 0 0 .454.39z" transform="translate(-383.314 -469.824)" fill="#fff"/><path id="Path_69097" data-name="Path 69097" d="M494.364 503.557a.116.116 0 0 0-.13-.13H494v-.636h.689c.265 0 .4.124.4.336v.088a.832.832 0 0 1-.012.13h.012a1.156 1.156 0 0 1 1.061-.625c.666 0 1.049.348 1.049 1.143v1.173a.118.118 0 0 0 .129.13h.236v.631h-.715c-.283 0-.4-.118-.4-.4v-1.38c0-.365-.094-.613-.472-.613a.826.826 0 0 0-.809.613 1.273 1.273 0 0 0-.059.4v1.383h-.742z" transform="translate(-468.022 -469.786)" fill="#fff"/><path id="Path_69098" data-name="Path 69098" d="M642.053 473.354a.118.118 0 0 0-.13-.13h-.254v-.654h.755c.283 0 .4.123.4.4v1.3h.294c.153 0 .265-.012.336-.136l.843-1.568h.849l-.942 1.721a.76.76 0 0 1-.265.307v.012s.141.037.271.289l.53 1.066c.059.124.159.136.294.136h.11v.654h-.444c-.312 0-.448-.041-.584-.312l-.684-1.374c-.071-.136-.2-.141-.366-.141h-.247v1.827h-.772z" transform="translate(-610.265 -440.744)" fill="#fff"/><path id="Path_69099" data-name="Path 69099" d="M741 473.336a.115.115 0 0 0-.13-.13h-.236v-.637h.712c.277 0 .4.124.4.395v1.054a2.521 2.521 0 0 1-.012.254h.012a1.15 1.15 0 0 1 1.032-.6c.672 0 1.049.348 1.049 1.143v1.173a.118.118 0 0 0 .13.13h.236v.631h-.712c-.277 0-.4-.118-.4-.4v-1.379c0-.365-.1-.613-.478-.613a.846.846 0 0 0-.814.625 1.361 1.361 0 0 0-.047.389v1.379H741z" transform="translate(-705.588 -440.744)" fill="#fff"/><path id="Path_69100" data-name="Path 69100" d="M844.925 474.515a.115.115 0 0 0-.129-.13h-.236v-.637h.714c.277 0 .4.124.4.4v1.845a.118.118 0 0 0 .13.13h.236v.631h-.714c-.277 0-.4-.118-.4-.4zm.037-1.945h.648v.69h-.649z" transform="translate(-805.698 -440.744)" fill="#fff"/><path id="Path_69101" data-name="Path 69101" d="M895.256 502.72c.389 0 1.09.159 1.09.678v.354h-.662v-.165c0-.165-.247-.236-.43-.236a.932.932 0 1 0 .047 1.863 1.353 1.353 0 0 0 .89-.406l.312.519a1.719 1.719 0 0 1-1.268.542 1.575 1.575 0 1 1 .019-3.148z" transform="translate(-852.945 -469.786)" fill="#fff"/><path id="Path_69102" data-name="Path 69102" d="M977.368 473.336a.115.115 0 0 0-.129-.13H977v-.637h.713c.277 0 .4.124.4.395v1.054a2.521 2.521 0 0 1-.012.254h.012a1.15 1.15 0 0 1 1.032-.6c.672 0 1.049.348 1.049 1.143v1.173a.118.118 0 0 0 .13.13h.236v.631h-.713c-.277 0-.4-.118-.4-.4v-1.379c0-.365-.1-.613-.478-.613a.845.845 0 0 0-.813.625 1.343 1.343 0 0 0-.047.389v1.379h-.746z" transform="translate(-933.27 -440.744)" fill="#fff"/><path id="Path_69103" data-name="Path 69103" d="M1083.458 473.678a.966.966 0 0 1 .867.365h.012s-.006-.076-.006-.177v-.53a.115.115 0 0 0-.13-.13h-.236v-.637h.713c.277 0 .4.124.4.4v3.024a.118.118 0 0 0 .13.13h.23v.631h-.689c-.271 0-.372-.13-.372-.306v-.112h-.012a1.033 1.033 0 0 1-.937.49 1.389 1.389 0 0 1-1.338-1.574 1.407 1.407 0 0 1 1.368-1.574zm.89 1.568c0-.466-.241-.925-.743-.925-.412 0-.755.336-.755.931 0 .572.3.943.743.943.389.005.755-.283.755-.949z" transform="translate(-1034.498 -440.744)" fill="#fff"/><path id="Path_69104" data-name="Path 69104" d="M1181.1 474.515a.116.116 0 0 0-.13-.13h-.236v-.637h.713c.277 0 .4.124.4.4v1.845a.118.118 0 0 0 .129.13h.236v.631h-.713c-.277 0-.4-.118-.4-.4zm.037-1.945h.648v.69h-.648z" transform="translate(-1129.513 -440.744)" fill="#fff"/><path id="Path_69105" data-name="Path 69105" d="M485.871 348.808a1.426 1.426 0 0 1-.4 1.029 1.318 1.318 0 0 1-.992.413 1.429 1.429 0 0 1-1.056-.426 1.556 1.556 0 0 1 0-2.136 1.492 1.492 0 0 1 1.62-.314 1.513 1.513 0 0 1 .484.335l-.357.39a1.081 1.081 0 0 0-.324-.229.892.892 0 0 0-.368-.076.818.818 0 0 0-.63.276 1.059 1.059 0 0 0 0 1.372.821.821 0 0 0 .63.273.785.785 0 0 0 .781-.577h-.845v-.517h1.446c0 .022.005.051.007.085s.004.068.004.102z" transform="translate(-457.427 -320.039)" fill="#f39422"/><path id="Path_69106" data-name="Path 69106" d="M574.968 351.325h-.568v-2.9h.958a1.164 1.164 0 0 1 .766.24.782.782 0 0 1 .291.634.8.8 0 0 1-.509.776l.679 1.256h-.615l-.588-1.111h-.413zm.861-2.006a.348.348 0 0 0-.121-.278.491.491 0 0 0-.331-.1h-.409v.764h.411a.5.5 0 0 0 .331-.1.347.347 0 0 0 .119-.286z" transform="translate(-545.467 -321.157)" fill="#f39422"/><path id="Path_69107" data-name="Path 69107" d="M647.888 351.325h-1.828v-2.9h1.828v.517h-1.247v.644h1.136v.518h-1.136v.708h1.247z" transform="translate(-614.494 -321.157)" fill="#f39422"/><path id="Path_69108" data-name="Path 69108" d="M705.9 351.325h-.6l-.235-.6H703.8l-.233.6H703l1.162-2.9h.572zm-1.461-2.218-.433 1.12h.865z" transform="translate(-669.341 -321.157)" fill="#f39422"/><path id="Path_69109" data-name="Path 69109" d="M777.653 348.937h-.853v-.517h2.286v.517h-.852v2.389h-.581z" transform="translate(-740.429 -321.157)" fill="#f39422"/><path id="Path_69110" data-name="Path 69110" d="M577.258 689.321a.094.094 0 0 1-.035-.184l.7-.272a.652.652 0 0 1 .238-.045h1.759a.095.095 0 0 1 0 .189h-1.76a.464.464 0 0 0-.169.032l-.7.273a.1.1 0 0 1-.033.007z" transform="translate(-548.125 -649.046)" fill="#fff"/><path id="Path_69111" data-name="Path 69111" d="m499.83 677.286.629.4-.081.671.613.283.016.748c.181-.7 1.192-.417 1.884-1.006a1.263 1.263 0 0 0-1.218-2.178c-.864.286-1.151 1.296-1.843 1.082z" transform="translate(-473.638 -636.828)" fill="#f39422"/><path id="Path_69112" data-name="Path 69112" d="M675.315 689.36a.1.1 0 0 1-.034-.006l-.7-.273a.465.465 0 0 0-.169-.032h-1.759a.095.095 0 1 1 0-.189h1.759a.651.651 0 0 1 .237.045l.7.272a.094.094 0 0 1-.034.184z" transform="translate(-640.02 -649.084)" fill="#fff"/><path id="Path_69113" data-name="Path 69113" d="m735.191 677.277-.629.4.081.671-.613.283-.016.748c-.18-.7-1.191-.417-1.884-1.006a1.263 1.263 0 0 1 1.218-2.179c.863.286 1.152 1.296 1.843 1.083z" transform="translate(-696.954 -636.819)" fill="#f39422"/><path id="Path_69114" data-name="Path 69114" d="M549.81 793.934s-.833-.191-.684.515c.228 1.078 1.7 1.042 1.7 1.042z" transform="translate(-521.104 -750.274)" fill="#537ec5"/><path id="Path_69115" data-name="Path 69115" d="M568.21 787.2s.4-.529.715-.134c.361.444.015 1.3.294 1.691z" transform="translate(-539.505 -743.539)" fill="#f39422"/><path id="Path_69116" data-name="Path 69116" d="M728.111 793.934s.833-.191.684.515c-.228 1.078-1.7 1.042-1.7 1.042z" transform="translate(-692.555 -750.274)" fill="#537ec5"/><path id="Path_69117" data-name="Path 69117" d="M728.149 787.2s-.4-.529-.715-.134c-.36.444-.015 1.3-.294 1.691z" transform="translate(-692.594 -743.539)" fill="#f39422"/><path id="Path_69118" data-name="Path 69118" d="M424.34 690.831a1.384 1.384 0 0 1-.621-1.571s.815.267.621 1.571z" transform="translate(-400.247 -649.47)" fill="#537ec5"/><path id="Path_69119" data-name="Path 69119" d="M622.69 655.739s1.05-.09 1.173.85c0 .001-.769.26-1.173-.85z" transform="translate(-591.982 -617.178)" fill="#537ec5"/><path id="Path_69120" data-name="Path 69120" d="M673 655.739s-1.05-.09-1.174.85c.004.001.774.26 1.174-.85z" transform="translate(-639.316 -617.178)" fill="#537ec5"/><path id="Path_69121" data-name="Path 69121" d="M655.844 630.22a1.436 1.436 0 0 0-.045 1.726s.675-.546.045-1.726z" transform="translate(-623.599 -592.6)" fill="#537ec5"/><path id="Path_69122" data-name="Path 69122" d="M471.381 739.934a1 1 0 0 1 .252-1.134s.335.461-.252 1.134z" transform="translate(-446.158 -697.189)" fill="#537ec5"/><path id="Path_69123" data-name="Path 69123" d="M411.286 736.463a2.439 2.439 0 0 1-.7-.1 2.313 2.313 0 0 1-1.415-1.3 1.108 1.108 0 0 0-.5-.519.879.879 0 0 0-1.015.187.094.094 0 0 1-.123-.143 1.058 1.058 0 0 1 1.22-.214 1.3 1.3 0 0 1 .585.607 2.13 2.13 0 0 0 1.3 1.2 3.55 3.55 0 0 0 2.444-.425.1.1 0 1 1 .1.162 4.129 4.129 0 0 1-1.9.545z" transform="translate(-384.706 -692.829)" fill="#fff"/><path id="Path_69124" data-name="Path 69124" d="M449.022 719.158a.1.1 0 0 1-.092-.071 1.173 1.173 0 0 1 .06-.909.716.716 0 0 1 .406-.324.095.095 0 0 1 .046.184c-.024.006-.551.157-.331 1a.094.094 0 0 1-.067.115z" transform="translate(-424.552 -677.01)" fill="#fff"/><path id="Path_69125" data-name="Path 69125" d="M878.5 690.879a1.38 1.38 0 0 0 .622-1.569s-.822.264-.622 1.569z" transform="translate(-838.36 -649.518)" fill="#537ec5"/><path id="Path_69126" data-name="Path 69126" d="M839.421 739.934a1 1 0 0 0-.252-1.134s-.336.461.252 1.134z" transform="translate(-800.413 -697.189)" fill="#537ec5"/><path id="Path_69127" data-name="Path 69127" d="M760.533 736.459a4.145 4.145 0 0 1-1.9-.541.1.1 0 0 1 .1-.162 3.557 3.557 0 0 0 2.445.425 2.132 2.132 0 0 0 1.3-1.2 1.3 1.3 0 0 1 .585-.607 1.057 1.057 0 0 1 1.22.214.094.094 0 1 1-.123.143.879.879 0 0 0-1.015-.187 1.109 1.109 0 0 0-.5.521 2.308 2.308 0 0 1-1.415 1.3 2.444 2.444 0 0 1-.7.094z" transform="translate(-722.883 -692.825)" fill="#fff"/><path id="Path_69128" data-name="Path 69128" d="M856.09 719.14h-.024a.094.094 0 0 1-.068-.115 1 1 0 0 0-.04-.765.536.536 0 0 0-.29-.237.1.1 0 0 1 .046-.184.717.717 0 0 1 .4.324 1.175 1.175 0 0 1 .06.909.1.1 0 0 1-.084.068z" transform="translate(-816.33 -676.992)" fill="#fff"/><path id="Path_69129" data-name="Path 69129" d="M644.17 718.521a.973.973 0 1 1 .717 1.63 2.654 2.654 0 0 1-.717-1.63z" transform="translate(-612.673 -676.084)" fill="#f39422"/><path id="Path_69130" data-name="Path 69130" d="M664.316 716.38a.973.973 0 1 1 1.66.646 2.653 2.653 0 0 1-1.66-.646z" transform="translate(-631.456 -673.994)" fill="#537ec5"/><path id="Path_69131" data-name="Path 69131" d="M601.576 715.367a.973.973 0 1 1-.646 1.659 2.652 2.652 0 0 1 .646-1.659z" transform="translate(-571.022 -673.994)" fill="#537ec5"/><path id="Path_69132" data-name="Path 69132" d="M669.945 257.068a.094.094 0 0 1 .034.184l-.7.273a.649.649 0 0 1-.237.045h-1.759a.094.094 0 0 1 0-.189h1.759a.468.468 0 0 0 .169-.032l.7-.273a.094.094 0 0 1 .034-.008z" transform="translate(-634.847 -233.162)" fill="#fff"/><path id="Path_69133" data-name="Path 69133" d="m729.814 196.945-.628-.4.08-.67-.613-.283-.016-.748c-.18.7-1.191.417-1.884 1.006a1.263 1.263 0 0 0 1.218 2.178c.864-.286 1.152-1.296 1.843-1.083z" transform="translate(-691.776 -173.221)" fill="#f39422"/><path id="Path_69134" data-name="Path 69134" d="M571.9 257.03a.094.094 0 0 1 .034.007l.7.273a.467.467 0 0 0 .169.032h1.759a.094.094 0 1 1 0 .189H572.8a.65.65 0 0 1-.237-.045l-.7-.273a.094.094 0 0 1 .034-.184z" transform="translate(-542.964 -233.124)" fill="#fff"/><path id="Path_69135" data-name="Path 69135" d="m494.46 196.945.629-.4-.081-.67.613-.283.016-.748c.18.7 1.191.417 1.884 1.006a1.263 1.263 0 0 1-1.218 2.178c-.864-.286-1.152-1.296-1.843-1.083z" transform="translate(-468.465 -173.221)" fill="#f39422"/><path id="Path_69136" data-name="Path 69136" d="M727.3 124.2s.833.19.684-.515c-.228-1.078-1.7-1.042-1.7-1.042z" transform="translate(-691.775 -103.681)" fill="#537ec5"/><path id="Path_69137" data-name="Path 69137" d="M727.339 124.207s-.4.529-.715.134c-.361-.444-.016-1.3-.294-1.691z" transform="translate(-691.813 -103.684)" fill="#f39422"/><path id="Path_69138" data-name="Path 69138" d="M549 124.2s-.833.19-.684-.515c.228-1.078 1.7-1.042 1.7-1.042z" transform="translate(-520.324 -103.681)" fill="#537ec5"/><path id="Path_69139" data-name="Path 69139" d="M567.4 124.207s.394.529.715.134c.361-.444.015-1.3.294-1.691z" transform="translate(-538.725 -103.684)" fill="#f39422"/><path id="Path_69140" data-name="Path 69140" d="M878.5 227.58a1.38 1.38 0 0 1 .622 1.569s-.822-.267-.622-1.569z" transform="translate(-838.36 -204.758)" fill="#537ec5"/><path id="Path_69141" data-name="Path 69141" d="M668.554 280.754s-1.05.09-1.174-.85c0-.004.769-.259 1.174.85z" transform="translate(-635.03 -255.133)" fill="#537ec5"/><path id="Path_69142" data-name="Path 69142" d="M618.24 280.754s1.05.09 1.173-.85c0-.004-.769-.259-1.173.85z" transform="translate(-587.696 -255.133)" fill="#537ec5"/><path id="Path_69143" data-name="Path 69143" d="M650.433 284.085a1.436 1.436 0 0 0 .045-1.725s-.678.54-.045 1.725z" transform="translate(-618.447 -257.525)" fill="#537ec5"/><path id="Path_69144" data-name="Path 69144" d="M839.421 189.88a1 1 0 0 1-.252 1.134s-.336-.461.252-1.134z" transform="translate(-800.413 -168.443)" fill="#537ec5"/><path id="Path_69145" data-name="Path 69145" d="M760.634 165.689a2.434 2.434 0 0 1 .7.1 2.307 2.307 0 0 1 1.415 1.295 1.107 1.107 0 0 0 .5.52.88.88 0 0 0 1.015-.187.094.094 0 1 1 .123.143 1.057 1.057 0 0 1-1.22.214 1.3 1.3 0 0 1-.585-.607 2.13 2.13 0 0 0-1.3-1.2 3.551 3.551 0 0 0-2.444.425.1.1 0 0 1-.1-.162 4.14 4.14 0 0 1 1.896-.541z" transform="translate(-722.984 -145.141)" fill="#fff"/><path id="Path_69146" data-name="Path 69146" d="M856.126 206.13a.094.094 0 0 1 .091.071 1.175 1.175 0 0 1-.06.909.716.716 0 0 1-.4.323.095.095 0 1 1-.047-.184c.024-.006.551-.158.331-1a.094.094 0 0 1 .068-.115z" transform="translate(-816.366 -184.096)" fill="#fff"/><path id="Path_69147" data-name="Path 69147" d="M424.34 227.58a1.381 1.381 0 0 0-.621 1.569s.815-.267.621-1.569z" transform="translate(-400.247 -204.758)" fill="#537ec5"/><path id="Path_69148" data-name="Path 69148" d="M471.381 189.88a1 1 0 0 0 .252 1.134s.335-.461-.252-1.134z" transform="translate(-446.158 -168.443)" fill="#537ec5"/><path id="Path_69149" data-name="Path 69149" d="M411.232 165.689a4.141 4.141 0 0 1 1.9.541.1.1 0 0 1-.1.162 3.556 3.556 0 0 0-2.445-.425 2.128 2.128 0 0 0-1.3 1.2 1.3 1.3 0 0 1-.585.607 1.058 1.058 0 0 1-1.22-.214.094.094 0 1 1 .123-.143.879.879 0 0 0 1.015.187 1.107 1.107 0 0 0 .5-.52 2.308 2.308 0 0 1 1.415-1.295 2.437 2.437 0 0 1 .7-.1z" transform="translate(-384.652 -145.141)" fill="#fff"/><path id="Path_69150" data-name="Path 69150" d="M449.022 206.13h.024a.094.094 0 0 1 .067.115 1 1 0 0 0 .04.766.535.535 0 0 0 .29.237.1.1 0 0 1-.046.184.714.714 0 0 1-.406-.323 1.173 1.173 0 0 1-.06-.909.1.1 0 0 1 .091-.07z" transform="translate(-424.552 -184.096)" fill="#fff"/><path id="Path_69151" data-name="Path 69151" d="M640.263 155.54a.973.973 0 1 1-.717-1.63 2.652 2.652 0 0 1 .717 1.63z" transform="translate(-607.529 -133.796)" fill="#f39422"/><path id="Path_69152" data-name="Path 69152" d="M597.249 182.716a2.65 2.65 0 0 1 .646 1.659 2.213 2.213 0 0 1-2.306-2.306 2.65 2.65 0 0 1 1.66.647z" transform="translate(-565.879 -160.92)" fill="#537ec5"/><path id="Path_69153" data-name="Path 69153" d="M659.98 183.729a2.651 2.651 0 0 1-1.66.646 2.213 2.213 0 0 1 2.306-2.306 2.653 2.653 0 0 1-.646 1.66z" transform="translate(-626.303 -160.921)" fill="#537ec5"/></g></g></g></g></svg>