<svg xmlns:xlink="http://www.w3.org/1999/xlink" xmlns="http://www.w3.org/2000/svg" width="76" height="76" viewBox="0 0 60.56 60.56"><defs><linearGradient id="linear-gradient" x1=".155" y1=".161" x2=".813" y2=".914" gradientUnits="objectBoundingBox"><stop offset="0" stop-color="#ff720b"/><stop offset="1" stop-color="#c216e2"/></linearGradient></defs><g id="indian_sel" transform="translate(7357.76 9722.46)"><path id="Subtraction_91" data-name="Subtraction 91" d="M30.28 0A30.28 30.28 0 1 1 0 30.28 30.28 30.28 0 0 1 30.28 0z" transform="translate(-7357.76 -9722.46)" fill="url(#linear-gradient)"/><g id="THE_GREAT_INDIAN_KHICHDI_LOGO-01-01" data-name="THE GREAT INDIAN KHICHDI LOGO-01-01" transform="translate(-7359.594 -9724.429)"><path id="Path_69089" data-name="Path 69089" d="M32.116 49.484a2.5 2.5 0 0 1-1.427-.441c-1.591-1.1-4.972-1.964-9.277-2.376-4.965-.479-6.212-3.127-6.505-4.667a1.192 1.192 0 0 0-1.078-.9 6.5 6.5 0 0 1-4.687-2.169 5.034 5.034 0 0 1-1.021-3.12l.091-7.611a4.25 4.25 0 0 1 .427-1.833 4.537 4.537 0 0 1 .545-.852 6.556 6.556 0 0 1 4.643-2.115 1.191 1.191 0 0 0 1.078-.905c.3-1.537 1.541-4.187 6.505-4.664 4.305-.413 7.687-1.279 9.278-2.376a2.529 2.529 0 0 1 2.853 0c1.591 1.1 4.973 1.964 9.277 2.376 4.965.478 6.208 3.126 6.505 4.664a1.192 1.192 0 0 0 1.077.905 6.555 6.555 0 0 1 4.643 2.117 4.741 4.741 0 0 1 .966 2.12l.073.727a4.929 4.929 0 0 1 .025.5v6.949a5.022 5.022 0 0 1-1.021 3.12A6.5 6.5 0 0 1 50.4 41.1a1.192 1.192 0 0 0-1.075.9c-.3 1.537-1.541 4.187-6.5 4.664-4.3.414-7.686 1.28-9.278 2.377a2.5 2.5 0 0 1-1.431.443z" fill="#e3929f"/><path id="Subtraction_95" data-name="Subtraction 95" d="M5671.972 10409.4a1.9 1.9 0 0 1-1.079-.333c-1.677-1.155-5.165-2.061-9.567-2.483a7.815 7.815 0 0 1-4.553-1.687 4.39 4.39 0 0 1-1.408-2.479 1.807 1.807 0 0 0-1.62-1.4c-4.485-.452-5.154-3.125-5.154-4.679v-7.2c.023-1.526.724-4.153 5.154-4.6a1.806 1.806 0 0 0 1.62-1.4 4.4 4.4 0 0 1 1.4-2.479 7.765 7.765 0 0 1 4.556-1.687c4.4-.423 7.888-1.327 9.567-2.481a1.868 1.868 0 0 1 1.076-.335 1.9 1.9 0 0 1 1.076.335c1.681 1.155 5.169 2.059 9.569 2.479a7.812 7.812 0 0 1 4.554 1.688 4.4 4.4 0 0 1 1.409 2.482 1.808 1.808 0 0 0 1.62 1.4c4.43.446 5.131 3.073 5.154 4.6v7.2c0 1.554-.675 4.227-5.154 4.679a1.811 1.811 0 0 0-1.62 1.4 4.417 4.417 0 0 1-1.408 2.477 7.845 7.845 0 0 1-4.555 1.689c-4.405.423-7.893 1.328-9.565 2.484a1.921 1.921 0 0 1-1.076.327zm2.989-5.491a.341.341 0 0 0-.267.146 1.426 1.426 0 0 0-.176.932 1.423 1.423 0 0 1-.1.727l-.021.03h.018c.149 0 1.462-.029 1.675-1.043a.458.458 0 0 0-.057-.395.5.5 0 0 0-.4-.145 1.1 1.1 0 0 0-.226.024.655.655 0 0 0-.445-.291zm-6.632.258a.508.508 0 0 0-.4.145.453.453 0 0 0-.059.394c.216 1.014 1.529 1.043 1.678 1.043h.018l-.021-.031a1.454 1.454 0 0 1-.1-.734 1.433 1.433 0 0 0-.175-.929.345.345 0 0 0-.269-.146.682.682 0 0 0-.445.278 1.946 1.946 0 0 0-.225-.024zm3.021-1.186a4.519 4.519 0 0 1 3.022.579 2.306 2.306 0 1 0-4.611 0 2.735 2.735 0 0 0 1.587-.579zm4.3.464a.084.084 0 0 0-.046.011.089.089 0 0 0-.048.084.1.1 0 0 0 .05.085 4.063 4.063 0 0 0 1.9.541 2.5 2.5 0 0 0 .7-.1 2.3 2.3 0 0 0 1.417-1.3 1.1 1.1 0 0 1 .5-.521.836.836 0 0 1 .369-.09 1 1 0 0 1 .647.277.091.091 0 0 0 .062.024.1.1 0 0 0 .1-.079.1.1 0 0 0-.035-.089 1.187 1.187 0 0 0-.771-.322 1.01 1.01 0 0 0-.449.108 1.142 1.142 0 0 0-.272.185.957.957 0 0 0-.117-.57.724.724 0 0 0-.4-.325.051.051 0 0 0-.021 0 .094.094 0 0 0-.095.073.086.086 0 0 0 .01.069.1.1 0 0 0 .058.045.54.54 0 0 1 .291.237 1 1 0 0 1 .044.748 1.081 1.081 0 0 0-.082.147 2.137 2.137 0 0 1-1.3 1.2 2.274 2.274 0 0 1-.638.088 4.062 4.062 0 0 1-1.807-.51.094.094 0 0 0-.066-.021zm-12.2-1.282a.851.851 0 0 1 .369.091 1.12 1.12 0 0 1 .5.519 2.328 2.328 0 0 0 1.416 1.3 2.428 2.428 0 0 0 .7.1 4.084 4.084 0 0 0 1.9-.54.094.094 0 0 0 .048-.107.093.093 0 0 0-.094-.07.1.1 0 0 0-.048.015 4.024 4.024 0 0 1-1.807.512 2.2 2.2 0 0 1-.638-.087 2.124 2.124 0 0 1-1.3-1.2 1.078 1.078 0 0 0-.081-.147c-.191-.774.247-.955.335-.983a.092.092 0 0 0 .058-.041.1.1 0 0 0 .012-.075.1.1 0 0 0-.091-.069h-.024a.725.725 0 0 0-.407.324.979.979 0 0 0-.118.566 1.232 1.232 0 0 0-.27-.182 1 1 0 0 0-.449-.109 1.179 1.179 0 0 0-.771.322.1.1 0 0 0-.033.064.092.092 0 0 0 .022.068.094.094 0 0 0 .133.011 1 1 0 0 1 .649-.283zm15.155-.021c-.015.021-.322.478.251 1.134a1.01 1.01 0 0 0-.256-1.134zm-13.282 0a1 1 0 0 0-.253 1.134c.574-.659.266-1.116.252-1.134zm.717-1.153.629.4-.081.672.614.282.016.747c.1-.39.458-.476.872-.575a2.3 2.3 0 0 0 1.011-.43 1.31 1.31 0 0 0 .378-1.472l.232-.092a.481.481 0 0 1 .17-.031h1.758a.1.1 0 1 0 0-.192h-1.758a.622.622 0 0 0-.238.046l-.243.095a1.291 1.291 0 0 0-1.518-.535 2.308 2.308 0 0 0-.9.638c-.253.253-.472.471-.76.471a.633.633 0 0 1-.176-.028zm6.444-.682a.093.093 0 1 0 0 .187h1.758a.481.481 0 0 1 .17.031l.232.092a1.308 1.308 0 0 0 .379 1.471 2.318 2.318 0 0 0 1.011.43c.415.1.772.187.873.576l.016-.747.614-.282-.081-.672.63-.4a.573.573 0 0 1-.186.03c-.29 0-.508-.219-.762-.472a2.318 2.318 0 0 0-.9-.638 1.291 1.291 0 0 0-1.518.535l-.243-.094a.657.657 0 0 0-.237-.044zm-9.165.013a1.388 1.388 0 0 0 .622 1.572c.188-1.265-.587-1.561-.621-1.572zm17.286 0a.829.829 0 0 0-.351.256 1.564 1.564 0 0 0-.268 1.313 1.393 1.393 0 0 0 .614-1.57zm-8.245-.382a.73.73 0 0 0 .2.026c.246 0 .7-.113.974-.875h-.074a1.022 1.022 0 0 0-1.1.853zm-1.73-.852h-.075c.279.761.732.875.977.875a.722.722 0 0 0 .194-.025 1.017 1.017 0 0 0-1.088-.853zm1.461-.938a1.424 1.424 0 0 0-.043 1.724s.67-.549.042-1.725zm16.717-4.687a1.592 1.592 0 0 0-.029 3.148 1.043 1.043 0 0 0 .934-.489h.016v.109c0 .141.064.309.371.309h.69v-.633h-.246a.115.115 0 0 1-.082-.031.138.138 0 0 1-.033-.1v-3.026c0-.276-.123-.4-.4-.4h-.713v.638h.235a.114.114 0 0 1 .129.128v.689a.028.028 0 0 1 0 .016h-.011a.974.974 0 0 0-.854-.361zm-6.648 0a1.575 1.575 0 1 0-.021 3.148h.019a1.747 1.747 0 0 0 1.25-.542l-.312-.519a1.357 1.357 0 0 1-.891.406.932.932 0 0 1-.047-1.86c.167 0 .431.063.431.234v.164h.661v-.353c.006-.5-.649-.682-1.083-.682zm-17.78 1.191c-.537 0-1.784.1-1.784 1.021a.954.954 0 0 0 1.024.936.992.992 0 0 0 .905-.528h.015v.131c0 .1.038.331.384.331h.671v-.632h-.25a.116.116 0 0 1-.081-.035.114.114 0 0 1-.034-.094v-1.12c0-.8-.424-1.2-1.3-1.2-.332 0-1.1.061-1.1.619v.318h.695v-.159c0-.159.251-.2.4-.2.4 0 .556.17.556.588v.023zm-5.852-1.191a1.592 1.592 0 0 0-.029 3.148 1.032 1.032 0 0 0 .936-.488h.013v.109c0 .2.128.309.371.309h.689v-.633h-.248a.116.116 0 0 1-.08-.031.126.126 0 0 1-.034-.1v-3.026c0-.276-.124-.4-.4-.4h-.713v.638h.235a.118.118 0 0 1 .1.031.115.115 0 0 1 .034.1v.705h-.013a.984.984 0 0 0-.85-.361zm25.288-.47c.09 0 .13.039.13.128v3.42h.745v-1.38a1.325 1.325 0 0 1 .047-.389.844.844 0 0 1 .815-.625c.331 0 .478.188.478.611v1.38c0 .282.118.4.4.4h.713v-.633h-.25a.112.112 0 0 1-.086-.038.114.114 0 0 1-.029-.09v-1.173c0-.771-.343-1.145-1.05-1.145a1.149 1.149 0 0 0-1.032.6h-.01v-.057c0-.069.008-.134.008-.2v-1.056c0-.272-.123-.395-.4-.395h-.713v.638zm-8.689 0a.111.111 0 0 1 .1.031.113.113 0 0 1 .032.1v3.42h.75v-1.38a1.232 1.232 0 0 1 .047-.388.843.843 0 0 1 .813-.627c.335 0 .478.184.478.612v1.38c0 .282.118.4.4.4h.713v-.633h-.251a.126.126 0 0 1-.082-.032.111.111 0 0 1-.033-.1v-1.173c0-.76-.354-1.145-1.05-1.145a1.155 1.155 0 0 0-1.032.6v-.056c0-.069.008-.134.008-.2v-1.056c0-.272-.123-.395-.4-.395h-.713v.638zm-9.068 1.178a.115.115 0 0 1 .13.127v2.243h.742v-1.38a1.164 1.164 0 0 1 .059-.4.83.83 0 0 1 .809-.61c.417 0 .473.309.473.611v1.382c0 .28.12.4.4.4h.716v-.633h-.253a.12.12 0 0 1-.079-.031.115.115 0 0 1-.034-.1v-1.174c0-.76-.354-1.145-1.05-1.145a1.172 1.172 0 0 0-1.061.625h-.013a1.08 1.08 0 0 0 .013-.131v-.086c0-.221-.136-.337-.4-.337h-.69v.637zm-12.519 0a.115.115 0 0 1 .13.127v2.243h.739v-1.38a1.26 1.26 0 0 1 .06-.4.826.826 0 0 1 .811-.611c.33 0 .47.184.47.612v1.382c0 .28.12.4.4.4h.713v-.633h-.251a.11.11 0 0 1-.078-.03.115.115 0 0 1-.035-.1v-1.173c0-.76-.354-1.145-1.05-1.145a1.147 1.147 0 0 0-1.061.626h-.014a1.08 1.08 0 0 0 .013-.131v-.086c0-.221-.136-.337-.4-.337h-.689v.637zm-2.152 1.714v.656h1.567v-.656h-.418V10393h.418v-.653h-1.567v.653h.418v2.876zm39.915-1.714a.115.115 0 0 1 .128.128v1.842c0 .28.118.4.4.4h.713v-.633h-.25a.115.115 0 0 1-.082-.031.138.138 0 0 1-.033-.1v-1.848c0-.276-.122-.4-.4-.4h-.713v.637zm-12.357 0a.117.117 0 0 1 .1.032.116.116 0 0 1 .033.1v1.842c0 .28.119.4.4.4h.713v-.633h-.251a.119.119 0 0 1-.082-.03.131.131 0 0 1-.033-.1v-1.848c0-.276-.122-.4-.4-.4h-.713v.637zm-17.926 0a.111.111 0 0 1 .1.032.114.114 0 0 1 .034.095v1.843c0 .28.118.4.4.4h.713v-.633H5662a.123.123 0 0 1-.079-.031.136.136 0 0 1-.034-.1v-1.847c0-.276-.122-.4-.4-.4h-.713v.637zm10.486-1.162h.01a.122.122 0 0 1 .085.034.109.109 0 0 1 .035.1v3.4h.771v-1.825h.249c.177 0 .3.01.366.142l.682 1.374c.13.266.261.311.585.311h.441v-.653h-.11c-.129 0-.232-.01-.295-.136l-.531-1.065a.543.543 0 0 0-.271-.289v-.012a.858.858 0 0 0 .261-.3l.94-1.723h-.847l-.844 1.567c-.076.126-.192.136-.337.136h-.292v-1.3c0-.28-.12-.4-.4-.4h-.755v.653zm19.961-.653v.689h.648v-.689zm-12.357 0v.689h.65v-.689zm-17.924 0v.689h.65v-.689zm5.716-4.605a1.43 1.43 0 0 0-1.056.429 1.553 1.553 0 0 0 0 2.136 1.442 1.442 0 0 0 1.056.427 1.337 1.337 0 0 0 .994-.415 1.444 1.444 0 0 0 .4-1.028.052.052 0 0 0 0-.02v-.081a.157.157 0 0 1 0-.03v-.009a.985.985 0 0 0 0-.047h-1.444v.517h.844a.782.782 0 0 1-.758.579h-.039a.824.824 0 0 1-.611-.274 1.055 1.055 0 0 1 0-1.372.814.814 0 0 1 .619-.276h.011a.925.925 0 0 1 .366.078 1.047 1.047 0 0 1 .324.228l.358-.39a1.535 1.535 0 0 0-.483-.334 1.462 1.462 0 0 0-.573-.117zm7.767.042-1.163 2.907h.572l.229-.6h1.257l.235.6h.6l-1.16-2.907zm2.4.52v2.388h.58v-2.388h.854v-.52h-2.286v.52zm-5.659-.52v2.907h1.829v-.52H5672v-.708h1.137v-.518H5672v-.643h1.247v-.52zm-2.633 0v2.907h.57v-1.111h.413l.588 1.112h.614l-.679-1.257a.842.842 0 0 0 .22-1.409 1.18 1.18 0 0 0-.765-.24zm3.1-2.428c-.027.023-.657.579-.047 1.724a1.438 1.438 0 0 0 .046-1.725zm.515-.091a.727.727 0 0 0-.2.027 1.017 1.017 0 0 0 1.1.852h.076c-.268-.766-.722-.88-.968-.88zm-1.029 0c-.246 0-.7.113-.975.875h.076a1.016 1.016 0 0 0 1.1-.852.712.712 0 0 0-.192-.024zm3.156-.479a1.4 1.4 0 0 0 1.1.605 1.318 1.318 0 0 0 .426-.068 2.358 2.358 0 0 0 .9-.634c.252-.255.473-.475.761-.475a.668.668 0 0 1 .186.028l-.627-.4.078-.671-.611-.282-.018-.75c-.1.388-.453.474-.859.574h-.013a2.307 2.307 0 0 0-1.012.431 1.324 1.324 0 0 0-.378 1.47l-.232.091a.513.513 0 0 1-.167.033h-1.761a.092.092 0 0 0-.094.092.094.094 0 0 0 .025.069.093.093 0 0 0 .069.029h1.761a.686.686 0 0 0 .235-.044l.24-.1zm-8.493-.571c.29 0 .508.218.76.47a2.3 2.3 0 0 0 .895.633 1.345 1.345 0 0 0 .426.07 1.411 1.411 0 0 0 1.094-.605l.241.094a.7.7 0 0 0 .237.044h1.758a.1.1 0 0 0 .094-.095.094.094 0 0 0-.028-.066.089.089 0 0 0-.066-.026h-1.758a.377.377 0 0 1-.17-.034l-.232-.089a1.322 1.322 0 0 0-.379-1.47 2.281 2.281 0 0 0-1.012-.43c-.415-.1-.772-.188-.873-.577l-.016.75-.614.282.078.671-.627.4a.687.687 0 0 1 .2-.023zm13.958-.873c-.187 1.256.588 1.558.622 1.57a1.389 1.389 0 0 0-.614-1.572zm-16.045 0a1.386 1.386 0 0 0-.622 1.569c.006.001.81-.289.621-1.569zm5.62-1.672a2.208 2.208 0 0 0 2.3 2.3h.008a2.209 2.209 0 0 0 2.3-2.3 2.738 2.738 0 0 0-1.588.578 2.693 2.693 0 0 0-.716-1.611 2.7 2.7 0 0 0-.713 1.613 2.735 2.735 0 0 0-1.584-.582zm7.944-.413a2.2 2.2 0 0 1 .637.09 2.124 2.124 0 0 1 1.3 1.2 1.076 1.076 0 0 0 .083.15.945.945 0 0 1-.081.8.536.536 0 0 1-.254.18.108.108 0 0 0-.061.045.084.084 0 0 0-.011.07.1.1 0 0 0 .091.071.065.065 0 0 0 .024 0 .692.692 0 0 0 .4-.321 1 1 0 0 0 .118-.571 1.159 1.159 0 0 0 .269.186 1.026 1.026 0 0 0 .449.109 1.172 1.172 0 0 0 .771-.322.1.1 0 0 0 .012-.136.1.1 0 0 0-.071-.03.087.087 0 0 0-.062.023 1 1 0 0 1-.648.275.85.85 0 0 1-.369-.09 1.087 1.087 0 0 1-.416-.375v-.009a1.253 1.253 0 0 1-.077-.137 2.317 2.317 0 0 0-1.416-1.3 2.425 2.425 0 0 0-.695-.1 4.051 4.051 0 0 0-1.9.542.1.1 0 0 0-.035.131.1.1 0 0 0 .083.046.089.089 0 0 0 .047-.014 4.077 4.077 0 0 1 1.822-.517zm-13.339 1.709a.944.944 0 0 0 .12.565.7.7 0 0 0 .4.325.046.046 0 0 0 .023 0 .092.092 0 0 0 .091-.07.1.1 0 0 0-.066-.114.536.536 0 0 1-.291-.239.973.973 0 0 1-.044-.747 1.8 1.8 0 0 0 .081-.146 2.1 2.1 0 0 1 1.3-1.2 2.182 2.182 0 0 1 .635-.089 4 4 0 0 1 1.808.512.1.1 0 0 0 .144-.1.117.117 0 0 0-.044-.062 4.122 4.122 0 0 0-1.9-.541 2.429 2.429 0 0 0-.7.1 2.312 2.312 0 0 0-1.416 1.3l-.01.02c-.019.035-.037.069-.06.108l-.006.006v.006a1.092 1.092 0 0 1-.415.375.865.865 0 0 1-.366.088 1 1 0 0 1-.648-.273.1.1 0 0 0-.064-.029.082.082 0 0 0-.027 0 .093.093 0 0 0-.03.165 1.18 1.18 0 0 0 .768.322 1.039 1.039 0 0 0 .453-.107 1.341 1.341 0 0 0 .264-.184zm14.689-1.009c-.576.658-.264 1.115-.251 1.134a1 1 0 0 0 .252-1.132zm-13.783 0a1 1 0 0 0 .25 1.134c.031-.049.3-.498-.251-1.134zm9.289-2.471.04.059a1.563 1.563 0 0 1 .081.693v.007a1.417 1.417 0 0 0 .176.93.346.346 0 0 0 .268.146.683.683 0 0 0 .444-.279h.015a1.429 1.429 0 0 0 .214.021.512.512 0 0 0 .4-.143.458.458 0 0 0 .058-.395c-.214-1.013-1.53-1.042-1.681-1.042h-.017zm-5.841 1.554a.683.683 0 0 0 .447.282.35.35 0 0 0 .269-.147 1.41 1.41 0 0 0 .176-.923v-.023a1.517 1.517 0 0 1 .082-.686l.04-.057h-.018c-.149 0-1.463.029-1.677 1.042a.449.449 0 0 0 .058.394.513.513 0 0 0 .4.143 1.145 1.145 0 0 0 .224-.021zm-4.718 14.979a.4.4 0 0 1-.455-.389c0-.313.339-.473 1.008-.473h.131v.07a.776.776 0 0 1-.674.791zm25.142-.047c-.445 0-.744-.38-.744-.945 0-.643.379-.93.755-.93.512 0 .745.479.745.925.008.7-.4.949-.748.949zm-30.28 0c-.445 0-.745-.38-.745-.945 0-.643.379-.93.755-.93.512 0 .745.479.745.925.008.7-.4.949-.747.949zm16.711-6.382h-.865l.431-1.118.431 1.115zm-5.614-.525h-.41v-.763h.407a.493.493 0 0 1 .332.1.35.35 0 0 1 .121.28.361.361 0 0 1-.118.276.528.528 0 0 1-.323.106z" transform="translate(-5639.854 -10360.525)" fill="#fff"/></g></g></svg>