<svg xmlns:xlink="http://www.w3.org/1999/xlink" xmlns="http://www.w3.org/2000/svg" viewBox="4.2 4.2 67.15 67.15" width="67.15"  height="67.15" ><defs><linearGradient id="linear-gradient" x1=".155" y1=".161" x2=".813" y2=".914" gradientUnits="objectBoundingBox"><stop offset="0" stop-color="#ff720b"/><stop offset="1" stop-color="#c216e2"/></linearGradient></defs><g id="Group_62932" data-name="Group 62932" transform="translate(-638 -1059)"><g id="Group_62887" data-name="Group 62887" transform="translate(642.197 1063.197)"><path id="Path_68466" data-name="Path 68466" d="M33.576 0A33.576 33.576 0 1 1 0 33.576 33.576 33.576 0 0 1 33.576 0z" fill="#fff"/><g id="Layer_1" data-name="Layer 1" transform="translate(-81.842 -217.035)"><g id="_Group_" data-name="&lt;Group&gt;" transform="translate(89.4 234.8)" fill="#2c2e35"><path id="_Compound_Path_" data-name="&lt;Compound Path&gt;" d="M98.773 260.741v-7.689h-5.015v7.689H89.4v-18.562h4.358v7.221h5.015v-7.224h9.506c5.244 0 6.906 3.346 6.906 5.436 0 2.534-2.142 5.436-6.9 5.436l5.776 5.776 27.251-24.024h.576l-25.912 25.941h-3.641l-7.689-7.689v-3.642h1.876l2.478-.01a1.852 1.852 0 1 0 0-3.575h-5.872v14.913zm27.869-10.009 7.807 9.994-5.532.007-5.385-6.892zm-6.67-8.539 4.092 5.237-3.361 2.777-6.271-8.022z" transform="translate(-89.4 -234.8)" fill-rule="evenodd"/><path id="_Path_" data-name="&lt;Path&gt;" d="M388.649 234.8h.524l-26.583 23.215-4.89-4.757a7.482 7.482 0 0 0 1.588-.214l3.294 3.294q13.03-10.78 26.067-21.538z" transform="translate(-337.882 -234.8)"/><path id="_Path_2" data-name="&lt;Path&gt;" d="M729.6 547.285a1.485 1.485 0 1 1 1.485 1.485 1.485 1.485 0 0 1-1.485-1.485z" transform="translate(-682.312 -522.828)"/><path id="_Compound_Path_2" data-name="&lt;Compound Path&gt;" d="M738.7 555.247V553.4h.82a1.016 1.016 0 0 1 .369.052.369.369 0 0 1 .207.17.505.505 0 0 1 .081.281.451.451 0 0 1-.133.332.644.644 0 0 1-.391.17.852.852 0 0 1 .148.1 1.144 1.144 0 0 1 .207.244l.318.5h-.31l-.244-.384a2.352 2.352 0 0 0-.17-.251.741.741 0 0 0-.125-.126.44.44 0 0 0-.111-.052.946.946 0 0 0-.14-.007h-.281v.82zm.244-1.034h.524a.94.94 0 0 0 .266-.029.3.3 0 0 0 .192-.281.267.267 0 0 0-.1-.214.436.436 0 0 0-.3-.089h-.584z" transform="translate(-690.74 -529.867)" fill-rule="evenodd"/></g></g></g></g></svg>