<svg xmlns:xlink="http://www.w3.org/1999/xlink" xmlns="http://www.w3.org/2000/svg" id="New_Popular" data-name="New &amp; Popular" width="51.556" height="51.556" viewBox="0 0 51.556 51.556"><defs><linearGradient id="linear-gradient" x1=".102" y1=".06" x2=".889" y2=".916" gradientUnits="objectBoundingBox"><stop offset="0" stop-color="#fa6b1c"/><stop offset="1" stop-color="#c61cd4"/></linearGradient></defs><path id="Path_71911" data-name="Path 71911" d="M25.778 0A25.778 25.778 0 1 1 0 25.778 25.778 25.778 0 0 1 25.778 0z" fill="#fff"/><g id="noun-brand-4326167" transform="translate(11.032 10.723)"><path id="Union_54" data-name="Union 54" d="M15339.79 2463.042c-.489-1.956-1.052-2.514-3-3a.165.165 0 0 1 0-.32c1.952-.493 2.515-1.051 3-3a.163.163 0 0 1 .157-.123.166.166 0 0 1 .162.123c.493 1.952 1.051 2.51 3 3a.165.165 0 0 1 0 .32c-1.952.489-2.51 1.047-3 3a.166.166 0 0 1-.162.123.163.163 0 0 1-.157-.123zm-20.1-6.638a11.871 11.871 0 1 1 8.391 3.473 11.872 11.872 0 0 1-8.388-3.477zm-3.008-17.289c-.462-1.833-.985-2.361-2.822-2.823a.153.153 0 0 1 0-.3c1.837-.462 2.36-.99 2.822-2.823a.157.157 0 0 1 .15-.119.16.16 0 0 1 .15.119c.462 1.833.985 2.36 2.822 2.823a.153.153 0 0 1 0 .3c-1.837.462-2.36.99-2.822 2.823a.16.16 0 0 1-.15.119.157.157 0 0 1-.146-.119z" transform="translate(-15313.746 -2433.055)" fill="url(#linear-gradient)"/><g id="noun-trending-4115774" transform="translate(-174.353 -43.616)"><path id="Path_71919" data-name="Path 71919" d="M190.09 64.221a5.589 5.589 0 0 0-1.322-7.056l.009.022v.017a4.107 4.107 0 0 1-.151 3.277l-.353.716-.108-.791a3.356 3.356 0 0 0-.588-1.487h-.049l-.026-.073a5.8 5.8 0 0 1-.508 2.389 3.348 3.348 0 0 0 .175 3.076l.382.641-.688-.291a4.584 4.584 0 0 1-2.24-6.448 6.62 6.62 0 0 0 .713-1.951l.128-.663.326.592a3.4 3.4 0 0 1 .342.908l.007.008.008.051h.007A8.368 8.368 0 0 0 187.8 52.6l.022-.424.356.232a6.356 6.356 0 0 1 2.772 4.17l.007.035v.005l.016-.023a2.126 2.126 0 0 0 .435-1.293v-.729l.44.581a7.325 7.325 0 0 1 1.476 4.716 5.563 5.563 0 0 1-2.9 4.685l-.75.41z" fill="#fff"/></g></g></svg>