<svg xmlns:xlink="http://www.w3.org/1999/xlink" xmlns="http://www.w3.org/2000/svg" width="76" height="76" viewBox="0 0 58 58"><defs><linearGradient id="linear-gradient" x1=".155" y1=".161" x2=".813" y2=".914" gradientUnits="objectBoundingBox"><stop offset="0" stop-color="#ff720b"/><stop offset="1" stop-color="#c216e2"/></linearGradient></defs><g id="New_popular_-_Selected" data-name="New &amp; popular - Selected" transform="translate(8068.345 9827.811)"><path id="Subtraction_153" data-name="Subtraction 153" d="M29 0A29 29 0 1 1 0 29 29 29 0 0 1 29 0z" transform="translate(-8068.345 -9827.811)" fill="url(#linear-gradient)"/><g id="noun-brand-4326167" transform="translate(-8054.091 -9813.689)"><path id="Path_71916" data-name="Path 71916" d="M416.351 185.841a.164.164 0 0 0 0-.318c-1.953-.492-2.512-1.051-3-3a.164.164 0 0 0-.318 0c-.492 1.953-1.051 2.512-3 3a.164.164 0 0 0 0 .318c1.953.492 2.512 1.051 3 3a.164.164 0 0 0 .318 0c.488-1.95 1.049-2.508 3-3z" transform="translate(-386.984 -158.858)" fill="#fff"/><path id="Path_71917" data-name="Path 71917" d="M415.963 185.634a.154.154 0 0 0 0-.3c-1.836-.462-2.361-.987-2.823-2.823a.154.154 0 0 0-.3 0c-.462 1.836-.987 2.361-2.823 2.823a.154.154 0 0 0 0 .3c1.836.462 2.361.987 2.823 2.823a.154.154 0 0 0 .3 0c.46-1.836.987-2.357 2.823-2.823z" transform="translate(-409.901 -182.395)" fill="#fff"/><path id="Path_71918" data-name="Path 71918" d="M280 81.867a11.868 11.868 0 1 0 3.476-8.391A11.865 11.865 0 0 0 280 81.867z" transform="translate(-277.531 -66.911)" fill="#fff"/><g id="noun-trending-4115774" transform="translate(-174.353 -43.616)"><path id="Path_71919" data-name="Path 71919" d="M190.09 64.221a5.589 5.589 0 0 0-1.322-7.056l.009.022v.017a4.107 4.107 0 0 1-.151 3.277l-.353.716-.108-.791a3.356 3.356 0 0 0-.588-1.487h-.049l-.026-.073a5.8 5.8 0 0 1-.508 2.389 3.348 3.348 0 0 0 .175 3.076l.382.641-.688-.291a4.584 4.584 0 0 1-2.24-6.448 6.62 6.62 0 0 0 .713-1.951l.128-.663.326.592a3.4 3.4 0 0 1 .342.908l.007.008.008.051h.007A8.368 8.368 0 0 0 187.8 52.6l.022-.424.356.232a6.356 6.356 0 0 1 2.772 4.17l.007.035v.005l.016-.023a2.126 2.126 0 0 0 .435-1.293v-.729l.44.581a7.325 7.325 0 0 1 1.476 4.716 5.563 5.563 0 0 1-2.9 4.685l-.75.41z" fill="url(#linear-gradient)"/></g></g></g></svg>