<svg xmlns:xlink="http://www.w3.org/1999/xlink" xmlns="http://www.w3.org/2000/svg" viewBox="0 0 60.56 60.56" width="60.56"  height="60.56" ><g id="Paratha_W" transform="translate(-255 -717)"><path id="Subtraction_86" data-name="Subtraction 86" d="M30.28 0A30.28 30.28 0 1 1 0 30.28 30.28 30.28 0 0 1 30.28 0z" transform="translate(255 717)" fill="#fff"/><g id="Group_40370" data-name="Group 40370" transform="translate(8235.473 10543.712)"><g id="Paratha_Box_Logo" data-name="Paratha Box Logo" transform="translate(-8216.973 -9984.512)"><path id="Path_69087" data-name="Path 69087" d="M286.888 183.653c-.114-.594-.489-2.613-.489-2.613a6.055 6.055 0 0 0-.147-.844l-.043-.172-.514-2.748a4.811 4.811 0 0 0-.106-.552 2.368 2.368 0 0 0-1.818-1.76 3.551 3.551 0 0 0-.737-.076c-.144 0-.294 0-.451.015s-.308.026-.456.047h-.027a3.616 3.616 0 0 0-.549.129 2.191 2.191 0 0 0-.819.478 2.224 2.224 0 0 0-.828-.427l-.041-.011a4.237 4.237 0 0 0-.625-.107 3.562 3.562 0 0 0-.312-.015 3.511 3.511 0 0 0-.379.022 2.646 2.646 0 0 0-.768.186 1.963 1.963 0 0 0-.8-.24q-.124-.008-.257-.01a31.198 31.198 0 0 1-.813-.032c-.3-.016-.61-.028-.922-.036h-.044c-.323 0-.641 0-.957.006s-.6.006-.9.006h-.381c-.068.006-.138.01-.208.013a2.711 2.711 0 0 0-.37.033h-.276a3.2 3.2 0 0 0-.4.022c-.12.016-.44.048-.61.064l-.052.006a.864.864 0 0 1-1.045.055 3.527 3.527 0 0 0-.546-.129h-.025a7.02 7.02 0 0 0-.901-.062 3.552 3.552 0 0 0-.737.076 2.412 2.412 0 0 0-.977.456c-.051.036-.1.075-.147.114a2.492 2.492 0 0 0-.792-.42 3.659 3.659 0 0 0-.955-.17c-.25-.011-.5-.017-.748-.017h-.367c-.3.008-.61.011-.927.011h-.07a2.731 2.731 0 0 0-1.193.277l-.031.015a2.084 2.084 0 0 0-.788.684 2.4 2.4 0 0 0-1.088-.544 3.536 3.536 0 0 0-.734-.076c-.144 0-.293 0-.447.015s-.308.026-.456.047h-.025a3.613 3.613 0 0 0-.549.129 2.213 2.213 0 0 0-.514.242 2.879 2.879 0 0 0-1.064-.561 6.39 6.39 0 0 0-2.281-.325h-.456a5.632 5.632 0 0 0-.777-.013 19.735 19.735 0 0 0-4.056.275.924.924 0 0 0-.506.912l-.087 2.872.008-.016a7.162 7.162 0 0 0-.007.342 2.9 2.9 0 0 0 .354 1.369c-.016.966-.032 4.242-.038 5.323V186a2.232 2.232 0 0 0 .973 1.825c.039.024.078.046.114.066l.041.025a2.167 2.167 0 0 0 .76.263l.2.026q.051.007.1.01c.129.008.255.014.384.019h.132a3.688 3.688 0 0 0 .513-.034 2.693 2.693 0 0 0 .853-.274c.057-.03.114-.06.167-.094a4.9 4.9 0 0 0-.026.5c0 .24.011.484.033.723.013.14.018.267.018.376a1.564 1.564 0 0 0 .017.228c.006.047.011.092.014.13a2.053 2.053 0 0 0 .416 1.093 2.294 2.294 0 0 0 .5.489.187.187 0 0 0 0 .025c0 .2.008.4.008.593l-.034 1.44a57.02 57.02 0 0 0-.018 1.5c0 .8-.014 1.609-.042 2.4s-.06 1.622-.1 2.45v.314a2.433 2.433 0 0 0 .952 1.933 3.028 3.028 0 0 0 .878.465l.071.023a3.4 3.4 0 0 0 .931.133 1.59 1.59 0 0 1 .228.017h.034c.2.025.4.047.592.066.219.021.443.032.666.033.129 0 .257.009.381.009.141 0 .279 0 .419-.011.184-.01.377-.015.576-.015h.1c.064 0 .128-.006.19-.006a1.755 1.755 0 0 1 .177.006c.1.006.194.009.293.009a4.99 4.99 0 0 0 .518-.027q.351-.017.757-.042a7.168 7.168 0 0 0 1.08-.147 4.276 4.276 0 0 0 1.244-.473 3.017 3.017 0 0 0 1.026-.975c.083-.04.167-.082.248-.129a2.538 2.538 0 0 0 .244-.159c.044.01.088.022.133.03h.025a4.843 4.843 0 0 0 .519.064 17.515 17.515 0 0 0 2.247.228h.078a1.689 1.689 0 0 0 1.17 1.223c.049.014.1.027.138.043a3.23 3.23 0 0 0 .448.127l.065.011a8.032 8.032 0 0 0 1.285.1h.257c.182-.006.366-.009.551-.009s.37 0 .557.009h.054a2.02 2.02 0 0 0 1.277-.456 2.06 2.06 0 0 0 1.369.514c.236 0 .471 0 .708.009h.194a7.335 7.335 0 0 0 .757-.039 4.617 4.617 0 0 0 .749-.122 3.474 3.474 0 0 1 .342-.072 1.664 1.664 0 0 0 .211-.048 1.88 1.88 0 0 0 .182-.066l.034.011a7.416 7.416 0 0 0 2.408-1.591 2.62 2.62 0 0 0 .144-2.02l-.008.019a2.706 2.706 0 0 0-.062-.292c-.047-.172-.1-.35-.167-.528a40.14 40.14 0 0 0-.612-1.794q-.314-.839-.626-1.7c-.1-.291-.213-.579-.331-.86q-.106-.25-.21-.508l.641-1.705.78-2.075c0-.01.008-.019.011-.03.067-.189.132-.373.193-.55s.114-.332.179-.508a2.687 2.687 0 0 0 .122-.468c.723-.284 4.844-1.9 5.644-2.259.878-.393 1-.757 1.061-1.06a1.98 1.98 0 0 0-.079-.778z" fill="#010101"/><path id="Path_69088" data-name="Path 69088" d="M288.173 202.031a1.747 1.747 0 0 0-.283-.627.644.644 0 0 0-.456-.319.57.57 0 0 1-.177-.035 2.648 2.648 0 0 1 .177-.228c.063-.07.114-.136.178-.2a.912.912 0 0 0 .2-.292 3.326 3.326 0 0 0 .114-.327 1.241 1.241 0 0 0 .026-.141c.006-.047.015-.1.026-.16a5.345 5.345 0 0 0 .21-1.21 10.9 10.9 0 0 0 0-1.22c-.013-.342-.03-.684-.054-1.026l-.071-1.026a6.471 6.471 0 0 0-.318-1.646 1.263 1.263 0 0 0-.638-.761 3.7 3.7 0 0 0-.735-.275 3.2 3.2 0 0 0-.787-.1q-.725.035-1.451 0c-.331 0-.655 0-.974-.009s-.636-.008-.955-.008h-.705q-.355 0-.708.017c-.228 0-.445-.006-.663-.017a3.1 3.1 0 0 0-.664.035.645.645 0 0 0-.247.088.493.493 0 0 0-.086.129 1.484 1.484 0 0 0-.194.513 3.01 3.01 0 0 0-.054.57c0 .2.009.389.026.584s.027.374.027.539c.011.083.019.162.026.24a.364.364 0 0 0 .079.2.463.463 0 0 0 .336.212 1.062 1.062 0 0 1 .372.106.228.228 0 0 1 .141.228 2.377 2.377 0 0 0-.017.283q.017.354.026.69c0 .228.009.449.009.673q-.019.742-.035 1.483t-.018 1.483q0 1.275-.045 2.509t-.1 2.509v.249a.766.766 0 0 0 .292.6 1.357 1.357 0 0 0 .4.212 1.757 1.757 0 0 0 .478.071 3.334 3.334 0 0 1 .478.035c.188.024.374.044.558.063a5.4 5.4 0 0 0 .557.026 6.8 6.8 0 0 0 .684 0c.218-.011.445-.018.684-.018a4.981 4.981 0 0 1 .584 0 3.156 3.156 0 0 0 .584-.017q.371-.017.8-.044a5.683 5.683 0 0 0 .85-.114 2.649 2.649 0 0 0 .769-.292 1.389 1.389 0 0 0 .549-.57 1.645 1.645 0 0 0 .124-.4 5.24 5.24 0 0 0 .054-.4c.047-.366.086-.731.114-1.1a7.5 7.5 0 0 0 .009-1.1 3.74 3.74 0 0 0-.111-.665zm-5.4-3.017q.017-.814.009-1.628t.026-1.646a.163.163 0 0 0 .018-.071.161.161 0 0 1 .017-.071.263.263 0 0 1 .2-.071 4.869 4.869 0 0 1 1.434 0c.082.024.162.05.238.079a.57.57 0 0 1 .2.133.7.7 0 0 1 .071.318q.035.342.044.664t.026.664a3.01 3.01 0 0 1 0 .919 1.515 1.515 0 0 1-.132.435.912.912 0 0 1-.292.342 1.192 1.192 0 0 1-.69.275q-.39.026-.742.026a.64.64 0 0 1-.284-.054.221.221 0 0 1-.106-.106.129.129 0 0 1-.035-.1zm2.654 4.759a.377.377 0 0 1-.212.2 1.01 1.01 0 0 1-.3.062 2.462 2.462 0 0 1-.318 0c-.106 0-.2-.008-.283-.008q-.372 0-.735-.018c-.242-.011-.481-.03-.716-.052h-.106a.133.133 0 0 0-.054-.018.134.134 0 0 1-.052-.017.228.228 0 0 1-.072-.2.843.843 0 0 1 0-.24.536.536 0 0 0-.017-.238.134.134 0 0 1 .089-.177.987.987 0 0 1 .292-.071 3.316 3.316 0 0 1 .335-.018h.24q.743-.017 1.483 0a.62.62 0 0 1 .247.035.523.523 0 0 1 .177.228.684.684 0 0 1 0 .531zm17.621 1.921a1.52 1.52 0 0 1 .04.5.546.546 0 0 1-.323.283 7.619 7.619 0 0 0-.486.1 3.115 3.115 0 0 1-.505.081 5.968 5.968 0 0 1-.768.03 28.214 28.214 0 0 0-.769-.009.391.391 0 0 1-.364-.222 3.354 3.354 0 0 0-.114-.182 1.04 1.04 0 0 1-.091-.181q-.184-.406-.364-.829a52.277 52.277 0 0 0-.364-.829.179.179 0 0 1-.051-.081.172.172 0 0 0-.05-.08c-.054.107-.1.212-.141.313a2.311 2.311 0 0 1-.141.293q-.163.364-.333.728c-.114.243-.228.492-.334.748a.417.417 0 0 1-.364.262 19.813 19.813 0 0 0-1.243 0 6.45 6.45 0 0 1-1.243-.08 1.448 1.448 0 0 1-.212-.062 4.559 4.559 0 0 0-.253-.081 2.67 2.67 0 0 0-.009-.283.954.954 0 0 1 .009-.242 4.113 4.113 0 0 1 .132-.657 6.452 6.452 0 0 1 .212-.617l.323-.809c.114-.269.216-.545.324-.829l.445-1.171.445-1.172c.054-.149.114-.293.171-.435s.125-.287.193-.436a2 2 0 0 0-.091-.252 4.829 4.829 0 0 1-.091-.212q-.181-.527-.374-1.062t-.373-1.061q-.141-.406-.253-.788a7.021 7.021 0 0 0-.273-.769q-.2-.485-.364-.971c-.114-.323-.216-.654-.324-.99-.027-.1-.05-.192-.071-.293 0 0-.269-.592 0-.758a3.488 3.488 0 0 1 1.5-.071q.313-.01.636.01a3.685 3.685 0 0 1 .395.06l.373.081a.961.961 0 0 1 .456.324 2.143 2.143 0 0 1 .293.526q.141.282.283.576t.283.6c.135-.217.26-.422.374-.617s.228-.4.354-.6c0 0 .228-.74.879-.756a6.966 6.966 0 0 1 1.686.3.314.314 0 0 1 .057.04c.1.023.193.047.29.073a.869.869 0 0 1 .485.342 1.643 1.643 0 0 1 .06.384.856.856 0 0 1-.06.3l-.192.545c-.06.176-.125.357-.193.546q-.4 1.071-.8 2.123t-.8 2.123a1.223 1.223 0 0 1-.081.242 1.539 1.539 0 0 1 .141.384c.108.269.216.533.324.788s.209.519.3.789q.324.888.647 1.759c.216.578.417 1.172.607 1.778.054.148.1.3.141.445zM294.7 184.41a7.4 7.4 0 0 1-.013-.417v-.513a.292.292 0 0 1 .024-.106l.03-.082a.147.147 0 0 1 .052-.071c.055-.047.114-.09.165-.13a.429.429 0 0 1 .212-.071c.157-.015.592-.058.741-.078s.478 0 .635-.011a2.375 2.375 0 0 1 .283-.029c.1 0 .188-.01.283-.018h.247q.471 0 .943-.006h.954q.448.011.9.035t.9.035a1.466 1.466 0 0 1 .16.006.244.244 0 0 1 .136.052.315.315 0 0 1 .147.205 1.348 1.348 0 0 1 .03.271 3.863 3.863 0 0 1-.035.672 1.468 1.468 0 0 1-.054.283.342.342 0 0 1-.17.212.415.415 0 0 1-.2.064c-.067 0-.132.007-.194.007l-.271-.007-.5-.011-.612-.011h-.6c-.18 0-.33 0-.448.011a.5.5 0 0 0-.176.024v.177q-.014.684-.013 1.369t-.024 1.379a2.024 2.024 0 0 1-.011.228 1.962 1.962 0 0 1-.011.21c0 .047-.024.106-.024.149s-.012.088-.011.136c0 .219 0 .289-.013.512-.006.169-.016.269-.022.446s0 .2-.009.3c-.013.152-.009.319-.017.422l-.023.468a.616.616 0 0 1-.27.518.208.208 0 0 1-.095.059 1.355 1.355 0 0 1-1.119-.035.627.627 0 0 1-.378-.589q-.046-.814-.047-1.609v-4.017c-.062 0-.127.006-.187.006-.125 0-.706-.013-.824 0a.57.57 0 0 1-.365-.083.517.517 0 0 1-.106-.362zm15.089 6.144-.537-2.871a4.539 4.539 0 0 0-.114-.684l-.056-.228-.544-2.907a3.333 3.333 0 0 0-.076-.413.7.7 0 0 0-.543-.525 1.9 1.9 0 0 0-.395-.041c-.114 0-.228 0-.342.011s-.228.021-.342.035a2.046 2.046 0 0 0-.3.071.494.494 0 0 0-.242.165.478.478 0 0 0-.076.136c-.021.051-.038.1-.054.147-.056.171-.106.342-.157.514a.1.1 0 0 0-.009-.046l-1.494 6.124a2.832 2.832 0 0 0-.1.63.719.719 0 0 0 .035.219.359.359 0 0 0 .13.182.349.349 0 0 0 .159.076c.059.011.114.022.182.03a1.794 1.794 0 0 0 .277.023h.277a1.766 1.766 0 0 0 .2-.011.583.583 0 0 0 .2-.059.512.512 0 0 0 .206-.153 1.251 1.251 0 0 0 .153-.236 1.642 1.642 0 0 0 .106-.265l.076-.253a1.147 1.147 0 0 1 .059-.177.27.27 0 0 1 .114-.13.222.222 0 0 1 .095-.023h.773a.277.277 0 0 1 .1.03.228.228 0 0 1 .092.13.53.53 0 0 1 .024.16 2.764 2.764 0 0 0 .017.382.845.845 0 0 0 .123.359.627.627 0 0 0 .26.236.659.659 0 0 0 .294.059 2.491 2.491 0 0 0 .754-.071 1.842 1.842 0 0 0 .294-.114.5.5 0 0 0 .375-.512zm-2.419-2.109a.165.165 0 0 1-.071.011h-.2c-.071 0-.137-.006-.2-.006a.2.2 0 0 1-.141-.035.094.094 0 0 1-.025-.047l.456-1.61.2 1.683zm-27.626-1.013a14.681 14.681 0 0 0 .081-1.469 15.554 15.554 0 0 0-.06-2.224c-.086-.441-.593-.6-.761-.641a4.643 4.643 0 0 0-1.77-.243c-.379 0-.755-.011-1.1.022s-.651 0-1.107.049-.528.114-.619.284a4.5 4.5 0 0 0-.151 1.255 1.29 1.29 0 0 0 .216.684.839.839 0 0 1 .155.55c-.017.342-.043 5.61-.043 5.61s.017.378.171.472a.328.328 0 0 0 .072.032.471.471 0 0 0 .046.034.456.456 0 0 0 .164.059l.176.024c.12.008.236.013.356.018a2.215 2.215 0 0 0 .342-.018 1.036 1.036 0 0 0 .324-.106.833.833 0 0 0 .468-.631 2.641 2.641 0 0 0 .046-.495v-.128l-.011-2.31a4.791 4.791 0 0 0 1.559.145c.746-.081 1.4-.505 1.44-.973zm-1.9-1.677c-.017.292-.094.464-.222.541l-.008.008a.7.7 0 0 1-.209.063 3.018 3.018 0 0 1-.53.046.594.594 0 0 1-.084-.013.324.324 0 0 1-.156-.122 5.36 5.36 0 0 1 .051-1.613c.032-.157.216-.18.352-.173h.033c.057.013.114.023.163.031h.007c.106.018.2.032.285.049.14.035.284.1.309.19a4.925 4.925 0 0 1 .008.987zm11.726 5.567a.342.342 0 0 0 .177-.153.361.361 0 0 0 .041-.318 2.437 2.437 0 0 0-.124-.33q-.306-.648-.547-1.308a47.442 47.442 0 0 1-.465-1.331.052.052 0 0 0 0-.03.086.086 0 0 1-.006-.03.5.5 0 0 1-.018-.071.062.062 0 0 1 .018-.058.061.061 0 0 1 .041-.024.094.094 0 0 0 .041-.011 1.45 1.45 0 0 0 .354-.071.843.843 0 0 0 .335-.247 1.043 1.043 0 0 0 .2-.366 1.635 1.635 0 0 0 .088-.412c.011-.141.022-.283.03-.424q.024-.307.024-.6c0-.192.007-.39.023-.594.008-.125.019-.26.035-.4a3.76 3.76 0 0 0 .024-.423 2.052 2.052 0 0 0-.041-.413.944.944 0 0 0-.16-.365.822.822 0 0 0-.424-.307 2.039 2.039 0 0 0-.529-.095c-.342-.015-.684-.019-1.02-.011s-.674.011-1.02.011a1.068 1.068 0 0 0-.506.114.456.456 0 0 0-.212.235 1.128 1.128 0 0 0-.094.313 3.415 3.415 0 0 0-.035.324v.038l-.03 1.058c0 .094-.006.188-.013.281v.114c-.016.252-.025.5-.03.754v.185c-.017.44-.1 2.611-.129 3.678-.026 1.191.014 1.2.092 1.3s.712.025.712.025l.043.027v-.032a2.683 2.683 0 0 0 .456-.066.425.425 0 0 0 .307-.354 4.967 4.967 0 0 0 .065-.713v-.366l.057-.933a3.675 3.675 0 0 1 .2.451 5.256 5.256 0 0 0 .212.512c.079.189.156.375.235.56s.161.367.248.547a1.472 1.472 0 0 0 .076.154.475.475 0 0 0 .114.129.446.446 0 0 0 .2.089 1.456 1.456 0 0 0 .219.017c.07 0 .151 0 .241.007a1.464 1.464 0 0 0 .266-.013 1.017 1.017 0 0 0 .23-.06zm-1.39-6.267v.253c0 .083-.007.167-.007.253a1.222 1.222 0 0 1-.041.228.3.3 0 0 1-.159.171 2.131 2.131 0 0 0-.348.076.8.8 0 0 1-.348.03 1.12 1.12 0 0 1-.047-.294 3.2 3.2 0 0 1 0-.419c.01-.145.014-.289.03-.43a1.449 1.449 0 0 1 .071-.342.228.228 0 0 1 .164-.047l.177.024c.063.016.124.029.182.041s.12.025.183.041a.146.146 0 0 1 .141.153.657.657 0 0 1 .013.13zm-8.585 5.882-.007.029c0 .044-.01.089-.013.133a.706.706 0 0 0 .035.218.407.407 0 0 0 .289.26c.059.011.12.022.182.028a1.662 1.662 0 0 0 .277.024h.277a1.755 1.755 0 0 0 .2-.011.584.584 0 0 0 .2-.059.512.512 0 0 0 .206-.153 1.2 1.2 0 0 0 .153-.236 1.646 1.646 0 0 0 .106-.265l.078-.253a1.034 1.034 0 0 1 .058-.177.275.275 0 0 1 .114-.13.207.207 0 0 1 .095-.024h.659a.882.882 0 0 1 .114.007.308.308 0 0 1 .1.029.228.228 0 0 1 .094.124.53.53 0 0 1 .024.159 2.778 2.778 0 0 0 .017.383.864.864 0 0 0 .124.359.617.617 0 0 0 .259.236.663.663 0 0 0 .294.058 2.416 2.416 0 0 0 .754-.071 1.9 1.9 0 0 0 .3-.114.4.4 0 0 0 .2-.212.351.351 0 0 0 .015-.036.072.072 0 0 0 .025-.021 1.169 1.169 0 0 0 .054-.529l-.238-1.4-.228-1.247a4.7 4.7 0 0 0-.106-.618l-.034-.133-.594-3.2a3.995 3.995 0 0 0-.044-.206.7.7 0 0 0-.542-.525 1.916 1.916 0 0 0-.395-.041 3.42 3.42 0 0 0-.342.011c-.114.011-.228.019-.342.035a2.082 2.082 0 0 0-.3.071.5.5 0 0 0-.242.165 1.312 1.312 0 0 0-.25.546l-.228.949-.025.1-.04.178-1 4.189q-.042.15-.087.3l-.164.618a2.925 2.925 0 0 0-.086.457zm2.306-2.232a2.054 2.054 0 0 1 .071-.436q.06-.212.13-.424a.974.974 0 0 0 .041-.136 12.18 12.18 0 0 1 .136-.477c.024-.071.043-.106.058-.106h.017l.228 1.474c0 .043.008.086.01.129a.114.114 0 0 1-.059.141.162.162 0 0 1-.071.011c-.063 0-.13 0-.2-.006s-.137 0-.2 0a.2.2 0 0 1-.141-.035.123.123 0 0 1-.022-.136zm13.142 2.474c.063-.008.123-.018.182-.03a.4.4 0 0 0 .289-.259.721.721 0 0 0 .035-.219 2.9 2.9 0 0 0-.094-.63c-.055-.208-.114-.414-.165-.619l-.064-.22-.845-3.481c-.071-.324-.141-.648-.218-.967q-.159-.66-.372-1.308c-.016-.047-.033-.1-.054-.147a.457.457 0 0 0-.076-.136.5.5 0 0 0-.241-.165 2.067 2.067 0 0 0-.3-.071 4.883 4.883 0 0 0-.684-.046 1.906 1.906 0 0 0-.395.041.71.71 0 0 0-.326.164.507.507 0 0 0-.216.36 3.339 3.339 0 0 0-.076.413l-.038.228-.044.217a7.85 7.85 0 0 0-.082.436l-.018.154-.641 3.593a.269.269 0 0 1-.013.048c-.063.3-.114.6-.164.907-.009.052-.015.106-.023.159l-.1.57s-.026.251-.026.371a.228.228 0 0 0 .011.1.483.483 0 0 0 .056.2.4.4 0 0 0 .2.212 1.94 1.94 0 0 0 .294.114 2.491 2.491 0 0 0 .754.071.663.663 0 0 0 .3-.059.624.624 0 0 0 .259-.236.845.845 0 0 0 .123-.359 4.22 4.22 0 0 0 .018-.382.571.571 0 0 1 .023-.16.228.228 0 0 1 .1-.123.283.283 0 0 1 .1-.03h.773a.218.218 0 0 1 .1.023.27.27 0 0 1 .114.13 1.151 1.151 0 0 1 .059.177l.076.253a1.639 1.639 0 0 0 .106.265 1.2 1.2 0 0 0 .154.236.509.509 0 0 0 .2.153.585.585 0 0 0 .2.059 1.769 1.769 0 0 0 .2.011h.277a1.778 1.778 0 0 0 .277-.022zm-1.865-2.756a.263.263 0 0 1-.114.022c-.064 0-.13 0-.2.006s-.137 0-.2 0a.165.165 0 0 1-.071-.011.114.114 0 0 1-.058-.141 9.322 9.322 0 0 1 .093-.942 3.2 3.2 0 0 1 .065-.331c.027-.111.054-.219.076-.33h.024c.006 0 .01 0 .017.013a14.07 14.07 0 0 1 .4 1.46.456.456 0 0 1-.036.256zm11.037-4.926c0 .2 0 .4-.013.592s-.019.393-.035.591a1.9 1.9 0 0 0-.017.331c0 .114.006.221.006.331-.016.276-.025.546-.03.81s-.009.534-.017.809l-.035 1.167-.024.289a3.09 3.09 0 0 1-.035.289l-.024.342-.023.348q-.024.318-.054.642c-.019.216-.038.433-.052.654a.456.456 0 0 1-.114.283.563.563 0 0 1-.27.165 1.254 1.254 0 0 1-.719-.048.691.691 0 0 1-.336-.247.839.839 0 0 1-.123-.388q-.036-.485-.03-.955v-1.061q-.106-.011-.26-.017c-.1 0-.2-.01-.311-.018s-.209-.014-.307-.017-.18-.01-.251-.018a70.115 70.115 0 0 1-.1 2.053c-.04.49-.114.5-.287.644a.172.172 0 0 1-.08.038.478.478 0 0 1-.055.026 1.411 1.411 0 0 1-.513.024 1.032 1.032 0 0 1-.465-.2.59.59 0 0 1-.228-.423 13.414 13.414 0 0 1-.048-1.385q.013-.684.013-1.4.01-.542.03-1.073t.052-1.076a2.047 2.047 0 0 1 .035-.242.3.3 0 0 1 .114-.184.248.248 0 0 1 .137-.071l.148-.024q.3-.012.593 0c.087.008.173.021.261.035a.54.54 0 0 1 .237.107.5.5 0 0 1 .206.307 1.434 1.434 0 0 1 .031.39c-.008.133-.013.262-.013.384s0 .25-.011.384a.024.024 0 0 0 .006.017.086.086 0 0 1 .006.03h1.08l.114-2.915s0-.517.211-.635a.16.16 0 0 1 .054-.019.711.711 0 0 1 .446-.153 1.741 1.741 0 0 1 .378-.007 2.707 2.707 0 0 1 .376.065.412.412 0 0 1 .343.427zm-12.783 11.891a5.826 5.826 0 0 0-2.328.381c.017-.088.034-.178.054-.265a1.759 1.759 0 0 1 .086-.273c.036-.088.07-.179.1-.273a.661.661 0 0 1 .4-.358c.135-.031.266-.059.4-.086s.261-.049.4-.071c.167-.021.33-.035.489-.047s.324-.025.489-.047a5.391 5.391 0 0 1 .815-.031q.413.016.815.047a1.41 1.41 0 0 1 .466.14.787.787 0 0 1 .342.342 2.574 2.574 0 0 1 .163.327c.046.114.1.228.147.342.008.021.013.042.019.064a13.177 13.177 0 0 0-2.861-.191zm3.016 8.788a1.327 1.327 0 0 1-.071.383c-.254.684-1 .518-1.463.551a19.733 19.733 0 0 1-2.194-.228 3.488 3.488 0 0 1-.408-.046 1.772 1.772 0 0 1-.349-.1l-.342-.106s-.378-.1-.342-.845a10.517 10.517 0 0 0 2.981.517 6.291 6.291 0 0 0 2.184-.126zm-4.874-3.553a.229.229 0 0 0-.015.031s-.159 1.888-.257 2.833a9.7 9.7 0 0 0 2.081.482 9.439 9.439 0 0 0 3.052-.06h.01a2.605 2.605 0 0 0-.038-.326l-.064-.314c-.03-.214-.086-.547-.168-1.04-.036-.22-.283-1.9-.283-2.127a.564.564 0 0 1 .016-.149l.462-3.561v-.054c0-.141-.011-.282-.019-.423a9.741 9.741 0 0 0-2.02-.271 9.35 9.35 0 0 0-3.035.333c-.065.017-.114.033-.164.048l.5 3.787zm2.11-3.982c.208-.089.755 2.485.778 2.759a29.457 29.457 0 0 1-.541 3.02c-.052.09-.328-.821-.456-1.141a16.766 16.766 0 0 1-.351-1.759 13.445 13.445 0 0 1 .567-2.878zm2.4-4.919-2.694 1.062a1.04 1.04 0 0 1-.017.607.84.84 0 0 1-1.027.557.66.66 0 0 1-.6-.552l-.465.141-.12-.25.42-.169a.491.491 0 0 1 .067-.436 1.843 1.843 0 0 1 .93-.526.541.541 0 0 1 .7.313l2.661-1.046z" transform="translate(-23.708 -7.107)" fill="#eb572e"/></g></g></g></svg>