<svg xmlns:xlink="http://www.w3.org/1999/xlink" xmlns="http://www.w3.org/2000/svg" width="64" height="64" viewBox="0 0 64 64"><g id="Smoodies_-_No_Border" data-name="Smoodies - No Border" transform="translate(-412.385 -1063)"><g id="Group_62890" data-name="Group 62890" transform="translate(412.384 1063)"><path id="Path_68463" data-name="Path 68463" d="M32 0A32 32 0 1 1 0 32 32 32 0 0 1 32 0z" fill="#fff"/><g id="Smoodies_logo" data-name="Smoodies logo" transform="translate(-7.862 -289.457)" fill="#ee383d"><path id="Path_71922" data-name="Path 71922" d="M285.7 370.007c-2.392 0-2.527-2.2-2.448-3.641a2.638 2.638 0 0 1 2.851-2.466 2.561 2.561 0 0 1 2.49 2.784c0 1.774-.465 3.323-2.894 3.323zm1.12-3.372a1.277 1.277 0 0 0-1.352-1.175c-.165 0-.184.1-.22.269a6.314 6.314 0 0 0-.049 1.505c.067.661.41 1.371 1.309 1.205a.308.308 0 0 0 .275-.226 4.643 4.643 0 0 0 .041-1.578z" transform="translate(-251.808 -45.925)" fill-rule="evenodd"/><path id="Path_71923" data-name="Path 71923" d="M621.6 366.858a2.364 2.364 0 0 1-2.478 1.364c-2.711 0-3.2-1.989-2.974-3.641a2.865 2.865 0 0 1 3.019-2.581 2.431 2.431 0 0 1 2.545 2.166c.092.636-.061.906-.789 1.169a10.729 10.729 0 0 1-2.631.441.972.972 0 0 0 .881.942.7.7 0 0 0 .875-.526c.049-.184.208-.245.649-.275 1.04-.068 1.138.33.903.941zm-3.359-2.007c.973-.061 1.45-.177 1.566-.361.171-.275-.349-1.585-1.065-1.077a1.849 1.849 0 0 0-.499 1.438z" transform="translate(-564.302 -44.141)" fill-rule="evenodd"/><path id="Path_71924" data-name="Path 71924" d="M573.659 371.433a6.027 6.027 0 0 1-1.224-.024c-.324-.031-.459-.294-.447-.71.043-1.2.067-3.6.11-4.381.024-.477.128-.612.551-.691a5.6 5.6 0 0 1 1.016-.037c.5.031.545.19.508 1.469-.012.7-.11 3.72-.11 3.72 0 .33-.117.63-.404.654z" transform="translate(-522.887 -47.504)"/><path id="Path_71925" data-name="Path 71925" d="M576.247 318.91c-.024.734-.459 1.3-1.028 1.3-.624 0-1.01-.716-1.028-1.3-.018-.789.379-1.01 1.1-1.01a.875.875 0 0 1 .956 1.01z" transform="translate(-524.955 -2.74)"/><path id="Path_71926" data-name="Path 71926" d="M138.1 365.717c0 .8-.1 3.531-.1 3.531-.012.4-.141.545-.361.569a6.355 6.355 0 0 1-1.3-.024c-.441-.043-.41-.434-.4-.8.055-1.2.08-2.129.061-2.907-.012-1.248-.8-.465-1.224.3-.049 1.248 0 2.68-.012 2.974s-.122.434-.385.459a6.184 6.184 0 0 1-1.046-.018c-.447-.037-.422-.465-.416-.832.031-1.609.006-2.386.006-2.882-.012-1.254-.814-.471-1.242.294-.049 1.248-.012 2.906-.012 2.906 0 .226-.073.508-.386.526a7.78 7.78 0 0 1-1.236-.018c-.379-.037-.459-.361-.434-.722a15.329 15.329 0 0 0-.031-2.913 1.681 1.681 0 0 0-.367-.918c-.306-.33.453-1.034.881-1.144.532-.141.887.612 1.028.979a2.8 2.8 0 0 1 1.756-1.187 1.2 1.2 0 0 1 1.487 1 2.692 2.692 0 0 1 1.591-.967c1.816-.336 2.142.894 2.142 1.794z" transform="translate(-107.14 -45.894)"/><path id="Path_71927" data-name="Path 71927" d="M19.4 321.723c-.018-.74-.294-.979-.759-1.046a.867.867 0 0 0-1.034.7c-.116.74.379 1.175 1.438 1.5.948.294 2.839.912 2.839 2.686 0 1.615-1 2.558-3.543 2.558-2.38 0-3.2-.942-3.3-2.031-.128-1.236.49-1.352 1.077-1.328.716.024 1.3.233 1.309.734.012.716.257 1.15.881 1.2.581.049 1.059-.159 1.083-.728.024-.483-.043-1.077-2.184-1.664a2.406 2.406 0 0 1-2.025-2.5c.006-.893.618-2.5 3.372-2.5 3 0 3.3 2.038 3.047 2.87-.214.722-1.579.471-1.921.257-.231-.145-.274-.378-.28-.708z" transform="translate(0 -4.054)"/><path id="Path_71928" data-name="Path 71928" d="M718.737 364.252c-.4-.061-.624-.116-.667-.606a.6.6 0 0 0-1.187-.067c-.08.63.391.8 1.248.979s1.854.551 1.854 1.787c0 1.267-.918 1.879-2.594 1.879-1.829 0-2.49-.649-2.643-1.5-.141-.783.245-.881.679-.851.74.049 1.04.122 1.077.538.043.526.312.667.747.667s.624-.171.624-.483-.177-.6-1.083-.826c-.961-.245-1.97-.685-1.97-1.86 0-1.3 1.01-1.909 2.619-1.909 1.493 0 2.227.581 2.4 1.377.242 1.077-.547.96-1.104.875z" transform="translate(-656.884 -44.141)"/><path id="Path_71929" data-name="Path 71929" d="M475.5 324.076c-2.7.171-3.133-1.646-3.047-3.378.073-1.45.765-2.674 2.392-2.711a1.42 1.42 0 0 1 .832.171 9.55 9.55 0 0 0-.679-1.756c-.239-.508-.5-.973.147-1.218.814-.306 1.6-.324 1.964.355a9.957 9.957 0 0 1 .942 4.247c.039 1.683-.126 4.137-2.551 4.29zm.422-4.614c-.024-.11-.043-.128-.22-.147-.777-.073-1.193.52-1.242 1.8-.043 1.052.153 1.4.306 1.432.52.122 1.175-.147 1.248-1.536a6.949 6.949 0 0 0-.096-1.549z" transform="translate(-429.43)" fill-rule="evenodd"/><path id="Path_71930" data-name="Path 71930" d="M380.411 370.007c-2.4 0-2.533-2.2-2.454-3.641a2.638 2.638 0 0 1 2.851-2.466 2.561 2.561 0 0 1 2.49 2.784c.002 1.775-.464 3.323-2.887 3.323zm1.114-3.372a1.277 1.277 0 0 0-1.352-1.175c-.159 0-.177.1-.22.269a6.316 6.316 0 0 0-.049 1.505c.073.661.41 1.371 1.309 1.205a.308.308 0 0 0 .275-.226 4.644 4.644 0 0 0 .036-1.578z" transform="translate(-340.714 -45.925)" fill-rule="evenodd"/><path id="Path_71931" data-name="Path 71931" d="M135.487 491a.364.364 0 0 1 .043.1.466.466 0 0 1 .018.135.288.288 0 0 1-.055.2.229.229 0 0 1-.159.055h-.728v.392h.765a.5.5 0 0 1 .043.1.467.467 0 0 1 .018.135.277.277 0 0 1-.055.19.207.207 0 0 1-.153.055h-.612v.74l-.122.018a1.046 1.046 0 0 1-.159.012.761.761 0 0 1-.147-.012.217.217 0 0 1-.1-.043.256.256 0 0 1-.067-.092.477.477 0 0 1-.018-.147v-1.517a.336.336 0 0 1 .086-.239.323.323 0 0 1 .239-.086z" transform="translate(-111.7 -165.248)"/><path id="Path_71932" data-name="Path 71932" d="M162.93 497.9a1.017 1.017 0 0 1-.067.385.828.828 0 0 1-.184.288.761.761 0 0 1-.288.171 1.121 1.121 0 0 1-.379.061 1.1 1.1 0 0 1-.373-.061.913.913 0 0 1-.288-.184.841.841 0 0 1-.184-.281 1.03 1.03 0 0 1-.067-.379 1.012 1.012 0 0 1 .067-.373.841.841 0 0 1 .184-.281.912.912 0 0 1 .288-.184 1.1 1.1 0 0 1 .373-.061 1.03 1.03 0 0 1 .379.067.761.761 0 0 1 .471.465.965.965 0 0 1 .068.367zm-1.224 0a.549.549 0 0 0 .086.33.263.263 0 0 0 .226.11.258.258 0 0 0 .226-.116.7.7 0 0 0 0-.649.279.279 0 0 0-.233-.11.263.263 0 0 0-.226.11.569.569 0 0 0-.079.325z" transform="translate(-137.141 -170.881)" fill-rule="evenodd"/><path id="Path_71933" data-name="Path 71933" d="M196.294 498.838a.581.581 0 0 1-.11.024q-.073.006-.153.006t-.141-.006a.217.217 0 0 1-.1-.043.2.2 0 0 1-.067-.086.348.348 0 0 1-.024-.141v-1.046a.288.288 0 0 1 .031-.141.4.4 0 0 1 .086-.1.642.642 0 0 1 .141-.08 1.47 1.47 0 0 1 .177-.067q.092-.024.19-.043a1.775 1.775 0 0 1 .208-.012.493.493 0 0 1 .263.061.241.241 0 0 1 .1.214.333.333 0 0 1-.012.092.9.9 0 0 1-.037.086q-.073 0-.153.006l-.147.024q-.073.012-.141.031a.438.438 0 0 0-.11.037z" transform="translate(-169.624 -170.974)"/><path id="Path_71934" data-name="Path 71934" d="M231.287 493.193a.153.153 0 0 0 .055.129.32.32 0 0 0 .165.037q.049 0 .11-.006t.1-.024a.294.294 0 0 1 .049.086.22.22 0 0 1 .024.11.279.279 0 0 1-.1.22.569.569 0 0 1-.349.08.739.739 0 0 1-.477-.135.572.572 0 0 1-.165-.459v-1.493a.784.784 0 0 1 .11-.024.938.938 0 0 1 .153-.012.44.44 0 0 1 .239.055.259.259 0 0 1 .086.233v.22h.459a.633.633 0 0 1 .037.1.407.407 0 0 1 .018.129.264.264 0 0 1-.049.177.213.213 0 0 1-.147.049h-.318z" transform="translate(-202.483 -165.905)"/><path id="Path_71935" data-name="Path 71935" d="M255.17 490.2a.789.789 0 0 1-.11.025q-.073.006-.153.006t-.141-.006a.266.266 0 0 1-.1-.043.232.232 0 0 1-.061-.086.348.348 0 0 1-.024-.141v-.777a.249.249 0 0 0-.073-.2.262.262 0 0 0-.171-.055.467.467 0 0 0-.135.018.5.5 0 0 0-.1.043v1.216a.577.577 0 0 1-.11.025q-.073.006-.153.006t-.141-.006a.217.217 0 0 1-.1-.043.2.2 0 0 1-.067-.086.348.348 0 0 1-.024-.141v-2.025l.116-.018a.934.934 0 0 1 .153-.012q.073 0 .135.006a.266.266 0 0 1 .1.043.2.2 0 0 1 .067.086.452.452 0 0 1 .018.141v.343a.968.968 0 0 1 .141-.037.908.908 0 0 1 .74.147.647.647 0 0 1 .2.514z" transform="translate(-223.887 -162.337)"/><path id="Path_71936" data-name="Path 71936" d="M286.573 498.805a1.294 1.294 0 0 1-.385-.055.874.874 0 0 1-.306-.177.884.884 0 0 1-.208-.288 1.066 1.066 0 0 1-.073-.41 1 1 0 0 1 .073-.4.805.805 0 0 1 .2-.269.883.883 0 0 1 .275-.159 1.1 1.1 0 0 1 .324-.049.988.988 0 0 1 .337.055.8.8 0 0 1 .263.153.689.689 0 0 1 .171.232.913.913 0 0 1 .061.3.286.286 0 0 1-.067.184.354.354 0 0 1-.19.079l-.863.129a.3.3 0 0 0 .159.171.663.663 0 0 0 .275.055 1.157 1.157 0 0 0 .269-.031.843.843 0 0 0 .208-.086.287.287 0 0 1 .135.226.244.244 0 0 1-.147.233.868.868 0 0 1-.257.086 1.91 1.91 0 0 1-.257.018zm-.1-1.371a.4.4 0 0 0-.147.024.309.309 0 0 0-.1.073.247.247 0 0 0-.061.1.345.345 0 0 0-.018.11l.594-.1a.313.313 0 0 0-.073-.141.265.265 0 0 0-.193-.066z" transform="translate(-254.023 -170.881)" fill-rule="evenodd"/><path id="Path_71937" data-name="Path 71937" d="M330.624 492.566a.31.31 0 0 1-.239-.092.323.323 0 0 1-.086-.239v-1.805l.122-.018a1.046 1.046 0 0 1 .159-.012.723.723 0 0 1 .141.012.266.266 0 0 1 .1.043.2.2 0 0 1 .061.092.368.368 0 0 1 .024.147v1.377h.8a.5.5 0 0 1 .049.1.468.468 0 0 1 .018.135.256.256 0 0 1-.061.2.2.2 0 0 1-.153.061z" transform="translate(-295.988 -164.684)"/><path id="Path_71938" data-name="Path 71938" d="M358.83 497.9a1.108 1.108 0 0 1-.061.385.786.786 0 0 1-.19.288.761.761 0 0 1-.288.171 1.17 1.17 0 0 1-.746 0 .914.914 0 0 1-.288-.184.8.8 0 0 1-.19-.281 1.03 1.03 0 0 1-.067-.379 1.012 1.012 0 0 1 .067-.373.8.8 0 0 1 .19-.281.913.913 0 0 1 .288-.184 1.069 1.069 0 0 1 .373-.061.982.982 0 0 1 .373.067.832.832 0 0 1 .288.177.786.786 0 0 1 .19.288 1.049 1.049 0 0 1 .061.367zm-1.218 0a.581.581 0 0 0 .08.33.279.279 0 0 0 .233.11.253.253 0 0 0 .22-.116.7.7 0 0 0 0-.649.288.288 0 0 0-.453 0 .569.569 0 0 0-.08.325z" transform="translate(-321.054 -170.881)" fill-rule="evenodd"/><path id="Path_71939" data-name="Path 71939" d="M390.348 498.983a.353.353 0 0 1-.147.067.807.807 0 0 1-.208.024.682.682 0 0 1-.239-.037.233.233 0 0 1-.135-.11 1.265 1.265 0 0 1-.08-.165l-.092-.239-.1-.281q-.051-.146-.1-.3-.043-.147-.086-.281t-.061-.239a.426.426 0 0 1 .135-.086.419.419 0 0 1 .177-.037.38.38 0 0 1 .2.049.3.3 0 0 1 .116.19l.135.532q.037.159.073.288t.055.2h.018l.135-.569q.074-.312.135-.618a.656.656 0 0 1 .135-.049.6.6 0 0 1 .147-.018.379.379 0 0 1 .2.049.2.2 0 0 1 .086.184.841.841 0 0 1-.024.165q-.031.1-.067.239t-.092.281q-.055.153-.11.294t-.11.269q-.053.115-.096.198z" transform="translate(-351.19 -171.162)"/><path id="Path_71940" data-name="Path 71940" d="M421.567 498.805a1.274 1.274 0 0 1-.379-.055.875.875 0 0 1-.306-.177.78.78 0 0 1-.208-.288 1.065 1.065 0 0 1-.073-.41 1 1 0 0 1 .073-.4.741.741 0 0 1 .2-.269.868.868 0 0 1 .281-.159 1.038 1.038 0 0 1 .318-.049.988.988 0 0 1 .337.055.8.8 0 0 1 .263.153.69.69 0 0 1 .171.232.744.744 0 0 1 .061.3.248.248 0 0 1-.067.184.347.347 0 0 1-.184.079l-.863.129a.275.275 0 0 0 .159.171.622.622 0 0 0 .269.055 1.108 1.108 0 0 0 .269-.031.843.843 0 0 0 .208-.086.3.3 0 0 1 .1.092.279.279 0 0 1 .037.135.244.244 0 0 1-.147.233.793.793 0 0 1-.251.086 2.046 2.046 0 0 1-.268.02zm-.1-1.371a.376.376 0 0 0-.141.024.4.4 0 0 0-.1.073.289.289 0 0 0-.055.1.529.529 0 0 0-.024.11l.6-.1a.294.294 0 0 0-.08-.141.265.265 0 0 0-.198-.066z" transform="translate(-380.763 -170.881)" fill-rule="evenodd"/><path id="Path_71941" data-name="Path 71941" d="M465.13 497.9a1.018 1.018 0 0 1-.067.385.828.828 0 0 1-.184.288.762.762 0 0 1-.288.171 1.121 1.121 0 0 1-.379.061 1.1 1.1 0 0 1-.373-.061.913.913 0 0 1-.288-.184.842.842 0 0 1-.184-.281 1.029 1.029 0 0 1-.067-.379 1.011 1.011 0 0 1 .067-.373.842.842 0 0 1 .184-.281.912.912 0 0 1 .288-.184 1.1 1.1 0 0 1 .373-.061 1.03 1.03 0 0 1 .379.067.761.761 0 0 1 .471.465.965.965 0 0 1 .068.367zm-1.224 0a.549.549 0 0 0 .086.33.263.263 0 0 0 .226.11.258.258 0 0 0 .226-.116.7.7 0 0 0 0-.649.279.279 0 0 0-.233-.11.263.263 0 0 0-.226.11.569.569 0 0 0-.079.325z" transform="translate(-420.85 -170.881)" fill-rule="evenodd"/><path id="Path_71942" data-name="Path 71942" d="M498 487.479a.682.682 0 0 1 .061-.306.587.587 0 0 1 .171-.214.68.68 0 0 1 .245-.116 1.024 1.024 0 0 1 .3-.043.759.759 0 0 1 .379.073.237.237 0 0 1 .122.226.261.261 0 0 1-.031.128.231.231 0 0 1-.061.086 1.431 1.431 0 0 0-.141-.031.937.937 0 0 0-.165-.012.469.469 0 0 0-.233.049.186.186 0 0 0-.086.177v.11h.575a.636.636 0 0 1 .037.1.315.315 0 0 1 .024.129.244.244 0 0 1-.055.177.213.213 0 0 1-.147.049h-.4v1.108a.566.566 0 0 1-.1.024q-.08.006-.159.006t-.135-.006a.266.266 0 0 1-.1-.043.2.2 0 0 1-.067-.086.348.348 0 0 1-.024-.141z" transform="translate(-453.427 -161.305)"/><path id="Path_71943" data-name="Path 71943" d="M536.087 491a.363.363 0 0 1 .043.1.358.358 0 0 1 .024.135.268.268 0 0 1-.061.2.207.207 0 0 1-.153.055h-.734v.392h.765a.856.856 0 0 1 .049.1.47.47 0 0 1 .018.135.258.258 0 0 1-.061.19.207.207 0 0 1-.153.055h-.612v.74l-.122.018a1.045 1.045 0 0 1-.159.012.723.723 0 0 1-.141-.012.269.269 0 0 1-.1-.043.2.2 0 0 1-.061-.092.366.366 0 0 1-.025-.147v-1.517a.3.3 0 0 1 .324-.324z" transform="translate(-487.787 -165.248)"/><path id="Path_71944" data-name="Path 71944" d="M563.594 498.838a.581.581 0 0 1-.11.024q-.074.006-.153.006c-.053 0-.1 0-.141-.006a.265.265 0 0 1-.1-.043.2.2 0 0 1-.067-.086.349.349 0 0 1-.024-.141v-1.046a.287.287 0 0 1 .031-.141.4.4 0 0 1 .086-.1.646.646 0 0 1 .141-.08 1.468 1.468 0 0 1 .177-.067q.092-.024.2-.043a1.621 1.621 0 0 1 .2-.012.493.493 0 0 1 .263.061.241.241 0 0 1 .1.214.332.332 0 0 1-.012.092.9.9 0 0 1-.037.086q-.074 0-.153.006l-.147.024q-.073.012-.141.031a.438.438 0 0 0-.11.037z" transform="translate(-514.449 -170.974)"/><path id="Path_71945" data-name="Path 71945" d="M586.5 497.737a.791.791 0 0 1 .11-.025.932.932 0 0 1 .153-.012.724.724 0 0 1 .141.012.266.266 0 0 1 .1.043.166.166 0 0 1 .061.086.349.349 0 0 1 .024.141v.753a.262.262 0 0 0 .067.2.306.306 0 0 0 .2.061.582.582 0 0 0 .135-.012.293.293 0 0 0 .079-.031v-1.218a.579.579 0 0 1 .11-.025.93.93 0 0 1 .153-.012.723.723 0 0 1 .141.012.217.217 0 0 1 .1.043.205.205 0 0 1 .067.086.349.349 0 0 1 .025.141v1.059a.284.284 0 0 1-.147.263.868.868 0 0 1-.294.116 1.512 1.512 0 0 1-.367.043 1.34 1.34 0 0 1-.349-.043.819.819 0 0 1-.275-.129.546.546 0 0 1-.177-.226.8.8 0 0 1-.061-.33z" transform="translate(-536.511 -171.538)"/><path id="Path_71946" data-name="Path 71946" d="M619.5 485.312a.312.312 0 0 1 .086-.22.323.323 0 0 1 .239-.092.314.314 0 0 1 .324.312.308.308 0 0 1-.092.226.3.3 0 0 1-.232.092.323.323 0 0 1-.239-.092.319.319 0 0 1-.086-.226zm.618 2.166-.11.018a1.009 1.009 0 0 1-.153.012q-.079 0-.141-.006a.216.216 0 0 1-.1-.043.2.2 0 0 1-.067-.086.348.348 0 0 1-.024-.141v-1.42a1.089 1.089 0 0 1 .116-.025.928.928 0 0 1 .153-.012.686.686 0 0 1 .135.012.267.267 0 0 1 .1.043.2.2 0 0 1 .067.086.454.454 0 0 1 .018.141z" transform="translate(-567.492 -159.615)"/><path id="Path_71947" data-name="Path 71947" d="M636.487 493.193a.153.153 0 0 0 .055.129.32.32 0 0 0 .165.037q.049 0 .11-.006t.1-.024a.293.293 0 0 1 .049.086.22.22 0 0 1 .025.11.279.279 0 0 1-.1.22.569.569 0 0 1-.349.08.739.739 0 0 1-.477-.135.572.572 0 0 1-.165-.459v-1.493a.784.784 0 0 1 .11-.024.938.938 0 0 1 .153-.012.44.44 0 0 1 .239.055.259.259 0 0 1 .086.233v.22h.459a.638.638 0 0 1 .037.1.408.408 0 0 1 .018.129.264.264 0 0 1-.049.177.213.213 0 0 1-.147.049h-.318z" transform="translate(-582.889 -165.905)"/><path id="Path_71948" data-name="Path 71948" d="M659.375 498.148a.5.5 0 0 1-.2.416.961.961 0 0 1-.587.153 1.468 1.468 0 0 1-.275-.025.779.779 0 0 1-.214-.061.562.562 0 0 1-.141-.11.263.263 0 0 1-.049-.159.25.25 0 0 1 .037-.141.271.271 0 0 1 .08-.1 1.535 1.535 0 0 0 .233.1 1.008 1.008 0 0 0 .306.043.374.374 0 0 0 .165-.031.09.09 0 0 0 .055-.08.093.093 0 0 0-.043-.079.394.394 0 0 0-.135-.043l-.11-.025a.929.929 0 0 1-.447-.184.453.453 0 0 1-.153-.367.489.489 0 0 1 .055-.232.6.6 0 0 1 .159-.177.837.837 0 0 1 .245-.1 1.069 1.069 0 0 1 .312-.043 1.184 1.184 0 0 1 .245.024.855.855 0 0 1 .2.055.347.347 0 0 1 .129.1.228.228 0 0 1 .049.147.331.331 0 0 1-.024.135.27.27 0 0 1-.08.1.3.3 0 0 0-.08-.037q-.055-.018-.122-.037l-.135-.024a.72.72 0 0 0-.128-.012.433.433 0 0 0-.177.031.083.083 0 0 0-.061.08.072.072 0 0 0 .037.061.379.379 0 0 0 .128.049l.11.024a1 1 0 0 1 .477.208.461.461 0 0 1 .141.349z" transform="translate(-603.543 -170.787)"/><path id="Path_71949" data-name="Path 71949" d="M700.7 507.161a.759.759 0 0 1-.545-.226.484.484 0 0 0-.667 0 .745.745 0 0 1-.538.226.759.759 0 0 1-.545-.226.48.48 0 0 0-.667 0 .761.761 0 0 1-1.083 0 .484.484 0 0 0-.667 0 .146.146 0 0 1-.208.006.153.153 0 0 1-.006-.214.769.769 0 0 1 .545-.226.758.758 0 0 1 .545.226.473.473 0 0 0 .667 0 .749.749 0 0 1 .545-.226.745.745 0 0 1 .538.226.473.473 0 0 0 .667 0 .758.758 0 0 1 .544-.226.769.769 0 0 1 .545.226.465.465 0 0 0 .661 0 .769.769 0 0 1 .544-.226.759.759 0 0 1 .545.226.16.16 0 0 1 0 .214.146.146 0 0 1-.208-.006.484.484 0 0 0-.667 0 .759.759 0 0 1-.545.226z" transform="translate(-639.064 -179.799)"/><path id="Path_71950" data-name="Path 71950" d="M19.992 507.161a.748.748 0 0 1-.545-.226.484.484 0 0 0-.667 0 .759.759 0 0 1-.545.226.745.745 0 0 1-.538-.226.487.487 0 0 0-.337-.135.473.473 0 0 0-.33.135.768.768 0 0 1-1.089 0 .484.484 0 0 0-.667 0 .146.146 0 0 1-.208.006.159.159 0 0 1 0-.214.759.759 0 0 1 .545-.226.769.769 0 0 1 .545.226.465.465 0 0 0 .661 0 .769.769 0 0 1 .545-.226.759.759 0 0 1 .545.226.473.473 0 0 0 .667 0 .761.761 0 0 1 1.083 0 .473.473 0 0 0 .667 0 .759.759 0 0 1 .545-.226.769.769 0 0 1 .545.226.153.153 0 0 1-.006.214.146.146 0 0 1-.208-.006.484.484 0 0 0-.667 0 .745.745 0 0 1-.541.226z" transform="translate(-.005 -179.799)"/><path id="Path_71951" data-name="Path 71951" d="M803.587 363.725a.114.114 0 0 1 .006.037.087.087 0 0 1-.012.049.059.059 0 0 1-.043.018h-.165v.594a.068.068 0 0 1-.031.006.137.137 0 0 1-.043.006.085.085 0 0 1-.061-.018.075.075 0 0 1-.018-.055v-.532h-.2a.245.245 0 0 1-.012-.031.067.067 0 0 1-.006-.031.071.071 0 0 1 .012-.049.059.059 0 0 1 .043-.018h.52a.065.065 0 0 1 .01.024z" transform="translate(-739.764 -45.737)"/><path id="Path_71952" data-name="Path 71952" d="M814.477 364.151a.194.194 0 0 1-.037.012.134.134 0 0 1-.043.006.158.158 0 0 1-.049-.006.039.039 0 0 1-.031-.031q-.049-.122-.086-.208t-.049-.147h-.006q-.006.08-.006.147t-.006.135q-.006.061-.006.129t-.006.141a.068.068 0 0 1-.031.006.117.117 0 0 1-.037.006q-.086 0-.086-.061a.494.494 0 0 1 .006-.061.868.868 0 0 1 .006-.092c0-.037 0-.075.006-.116s0-.084.006-.129.008-.084.012-.128a1.049 1.049 0 0 1 .006-.116.069.069 0 0 1 .037-.025.137.137 0 0 1 .061-.012.122.122 0 0 1 .073.018.074.074 0 0 1 .043.049l.037.08q.019.043.037.092a.6.6 0 0 0 .031.092l.037.086q.043-.116.086-.22t.067-.177a.188.188 0 0 1 .037-.012.2.2 0 0 1 .049-.006.11.11 0 0 1 .067.018.055.055 0 0 1 .031.037.661.661 0 0 1 .012.073l.012.11.012.135.012.141q.006.068.006.122a.843.843 0 0 1 .006.086l-.031.012a.137.137 0 0 1-.043.006.121.121 0 0 1-.055-.012.049.049 0 0 1-.024-.049l-.012-.147a1.337 1.337 0 0 0-.006-.135v-.122a.872.872 0 0 1-.006-.092h-.006q-.018.055-.055.141t-.08.226z" transform="translate(-750.091 -45.643)"/></g></g></g></svg>