<svg xmlns:xlink="http://www.w3.org/1999/xlink" xmlns="http://www.w3.org/2000/svg" width="76" height="76" viewBox="0 0 60.56 60.56"><defs><linearGradient id="linear-gradient" x1=".155" y1=".161" x2=".813" y2=".914" gradientUnits="objectBoundingBox"><stop offset="0" stop-color="#ff720b"/><stop offset="1" stop-color="#c216e2"/></linearGradient></defs><g id="Olio_sel" transform="translate(7625.45 9722.46)"><path id="Subtraction_88" data-name="Subtraction 88" d="M30.28 0A30.28 30.28 0 1 1 0 30.28 30.28 30.28 0 0 1 30.28 0z" transform="translate(-7625.45 -9722.46)" fill="url(#linear-gradient)"/><g id="olio" transform="translate(-7615.45 -9709.313)" fill="#fff"><path id="Path_1" data-name="Path 1" d="M1993.905 1855.647a5.091 5.091 0 0 0-.779 1.881 2.305 2.305 0 0 0 .759 1.9c.206.194.439.353.658.533a1.159 1.159 0 0 1 .283.3c.213.553-.3 1.137-.615 1.54-.4.509.548 1.567 1 .984a3.2 3.2 0 0 0 .824-1.8 2.387 2.387 0 0 0-.826-1.838c-.213-.188-.447-.344-.662-.525a.666.666 0 0 1-.256-.33 2.474 2.474 0 0 1 .339-1.672.794.794 0 0 0-.2-.926c-.183-.179-.35-.368-.524-.058z" transform="translate(-1973.783 -1852.941)"/><path id="Path_2" data-name="Path 2" d="M1956.238 1886.7a3.8 3.8 0 0 0-.78 1.545 1.738 1.738 0 0 0 .76 1.564c.2.159.438.29.657.434a1.061 1.061 0 0 1 .284.25c.213.455-.3.933-.614 1.264-.4.419.547 1.287 1 .809a2.439 2.439 0 0 0 .823-1.473 1.843 1.843 0 0 0-.825-1.51c-.213-.154-.446-.282-.661-.426a.576.576 0 0 1-.257-.271 1.738 1.738 0 0 1 .339-1.372.574.574 0 0 0-.2-.76c-.183-.148-.348-.3-.523-.049z" transform="translate(-1940.129 -1880.715)"/><path id="Path_3" data-name="Path 3" d="M2037.141 1831.719a5.968 5.968 0 0 0-.78 2.067 2.568 2.568 0 0 0 .774 2.038c.184.188.4.347.592.523s.29.244.352.463c.176.623-.3 1.247-.631 1.723-.373.533.578 1.584 1 .984a3.672 3.672 0 0 0 .823-1.952 2.647 2.647 0 0 0-.834-1.977c-.187-.186-.4-.342-.594-.521a1.389 1.389 0 0 1-.2-.206.567.567 0 0 1-.115-.252 2.585 2.585 0 0 1 .338-1.77.8.8 0 0 0-.2-.925c-.176-.171-.366-.514-.525-.195z" transform="translate(-2012.412 -1831.59)"/><path id="Path_4" data-name="Path 4" d="M2011.35 2019.123v-.852c0-.4-.356-.692-1.075-.88-.063.033-.095.066-.095.1v1.172a7.568 7.568 0 0 1 1.139.456z" transform="translate(-1989.031 -1997.597)"/><path id="Path_5" data-name="Path 5" d="M1859.116 1924.926a41.1 41.1 0 0 0-1.552-5.228c-.657-1.991-1.3-3.987-1.982-5.966q-.542-1.585-1.113-3.16c-.093-.254-.325-.676-.65-.656s-.3.46-.223.671c1.391 3.835 2.643 7.717 3.916 11.589a13.15 13.15 0 0 1 .842 4.362 3.314 3.314 0 0 1-.541 1.917 2.844 2.844 0 0 1-2.146.92c-1.065.087-2.157.054-3.23.069l-3.472.051-7.008.106-6.945.107c-.584.008-1.172.018-1.751.024a6.569 6.569 0 0 1-1.51-.095 2.767 2.767 0 0 1-1.769-1.42 9.35 9.35 0 0 0-1.5-2.034 5.364 5.364 0 0 0-2.3-1.145c-.844-.217-1.7-.331-2.535-.591-.4-.126-1.125-.292-1.341-.7-.367-.69 1.266-1.373 1.669-1.58 1.357-.7 2.6-1.533 3.88-2.355q2.837-1.811 5.71-3.573c3.835-2.344 7.719-4.647 11.671-6.8a28.721 28.721 0 0 1 3.02-1.469 1.6 1.6 0 0 1 1.312-.136 1.418 1.418 0 0 1 .565.746c.411.894.737 1.945 1.1 2.9.4 1.077.807 2.154 1.2 3.237.734 2.05 1.438 4.127 2 6.231a5.692 5.692 0 0 1 .2 2.849c-.013.047-.028.094-.042.139-.027.078-.026.055-.02.048a.968.968 0 0 1-.061.088c-.01.012-.059.063-.071.078a.875.875 0 0 1-.268.131c-.023 0-.048.008-.072.01a6.06 6.06 0 0 1-2.852-.842q-.347-.162-.693-.329-.554-1.82-1.354-1.821h-.334v.1a2.983 2.983 0 0 1 1.055 1.412 21.006 21.006 0 0 0-1.96-.865 1.452 1.452 0 0 1 1.192-.793c.466 0 .871.344 1.193 1.033h.1a1.742 1.742 0 0 0-1.811-1.87 2.748 2.748 0 0 0-1 .246 4.278 4.278 0 0 0-2.149 3.906q-1.258 2.379-1.9 2.38c-.2 0-.333-.356-.381-1.082 0-.577.012-1.956.048-4.134 0-.59-.533-1.021-1.624-1.278a.283.283 0 0 0-.144.049 213.92 213.92 0 0 0-.046 3.59c-.083.191-.179.437-.288.746-.764 1.514-1.313 2.264-1.624 2.264s-.426-.432-.483-.679a14.4 14.4 0 0 1-.269-2.819q.47-.938.853-1.917c.716-1.826 1.455-4.155.763-6.11a2.183 2.183 0 0 0-.5-.829 1.063 1.063 0 0 0-.533.464.616.616 0 0 1 .4-.054c.213.05.233.365.275.575a6.522 6.522 0 0 1 .011 2.224 15.943 15.943 0 0 1-1.258 4.064v-.009c.027-1.478-.012-2.958.032-4.435a6.3 6.3 0 0 1 .35-2.344l.023-.046a1.294 1.294 0 0 1 .562-.551.89.89 0 0 0-.213-.115c-.46-.163-.908.2-1.234.515-.04.036-.077.074-.114.114l-.017.016v.008a3 3 0 0 0-.757 2.036c-.015.93-.042 1.851-.073 2.779a96.428 96.428 0 0 0-.059 3.227v1.591a2.896 2.896 0 0 1-.075.117 9.554 9.554 0 0 1-1.025 1.331 4.287 4.287 0 0 0 .175-1.258l-.095-.934q-.608-2.658-1.576-2.663h-.334v.1a4.006 4.006 0 0 1 1.385 3.494c-.084 1.55-.561 2.461-1.433 2.756h-.238a.62.62 0 0 1-.286-.1 3.518 3.518 0 0 1-1.1-2.756v-.344a4.166 4.166 0 0 1 .095-.935q.7-2.362 1.862-2.362c.465 0 .871.344 1.193 1.033h.1a1.741 1.741 0 0 0-1.811-1.87 2.744 2.744 0 0 0-1 .246 3.88 3.88 0 0 0-1.754 1.917 5.157 5.157 0 0 0-.4 2.107c0 1.436.41 3.942 2.294 3.942a2.086 2.086 0 0 0 .426-.049 4.821 4.821 0 0 0 1.231-.607 9.146 9.146 0 0 0 2.418-1.957c.139 1.666.551 2.5 1.236 2.5h.143a2.025 2.025 0 0 0 1.241-.738 11.294 11.294 0 0 0 1.481-2.329v.065a5.5 5.5 0 0 0 .095 1.278c.167 1.144.49 1.722.959 1.722h.19c.346 0 .787-.283 1.337-.837a18.783 18.783 0 0 0 1.492-2.195c.347 2.087 1.1 3.142 2.267 3.142a2.1 2.1 0 0 0 .426-.049 3.525 3.525 0 0 0 2.674-3.593l-.045-.438a12.822 12.822 0 0 0 2.685 1.066 2.321 2.321 0 0 0 1.373.012 1.371 1.371 0 0 0 .746-1.194 8.019 8.019 0 0 0-.3-3.3c-.28-1.078-.627-2.131-.959-3.2-.721-2.27-1.559-4.5-2.4-6.73-.213-.578-.433-1.154-.648-1.731a11.59 11.59 0 0 0-.584-1.418 2.337 2.337 0 0 0-2.3-1.527 6.769 6.769 0 0 0-1.6.586c-.532.24-1.047.5-1.561.768-1.037.544-2.053 1.126-3.072 1.7q-3.117 1.766-6.194 3.6-6.129 3.654-12.091 7.576c-.486.32-.977.632-1.454.959a2.783 2.783 0 0 0-.952.966c-.544 1.052.29 2.143 1.19 2.645a8.776 8.776 0 0 0 2.576.834 7.7 7.7 0 0 1 2.51.786 5.16 5.16 0 0 1 1.541 1.852 4.942 4.942 0 0 0 1.9 1.952 6.963 6.963 0 0 0 3.2.376l3.662-.053 14.711-.213c1.124-.017 2.266.026 3.386-.08a3.371 3.371 0 0 0 2.362-1.007c1.039-1.244.839-3.25.555-4.743zm-8.869-.044c-.084 1.55-.562 2.461-1.433 2.756h-.239a.616.616 0 0 1-.286-.1 3.519 3.519 0 0 1-1.1-2.756v-.344a4.141 4.141 0 0 1 .1-.936q.077-.266.163-.5a5.739 5.739 0 0 1 .852.279c.6.231 1.172.51 1.747.785l.16.078a6.8 6.8 0 0 1 .036.739z" transform="translate(-1820.323 -1898.931)"/><path id="Path_6" data-name="Path 6" d="M.482 324.786v-1.232H0v-.3h1.306v.3H.824v1.232z" transform="translate(0 -288.813)"/><path id="Path_7" data-name="Path 7" d="M.642 324.912v-1.232H.16v-.271h1.272v.271H.948v1.232z" transform="translate(-.143 -288.956)"/><path id="Path_8" data-name="Path 8" d="M.562 324.849v-1.232H.08v-.288h1.289v.288H.885v1.232z" transform="translate(-.071 -288.884)"/><path id="Path_9" data-name="Path 9" d="M.722 324.975v-1.232H.24v-.254H1.5v.254h-.489v1.232z" transform="translate(-.214 -289.027)"/><path id="Path_10" data-name="Path 10" d="M.562 324.849v-1.232H.08v-.288h1.289v.288H.885v1.232z" transform="translate(-.071 -288.884)"/><path id="Path_11" data-name="Path 11" d="M.722 324.975v-1.232H.24v-.254H1.5v.254h-.489v1.232z" transform="translate(-.214 -289.027)"/><path id="Path_12" data-name="Path 12" d="M.642 324.912v-1.232H.16v-.271h1.272v.271H.948v1.232z" transform="translate(-.143 -288.956)"/><path id="Path_13" data-name="Path 13" d="M1812.753 2155.4v1.232h-.273v-1.232h-.48v-.235h1.237v.235z" transform="translate(-1811.965 -2120.689)"/><path id="Path_14" data-name="Path 14" d="M19.238 324.786v-.609h-.6v.609H18.3v-1.536h.337v.609h.6v-.609h.335v1.536z" transform="translate(-16.35 -288.813)"/><path id="Path_15" data-name="Path 15" d="M19.4 324.912v-.612h-.635v.609h-.3v-1.5h.3v.609h.635v-.609h.3v1.5z" transform="translate(-16.493 -288.956)"/><path id="Path_16" data-name="Path 16" d="M19.318 324.849v-.609H18.7v.609h-.32v-1.519h.32v.609h.618v-.609h.317v1.519z" transform="translate(-16.422 -288.884)"/><path id="Path_17" data-name="Path 17" d="M19.478 324.975v-.609h-.653v.609h-.285v-1.485h.284v.609h.653v-.609h.283v1.485z" transform="translate(-16.565 -289.027)"/><path id="Path_18" data-name="Path 18" d="M19.318 324.849v-.609H18.7v.609h-.32v-1.519h.32v.609h.618v-.609h.317v1.519z" transform="translate(-16.422 -288.884)"/><path id="Path_19" data-name="Path 19" d="M19.478 324.975v-.609h-.653v.609h-.285v-1.485h.284v.609h.653v-.609h.283v1.485z" transform="translate(-16.565 -289.027)"/><path id="Path_20" data-name="Path 20" d="M19.4 324.912v-.612h-.636v.609h-.3v-1.5h.3v.609h.636v-.609h.3v1.5z" transform="translate(-16.493 -288.956)"/><path id="Path_21" data-name="Path 21" d="M1831.228 2156.627v-.61h-.67v.61h-.267v-1.467h.267v.609h.67v-.609h.266v1.467z" transform="translate(-1828.306 -2120.688)"/><path id="Path_22" data-name="Path 22" d="M37.63 324.786v-1.536h1.137v.309h-.807v.3h.775v.31h-.775v.306h.815v.309z" transform="translate(-33.621 -288.813)"/><path id="Path_23" data-name="Path 23" d="M37.79 324.912v-1.5h1.1v.275h-.805v.337h.775v.276h-.775v.341h.815v.274z" transform="translate(-33.764 -288.956)"/><path id="Path_24" data-name="Path 24" d="M37.71 324.849v-1.519h1.12v.292h-.806v.32h.776v.293h-.775v.324h.815v.291z" transform="translate(-33.692 -288.884)"/><path id="Path_25" data-name="Path 25" d="M37.87 324.975v-1.485h1.085v.257h-.805v.355h.775v.259h-.775v.358h.815v.257z" transform="translate(-33.835 -289.027)"/><path id="Path_26" data-name="Path 26" d="M37.71 324.849v-1.519h1.12v.292h-.806v.32h.776v.293h-.775v.324h.815v.291z" transform="translate(-33.692 -288.884)"/><path id="Path_27" data-name="Path 27" d="M37.87 324.975v-1.485h1.085v.257h-.805v.355h.775v.259h-.775v.358h.815v.257z" transform="translate(-33.835 -289.027)"/><path id="Path_28" data-name="Path 28" d="M37.79 324.912v-1.5h1.1v.274h-.805v.338h.775v.276h-.775v.341h.815v.274z" transform="translate(-33.764 -288.956)"/><path id="Path_29" data-name="Path 29" d="M1849.62 2156.627v-1.467h1.065v.24h-.806v.372h.774v.241h-.774v.375h.815v.24z" transform="translate(-1845.577 -2120.688)"/><path id="Path_30" data-name="Path 30" d="M63.82 323.241h.344l.293 1.025.245-1.011.348-.014.263 1.026.279-1.013.338-.014-.44 1.537h-.344l-.265-1.019-.26 1-.346.015z" transform="translate(-57.021 -288.804)"/><path id="Path_31" data-name="Path 31" d="m65.348 324.912-.279-1.07-.269 1.058-.322.014-.444-1.5h.309l.307 1.075.258-1.061.321-.014.276 1.075.293-1.062.3-.013-.429 1.5z" transform="translate(-57.208 -288.956)"/><path id="Path_32" data-name="Path 32" d="M63.92 323.33h.333l.294 1.049.253-1.042.34-.007.263 1.049.287-1.043.319-.006-.435 1.519h-.338l-.265-1.043-.267 1.036-.34.007z" transform="translate(-57.11 -288.884)"/><path id="Path_33" data-name="Path 33" d="m65.446 324.975-.279-1.1-.281 1.09-.313.006-.433-1.485h.3l.308 1.1.265-1.093.313-.007.275 1.1.3-1.094.281-.006-.424 1.485z" transform="translate(-57.307 -289.027)"/><path id="Path_34" data-name="Path 34" d="M63.92 323.33h.333l.294 1.049.253-1.042.34-.007.263 1.049.287-1.043.319-.006-.435 1.519h-.338l-.265-1.043-.267 1.036-.34.007z" transform="translate(-57.11 -288.884)"/><path id="Path_35" data-name="Path 35" d="m65.446 324.975-.279-1.1-.281 1.09-.313.006-.433-1.485h.3l.308 1.1.265-1.093.313-.007.275 1.1.3-1.094.281-.006-.424 1.485z" transform="translate(-57.307 -289.027)"/><path id="Path_36" data-name="Path 36" d="m65.334 324.912-.265-1.069-.276 1.069h-.331l-.431-1.5h.322l.294 1.074.261-1.074h.331l.263 1.075.3-1.075h.3l-.429 1.5z" transform="translate(-57.208 -288.956)"/><path id="Path_37" data-name="Path 37" d="M1877.474 2156.627h-.3l-.278-1.122-.29 1.122h-.3l-.426-1.467h.287l.308 1.125.274-1.125h.3l.275 1.125.311-1.125h.261z" transform="translate(-1869.03 -2120.688)"/><path id="Path_38" data-name="Path 38" d="M1900.7 2156.236a.673.673 0 0 1-.575-.229.945.945 0 0 1-.145-.565.871.871 0 0 1 .139-.54.688.688 0 0 1 .581-.242.7.7 0 0 1 .583.234.864.864 0 0 1 .138.547.935.935 0 0 1-.146.564.66.66 0 0 1-.575.231zm0-1.279a.342.342 0 0 0-.284.107.6.6 0 0 0-.093.38.566.566 0 0 0 .107.4.348.348 0 0 0 .267.092.362.362 0 0 0 .277-.1.564.564 0 0 0 .107-.391.6.6 0 0 0-.092-.379.36.36 0 0 0-.289-.1z" transform="translate(-1890.569 -2120.242)"/><path id="Path_39" data-name="Path 39" d="M1900.85 2156.335a.66.66 0 0 1-.562-.223.922.922 0 0 1-.141-.555.85.85 0 0 1 .135-.532.812.812 0 0 1 1.136-.007.84.84 0 0 1 .134.533.91.91 0 0 1-.143.554.635.635 0 0 1-.559.23zm0-1.279a.356.356 0 0 0-.3.113.624.624 0 0 0-.1.392.583.583 0 0 0 .117.409.366.366 0 0 0 .279.1.375.375 0 0 0 .288-.107.583.583 0 0 0 .107-.4.612.612 0 0 0-.1-.391.369.369 0 0 0-.3-.107z" transform="translate(-1890.719 -2120.358)"/><path id="Path_40" data-name="Path 40" d="M1900.783 2156.317a.667.667 0 0 1-.568-.226.929.929 0 0 1-.143-.561.865.865 0 0 1 .137-.532.676.676 0 0 1 .573-.238.684.684 0 0 1 .576.231.857.857 0 0 1 .135.541.92.92 0 0 1-.145.559.655.655 0 0 1-.565.226zm0-1.279a.348.348 0 0 0-.291.106.61.61 0 0 0-.095.386.578.578 0 0 0 .114.4.36.36 0 0 0 .274.095.369.369 0 0 0 .284-.107.578.578 0 0 0 .107-.4.6.6 0 0 0-.1-.385.359.359 0 0 0-.3-.1z" transform="translate(-1890.652 -2120.331)"/><path id="Path_41" data-name="Path 41" d="M1900.923 2156.416a.649.649 0 0 1-.554-.22.914.914 0 0 1-.14-.549.85.85 0 0 1 .133-.525.66.66 0 0 1 .56-.232.67.67 0 0 1 .563.224.84.84 0 0 1 .132.533.9.9 0 0 1-.142.549.633.633 0 0 1-.552.22zm0-1.278a.362.362 0 0 0-.3.116.622.622 0 0 0-.1.4.588.588 0 0 0 .12.414.371.371 0 0 0 .286.1.387.387 0 0 0 .3-.106.591.591 0 0 0 .107-.41.618.618 0 0 0-.1-.4.382.382 0 0 0-.3-.112z" transform="translate(-1890.792 -2120.447)"/><path id="Path_42" data-name="Path 42" d="M1900.783 2156.317a.667.667 0 0 1-.568-.226.929.929 0 0 1-.143-.561.865.865 0 0 1 .137-.532.676.676 0 0 1 .573-.238.684.684 0 0 1 .576.231.857.857 0 0 1 .135.541.92.92 0 0 1-.145.559.655.655 0 0 1-.565.226zm0-1.279a.348.348 0 0 0-.291.106.61.61 0 0 0-.095.386.578.578 0 0 0 .114.4.36.36 0 0 0 .274.095.369.369 0 0 0 .284-.107.578.578 0 0 0 .107-.4.6.6 0 0 0-.1-.385.359.359 0 0 0-.3-.1z" transform="translate(-1890.652 -2120.331)"/><path id="Path_43" data-name="Path 43" d="M1900.923 2156.416a.649.649 0 0 1-.554-.22.914.914 0 0 1-.14-.549.85.85 0 0 1 .133-.525.66.66 0 0 1 .56-.232.67.67 0 0 1 .563.224.84.84 0 0 1 .132.533.9.9 0 0 1-.142.549.633.633 0 0 1-.552.22zm0-1.278a.362.362 0 0 0-.3.116.622.622 0 0 0-.1.4.588.588 0 0 0 .12.414.371.371 0 0 0 .286.1.387.387 0 0 0 .3-.106.591.591 0 0 0 .107-.41.618.618 0 0 0-.1-.4.382.382 0 0 0-.3-.112z" transform="translate(-1890.792 -2120.447)"/><path id="Path_44" data-name="Path 44" d="M1900.85 2156.335a.66.66 0 0 1-.562-.223.922.922 0 0 1-.141-.555.85.85 0 0 1 .135-.532.812.812 0 0 1 1.136-.007.84.84 0 0 1 .134.533.91.91 0 0 1-.143.554.635.635 0 0 1-.559.23zm0-1.279a.356.356 0 0 0-.3.113.633.633 0 0 0-.1.392.582.582 0 0 0 .118.409.366.366 0 0 0 .279.1.375.375 0 0 0 .289-.107.583.583 0 0 0 .107-.4.612.612 0 0 0-.1-.391.369.369 0 0 0-.3-.107z" transform="translate(-1890.719 -2120.358)"/><path id="Path_45" data-name="Path 45" d="M1901.572 2155.133a.844.844 0 0 1 .13.526.889.889 0 0 1-.14.543.625.625 0 0 1-.546.213.643.643 0 0 1-.548-.213.911.911 0 0 1-.137-.544.844.844 0 0 1 .132-.52.645.645 0 0 1 .553-.228.659.659 0 0 1 .556.223zm-.253.947a.6.6 0 0 0 .114-.415.625.625 0 0 0-.107-.4.389.389 0 0 0-.32-.117.377.377 0 0 0-.31.118.638.638 0 0 0-.106.4.6.6 0 0 0 .13.425.38.38 0 0 0 .292.106.392.392 0 0 0 .3-.114z" transform="translate(-1890.883 -2120.465)"/><path id="Path_46" data-name="Path 46" d="M1920.121 2156.227a.672.672 0 0 1-.575-.229.935.935 0 0 1-.145-.566.877.877 0 0 1 .138-.54.83.83 0 0 1 1.164-.007.869.869 0 0 1 .136.546.923.923 0 0 1-.146.565.658.658 0 0 1-.572.231zm0-1.278a.344.344 0 0 0-.286.107.61.61 0 0 0-.093.38.564.564 0 0 0 .107.4.352.352 0 0 0 .268.093.36.36 0 0 0 .276-.1.56.56 0 0 0 .107-.391.588.588 0 0 0-.093-.379.356.356 0 0 0-.287-.1z" transform="translate(-1907.921 -2120.233)"/><path id="Path_47" data-name="Path 47" d="M1920.263 2156.335a.658.658 0 0 1-.561-.223.923.923 0 0 1-.142-.555.863.863 0 0 1 .135-.532.813.813 0 0 1 1.137-.007.847.847 0 0 1 .133.533.912.912 0 0 1-.143.554.63.63 0 0 1-.559.23zm0-1.279a.36.36 0 0 0-.3.113.624.624 0 0 0-.1.392.584.584 0 0 0 .117.409.368.368 0 0 0 .28.1.381.381 0 0 0 .289-.107.59.59 0 0 0 .106-.4.6.6 0 0 0-.1-.391.37.37 0 0 0-.3-.107z" transform="translate(-1908.063 -2120.358)"/><path id="Path_48" data-name="Path 48" d="M1920.194 2156.317a.67.67 0 0 1-.569-.226.93.93 0 0 1-.143-.561.868.868 0 0 1 .137-.532.822.822 0 0 1 1.15-.006.854.854 0 0 1 .135.541.92.92 0 0 1-.144.559.658.658 0 0 1-.566.225zm0-1.279a.351.351 0 0 0-.292.106.61.61 0 0 0-.095.386.573.573 0 0 0 .115.4.356.356 0 0 0 .274.095.367.367 0 0 0 .282-.106.571.571 0 0 0 .107-.4.593.593 0 0 0-.095-.385.36.36 0 0 0-.3-.1z" transform="translate(-1907.994 -2120.331)"/><path id="Path_49" data-name="Path 49" d="M1920.335 2156.416a.65.65 0 0 1-.555-.22.911.911 0 0 1-.14-.549.85.85 0 0 1 .134-.525.659.659 0 0 1 .56-.232.667.667 0 0 1 .561.224.833.833 0 0 1 .132.533.9.9 0 0 1-.141.549.638.638 0 0 1-.551.22zm0-1.278a.36.36 0 0 0-.3.116.623.623 0 0 0-.1.4.588.588 0 0 0 .12.414.371.371 0 0 0 .286.1.388.388 0 0 0 .294-.106.59.59 0 0 0 .106-.41.606.606 0 0 0-.1-.4.38.38 0 0 0-.3-.112z" transform="translate(-1908.136 -2120.447)"/><path id="Path_50" data-name="Path 50" d="M1920.194 2156.317a.67.67 0 0 1-.569-.226.93.93 0 0 1-.143-.561.868.868 0 0 1 .137-.532.822.822 0 0 1 1.15-.006.854.854 0 0 1 .135.541.92.92 0 0 1-.144.559.658.658 0 0 1-.566.225zm0-1.279a.351.351 0 0 0-.292.106.61.61 0 0 0-.095.386.573.573 0 0 0 .115.4.356.356 0 0 0 .274.095.367.367 0 0 0 .282-.106.571.571 0 0 0 .107-.4.593.593 0 0 0-.095-.385.36.36 0 0 0-.3-.1z" transform="translate(-1907.994 -2120.331)"/><path id="Path_51" data-name="Path 51" d="M1920.335 2156.416a.65.65 0 0 1-.555-.22.911.911 0 0 1-.14-.549.85.85 0 0 1 .134-.525.659.659 0 0 1 .56-.232.667.667 0 0 1 .561.224.833.833 0 0 1 .132.533.9.9 0 0 1-.141.549.638.638 0 0 1-.551.22zm0-1.278a.36.36 0 0 0-.3.116.623.623 0 0 0-.1.4.588.588 0 0 0 .12.414.371.371 0 0 0 .286.1.388.388 0 0 0 .294-.106.59.59 0 0 0 .106-.41.606.606 0 0 0-.1-.4.38.38 0 0 0-.3-.112z" transform="translate(-1908.136 -2120.447)"/><path id="Path_52" data-name="Path 52" d="M1920.263 2156.335a.658.658 0 0 1-.561-.223.923.923 0 0 1-.142-.555.863.863 0 0 1 .135-.532.813.813 0 0 1 1.137-.007.847.847 0 0 1 .133.533.912.912 0 0 1-.143.554.63.63 0 0 1-.559.23zm0-1.279a.36.36 0 0 0-.3.113.639.639 0 0 0-.1.392.584.584 0 0 0 .117.409.367.367 0 0 0 .28.1.381.381 0 0 0 .289-.107.59.59 0 0 0 .106-.4.612.612 0 0 0-.1-.391.369.369 0 0 0-.3-.107z" transform="translate(-1908.063 -2120.358)"/><path id="Path_53" data-name="Path 53" d="M1920.963 2155.133a.838.838 0 0 1 .13.526.882.882 0 0 1-.14.543.625.625 0 0 1-.545.213.646.646 0 0 1-.549-.213.913.913 0 0 1-.138-.544.854.854 0 0 1 .132-.52.8.8 0 0 1 1.109-.005zm-.252.947a.6.6 0 0 0 .113-.415.619.619 0 0 0-.107-.4.386.386 0 0 0-.313-.117.375.375 0 0 0-.31.118.64.64 0 0 0-.106.4.6.6 0 0 0 .122.421.375.375 0 0 0 .291.106.393.393 0 0 0 .308-.11z" transform="translate(-1908.208 -2120.465)"/><path id="Path_54" data-name="Path 54" d="M1939.57 2156.376v-1.536h.7a.57.57 0 0 1 .474.17.838.838 0 0 1 .133.575.935.935 0 0 1-.122.6.541.541 0 0 1-.466.19zm.662-.309a.3.3 0 0 0 .246-.08.748.748 0 0 0 .063-.4c0-.2-.022-.32-.067-.361a.294.294 0 0 0-.24-.076h-.329v.918z" transform="translate(-1925.944 -2120.403)"/><path id="Path_55" data-name="Path 55" d="M1939.73 2156.5v-1.5h.687a.557.557 0 0 1 .461.164.83.83 0 0 1 .128.565.931.931 0 0 1-.118.589.527.527 0 0 1-.452.183zm.639-.273a.314.314 0 0 0 .259-.086.726.726 0 0 0 .067-.412.611.611 0 0 0-.073-.374.308.308 0 0 0-.251-.08h-.346v.951z" transform="translate(-1926.087 -2120.545)"/><path id="Path_56" data-name="Path 56" d="M1939.65 2156.438v-1.518h.7a.564.564 0 0 1 .468.167.834.834 0 0 1 .13.57.944.944 0 0 1-.119.594.534.534 0 0 1-.459.186zm.653-.291a.308.308 0 0 0 .253-.083.749.749 0 0 0 .065-.406.6.6 0 0 0-.071-.368.3.3 0 0 0-.245-.078h-.337v.935z" transform="translate(-1926.016 -2120.474)"/><path id="Path_57" data-name="Path 57" d="M1939.81 2156.554v-1.484h.679a.55.55 0 0 1 .455.161.824.824 0 0 1 .126.56.916.916 0 0 1-.116.583.519.519 0 0 1-.446.18zm.639-.257a.321.321 0 0 0 .265-.089.722.722 0 0 0 .07-.418.6.6 0 0 0-.076-.379.312.312 0 0 0-.258-.083h-.356v.969z" transform="translate(-1926.158 -2120.608)"/><path id="Path_58" data-name="Path 58" d="M1939.65 2156.438v-1.518h.7a.564.564 0 0 1 .468.167.834.834 0 0 1 .13.57.944.944 0 0 1-.119.594.534.534 0 0 1-.459.186zm.653-.291a.308.308 0 0 0 .253-.083.749.749 0 0 0 .065-.406.6.6 0 0 0-.071-.368.3.3 0 0 0-.245-.078h-.337v.935z" transform="translate(-1926.016 -2120.474)"/><path id="Path_59" data-name="Path 59" d="M1939.81 2156.554v-1.484h.679a.55.55 0 0 1 .455.161.824.824 0 0 1 .126.56.916.916 0 0 1-.116.583.519.519 0 0 1-.446.18zm.639-.257a.321.321 0 0 0 .265-.089.722.722 0 0 0 .07-.418.6.6 0 0 0-.076-.379.312.312 0 0 0-.258-.083h-.356v.969z" transform="translate(-1926.158 -2120.608)"/><path id="Path_60" data-name="Path 60" d="M1939.73 2156.5v-1.5h.687a.557.557 0 0 1 .461.164.83.83 0 0 1 .128.565.931.931 0 0 1-.118.589.527.527 0 0 1-.452.183zm.639-.273a.314.314 0 0 0 .259-.086.746.746 0 0 0 .068-.412.6.6 0 0 0-.073-.374.308.308 0 0 0-.251-.08h-.347v.951z" transform="translate(-1926.087 -2120.545)"/><path id="Path_61" data-name="Path 61" d="M1940.579 2156.627h-.689v-1.467h.67a.534.534 0 0 1 .448.158.842.842 0 0 1 .125.554.916.916 0 0 1-.115.58.494.494 0 0 1-.439.175zm.282-.754a.614.614 0 0 0-.078-.386.328.328 0 0 0-.264-.085h-.365v.986h.362a.331.331 0 0 0 .272-.091.737.737 0 0 0 .071-.424z" transform="translate(-1926.23 -2120.688)"/><path id="Rectangle_1" data-name="Rectangle 1" transform="translate(15.534 35.099)" d="M0 0h.871v.317H0z"/><path id="Rectangle_2" data-name="Rectangle 2" transform="translate(15.551 35.116)" d="M0 0h.837v.283H0z"/><path id="Rectangle_3" data-name="Rectangle 3" transform="translate(15.543 35.108)" d="M0 0h.854v.3H0z"/><path id="Rectangle_4" data-name="Rectangle 4" transform="translate(15.561 35.125)" d="M0 0h.819v.266H0z"/><path id="Rectangle_5" data-name="Rectangle 5" transform="translate(15.543 35.108)" d="M0 0h.854v.3H0z"/><path id="Rectangle_6" data-name="Rectangle 6" transform="translate(15.561 35.125)" d="M0 0h.819v.266H0z"/><path id="Rectangle_7" data-name="Rectangle 7" transform="translate(15.552 35.116)" d="M0 0h.836v.283H0z"/><path id="Path_62" data-name="Path 62" d="M1957.81 2161.618v-.248h.8v.248z" transform="translate(-1942.24 -2126.237)"/><path id="Path_63" data-name="Path 63" d="M160.28 324.786v-1.536h1.12v.309h-.787v.3h.746v.312h-.746v.615z" transform="translate(-143.204 -288.813)"/><path id="Path_64" data-name="Path 64" d="M160.44 324.912v-1.5h1.089v.275h-.787v.335h.747v.278h-.747v.615z" transform="translate(-143.347 -288.956)"/><path id="Path_65" data-name="Path 65" d="M160.36 324.849v-1.519h1.107v.292h-.788v.317h.747v.3h-.747v.615z" transform="translate(-143.276 -288.884)"/><path id="Path_66" data-name="Path 66" d="M160.52 324.975v-1.485h1.072v.257h-.792v.353h.747v.261h-.747v.615z" transform="translate(-143.419 -289.027)"/><path id="Path_67" data-name="Path 67" d="M160.36 324.849v-1.519h1.107v.292h-.788v.317h.747v.3h-.747v.615z" transform="translate(-143.276 -288.884)"/><path id="Path_68" data-name="Path 68" d="M160.52 324.975v-1.485h1.072v.257h-.792v.353h.747v.261h-.747v.615z" transform="translate(-143.419 -289.027)"/><path id="Path_69" data-name="Path 69" d="M160.44 324.912v-1.5h1.089v.274h-.787v.336h.747v.278h-.747v.615z" transform="translate(-143.347 -288.956)"/><path id="Path_70" data-name="Path 70" d="M1972.537 2155.4v.37h.746v.243h-.746v.615h-.268v-1.467h1.055v.24z" transform="translate(-1955.16 -2120.688)"/><path id="Rectangle_8" data-name="Rectangle 8" transform="translate(18.893 34.437)" d="M0 0h.342v1.536H0z"/><path id="Rectangle_9" data-name="Rectangle 9" transform="translate(18.91 34.454)" d="M0 0h.308v1.502H0z"/><path id="Rectangle_10" data-name="Rectangle 10" transform="translate(18.902 34.446)" d="M0 0h.325v1.519H0z"/><path id="Rectangle_11" data-name="Rectangle 11" transform="translate(18.919 34.463)" d="M0 0h.29v1.484H0z"/><path id="Rectangle_12" data-name="Rectangle 12" transform="translate(18.902 34.446)" d="M0 0h.325v1.519H0z"/><path id="Rectangle_13" data-name="Rectangle 13" transform="translate(18.919 34.463)" d="M0 0h.29v1.484H0z"/><path id="Rectangle_14" data-name="Rectangle 14" transform="translate(18.91 34.454)" d="M0 0h.308v1.501H0z"/><path id="Path_71" data-name="Path 71" d="M1989.33 2156.627v-1.467h.273v1.467z" transform="translate(-1970.402 -2120.688)"/><path id="Path_72" data-name="Path 72" d="m2000.575 2156.356-.313-.6-.359.009v.6h-.333v-1.536h.8a.4.4 0 0 1 .381.187.521.521 0 0 1 .06.278.585.585 0 0 1-.052.265.306.306 0 0 1-.17.144l.349.662zm-.237-.888a.139.139 0 0 0 .127-.05.425.425 0 0 0 0-.225c-.02-.042-.07-.064-.151-.064h-.411v.343z" transform="translate(-1979.552 -2120.382)"/><path id="Path_73" data-name="Path 73" d="m2000.747 2156.481-.312-.6-.387.008v.595h-.3v-1.5h.788a.38.38 0 0 1 .366.178.5.5 0 0 1 .058.269.566.566 0 0 1-.05.258.291.291 0 0 1-.18.14l.346.655zm-.246-.852a.155.155 0 0 0 .142-.059.4.4 0 0 0 .019-.119.385.385 0 0 0-.016-.125c-.025-.05-.079-.074-.167-.074h-.426v.377z" transform="translate(-1979.712 -2120.525)"/><path id="Path_74" data-name="Path 74" d="m2000.61 2156.382-.306-.6h-.375v.594h-.32v-1.518h.8a.389.389 0 0 1 .374.182.517.517 0 0 1 .058.274.588.588 0 0 1-.051.262.308.308 0 0 1-.176.143l.348.657zm-.236-.87a.145.145 0 0 0 .134-.054.355.355 0 0 0 .018-.115.385.385 0 0 0-.015-.121c-.022-.047-.076-.069-.16-.069h-.421v.36z" transform="translate(-1979.587 -2120.417)"/><path id="Path_75" data-name="Path 75" d="m2000.819 2156.534-.3-.6h-.4v.6h-.281v-1.484h.779a.374.374 0 0 1 .359.174.493.493 0 0 1 .056.265.556.556 0 0 1-.049.254.284.284 0 0 1-.186.14l.344.652zm-.246-.836a.158.158 0 0 0 .149-.064.379.379 0 0 0 .02-.123.409.409 0 0 0-.016-.128c-.027-.054-.084-.08-.176-.08h-.438v.394z" transform="translate(-1979.784 -2120.588)"/><path id="Path_76" data-name="Path 76" d="m2000.61 2156.382-.306-.6h-.375v.594h-.32v-1.518h.8a.389.389 0 0 1 .374.182.517.517 0 0 1 .058.274.588.588 0 0 1-.051.262.308.308 0 0 1-.176.143l.348.657zm-.236-.87a.145.145 0 0 0 .134-.054.355.355 0 0 0 .018-.115.385.385 0 0 0-.015-.121c-.022-.047-.076-.069-.16-.069h-.421v.36z" transform="translate(-1979.587 -2120.417)"/><path id="Path_77" data-name="Path 77" d="m2000.819 2156.534-.3-.6h-.4v.6h-.281v-1.484h.779a.374.374 0 0 1 .359.174.493.493 0 0 1 .056.265.556.556 0 0 1-.049.254.284.284 0 0 1-.186.14l.344.652zm-.246-.836a.158.158 0 0 0 .149-.064.379.379 0 0 0 .02-.123.409.409 0 0 0-.016-.128c-.027-.054-.084-.08-.176-.08h-.438v.394z" transform="translate(-1979.784 -2120.588)"/><path id="Path_78" data-name="Path 78" d="m2000.727 2156.481-.3-.594h-.391v.594h-.3v-1.5h.787a.38.38 0 0 1 .366.178.511.511 0 0 1 .058.269.56.56 0 0 1-.05.258.287.287 0 0 1-.18.14l.346.655zm-.236-.852a.155.155 0 0 0 .142-.059.381.381 0 0 0 .019-.119.391.391 0 0 0-.016-.125c-.024-.051-.078-.074-.167-.074h-.426v.377z" transform="translate(-1979.704 -2120.525)"/><path id="Path_79" data-name="Path 79" d="M2001.04 2155.84a.27.27 0 0 1-.192.137l.344.65h-.3l-.3-.595h-.42v.595h-.263v-1.467h.77a.36.36 0 0 1 .352.169.494.494 0 0 1 .055.261.544.544 0 0 1-.046.25zm-.235-.358c-.028-.057-.087-.086-.183-.086h-.447v.412h.469a.167.167 0 0 0 .158-.068.45.45 0 0 0 0-.258z" transform="translate(-1979.855 -2120.689)"/><path id="Path_80" data-name="Path 80" d="M206.9 324.786v-1.536h1.137v.309h-.806v.3H208v.31h-.775v.306h.815v.309z" transform="translate(-184.857 -288.813)"/><path id="Path_81" data-name="Path 81" d="M207.06 324.912v-1.5h1.1v.275h-.807v.337h.775v.276h-.775v.341h.815v.274z" transform="translate(-185 -288.956)"/><path id="Path_82" data-name="Path 82" d="M206.98 324.849v-1.519h1.12v.292h-.807v.32h.775v.293h-.775v.324h.815v.291z" transform="translate(-184.929 -288.884)"/><path id="Path_83" data-name="Path 83" d="M207.14 324.975v-1.485h1.085v.257h-.805v.355h.775v.259h-.775v.358h.815v.257z" transform="translate(-185.072 -289.027)"/><path id="Path_84" data-name="Path 84" d="M206.98 324.849v-1.519h1.12v.292h-.807v.32h.775v.293h-.775v.324h.815v.291z" transform="translate(-184.929 -288.884)"/><path id="Path_85" data-name="Path 85" d="M207.14 324.975v-1.485h1.085v.257h-.805v.355h.775v.259h-.775v.358h.815v.257z" transform="translate(-185.072 -289.027)"/><path id="Path_86" data-name="Path 86" d="M207.06 324.912v-1.5h1.1v.274h-.805v.338h.775v.276h-.775v.341h.815v.274z" transform="translate(-185 -288.956)"/><path id="Path_87" data-name="Path 87" d="M2018.89 2156.627v-1.467h1.065v.24h-.805v.372h.773v.241h-.773v.375h.817v.24z" transform="translate(-1996.813 -2120.688)"/><path id="Path_88" data-name="Path 88" d="M2036.11 2156.376v-1.536h.705a.571.571 0 0 1 .474.17.84.84 0 0 1 .132.575.942.942 0 0 1-.122.6.541.541 0 0 1-.467.19zm.663-.309a.3.3 0 0 0 .245-.08.737.737 0 0 0 .064-.4.584.584 0 0 0-.068-.361.291.291 0 0 0-.239-.076h-.33v.918z" transform="translate(-2012.199 -2120.403)"/><path id="Path_89" data-name="Path 89" d="M2036.27 2156.5v-1.5h.688a.559.559 0 0 1 .461.164.83.83 0 0 1 .128.565.93.93 0 0 1-.118.589.526.526 0 0 1-.453.183zm.646-.273a.309.309 0 0 0 .258-.086.724.724 0 0 0 .068-.412.611.611 0 0 0-.073-.374.309.309 0 0 0-.251-.08h-.347v.951z" transform="translate(-2012.342 -2120.545)"/><path id="Path_90" data-name="Path 90" d="M2036.19 2156.438v-1.518h.7a.566.566 0 0 1 .468.167.829.829 0 0 1 .13.57.937.937 0 0 1-.12.594.533.533 0 0 1-.459.186zm.654-.291a.3.3 0 0 0 .251-.083.735.735 0 0 0 .066-.406.6.6 0 0 0-.07-.368.3.3 0 0 0-.245-.078h-.339v.935z" transform="translate(-2012.27 -2120.474)"/><path id="Path_91" data-name="Path 91" d="M2036.36 2156.554v-1.484h.679a.547.547 0 0 1 .454.161.825.825 0 0 1 .127.56.913.913 0 0 1-.117.583.517.517 0 0 1-.445.18zm.639-.257a.32.32 0 0 0 .264-.089.711.711 0 0 0 .071-.418.592.592 0 0 0-.076-.379.313.313 0 0 0-.257-.083h-.36v.969z" transform="translate(-2012.422 -2120.608)"/><path id="Path_92" data-name="Path 92" d="M2036.19 2156.438v-1.518h.7a.566.566 0 0 1 .468.167.829.829 0 0 1 .13.57.937.937 0 0 1-.12.594.533.533 0 0 1-.459.186zm.654-.291a.3.3 0 0 0 .251-.083.735.735 0 0 0 .066-.406.6.6 0 0 0-.07-.368.3.3 0 0 0-.245-.078h-.339v.935z" transform="translate(-2012.27 -2120.474)"/><path id="Path_93" data-name="Path 93" d="M2036.36 2156.554v-1.484h.679a.547.547 0 0 1 .454.161.825.825 0 0 1 .127.56.913.913 0 0 1-.117.583.517.517 0 0 1-.445.18zm.639-.257a.32.32 0 0 0 .264-.089.711.711 0 0 0 .071-.418.592.592 0 0 0-.076-.379.313.313 0 0 0-.257-.083h-.36v.969z" transform="translate(-2012.422 -2120.608)"/><path id="Path_94" data-name="Path 94" d="M2036.28 2156.5v-1.5h.687a.559.559 0 0 1 .461.164.831.831 0 0 1 .128.565.93.93 0 0 1-.118.589.526.526 0 0 1-.453.183zm.639-.273a.309.309 0 0 0 .258-.086.746.746 0 0 0 .068-.412.6.6 0 0 0-.073-.374.31.31 0 0 0-.251-.08h-.347v.951z" transform="translate(-2012.35 -2120.545)"/><path id="Path_95" data-name="Path 95" d="M2037.128 2156.627h-.688v-1.467h.67a.536.536 0 0 1 .448.158.836.836 0 0 1 .125.554.916.916 0 0 1-.115.58.494.494 0 0 1-.44.175zm.282-.754a.616.616 0 0 0-.078-.386.319.319 0 0 0-.263-.085h-.364v.986h.362a.326.326 0 0 0 .271-.091.726.726 0 0 0 .073-.424z" transform="translate(-2012.494 -2120.688)"/><path id="Path_96" data-name="Path 96" d="M2065.23 2156.376v-1.536h.781a.453.453 0 0 1 .394.15.608.608 0 0 1 .091.361.565.565 0 0 1-.083.352.468.468 0 0 1-.4.16h-.441v.514zm.724-.818c.1 0 .155-.021.182-.066a.3.3 0 0 0 .02-.137.328.328 0 0 0-.02-.144c-.023-.044-.082-.065-.178-.065h-.389v.411z" transform="translate(-2038.216 -2120.403)"/><path id="Path_97" data-name="Path 97" d="M2065.4 2156.5v-1.5h.763a.437.437 0 0 1 .38.143.6.6 0 0 1 .088.352.555.555 0 0 1-.08.341.464.464 0 0 1-.389.154h-.458v.513zm.706-.783c.106 0 .167-.023.2-.074a.306.306 0 0 0 .022-.145.347.347 0 0 0-.022-.151c-.027-.051-.09-.076-.193-.076h-.406v.446z" transform="translate(-2038.368 -2120.545)"/><path id="Path_98" data-name="Path 98" d="M2065.31 2156.438v-1.518h.773a.443.443 0 0 1 .388.146.608.608 0 0 1 .088.357.555.555 0 0 1-.082.346.453.453 0 0 1-.4.157h-.45v.513zm.715-.8c.1 0 .161-.022.189-.07a.291.291 0 0 0 .021-.14.318.318 0 0 0-.021-.147c-.025-.048-.086-.072-.186-.072h-.4v.426z" transform="translate(-2038.288 -2120.474)"/><path id="Path_99" data-name="Path 99" d="M2065.48 2156.554v-1.484h.754a.428.428 0 0 1 .373.14.575.575 0 0 1 .085.346.53.53 0 0 1-.078.335.454.454 0 0 1-.381.15h-.467v.512zm.7-.765c.107 0 .173-.025.2-.08a.3.3 0 0 0 .024-.149.34.34 0 0 0-.024-.155c-.028-.053-.093-.08-.2-.08h-.415v.464z" transform="translate(-2038.44 -2120.608)"/><path id="Path_100" data-name="Path 100" d="M2065.31 2156.438v-1.518h.773a.443.443 0 0 1 .388.146.608.608 0 0 1 .088.357.555.555 0 0 1-.082.346.453.453 0 0 1-.4.157h-.45v.513zm.715-.8c.1 0 .161-.022.189-.07a.291.291 0 0 0 .021-.14.318.318 0 0 0-.021-.147c-.025-.048-.086-.072-.186-.072h-.4v.426z" transform="translate(-2038.288 -2120.474)"/><path id="Path_101" data-name="Path 101" d="M2065.48 2156.554v-1.484h.754a.428.428 0 0 1 .373.14.575.575 0 0 1 .085.346.53.53 0 0 1-.078.335.454.454 0 0 1-.381.15h-.467v.512zm.7-.765c.107 0 .173-.025.2-.08a.3.3 0 0 0 .024-.149.34.34 0 0 0-.024-.155c-.028-.053-.093-.08-.2-.08h-.415v.464z" transform="translate(-2038.44 -2120.608)"/><path id="Path_102" data-name="Path 102" d="M2065.4 2156.5v-1.5h.763a.437.437 0 0 1 .38.143.594.594 0 0 1 .086.352.548.548 0 0 1-.079.341.464.464 0 0 1-.389.154h-.458v.513zm.706-.782c.137 0 .178-.044.2-.076a.306.306 0 0 0 .022-.145.339.339 0 0 0-.022-.151c-.027-.051-.09-.076-.193-.076h-.406v.448z" transform="translate(-2038.368 -2120.545)"/><path id="Path_103" data-name="Path 103" d="M2066.68 2155.986a.443.443 0 0 1-.375.146h-.477v.515h-.268v-1.467h.746a.418.418 0 0 1 .367.136.569.569 0 0 1 .083.342.542.542 0 0 1-.076.328zm-.219-.486c-.03-.056-.1-.084-.213-.084h-.426v.481h.425c.123 0 .183-.034.213-.084a.323.323 0 0 0 .024-.153.365.365 0 0 0-.024-.16z" transform="translate(-2038.511 -2120.706)"/><path id="Rectangle_15" data-name="Rectangle 15" transform="translate(28.983 34.437)" d="M0 0h.342v1.536H0z"/><path id="Rectangle_16" data-name="Rectangle 16" transform="translate(29 34.454)" d="M0 0h.308v1.502H0z"/><path id="Rectangle_17" data-name="Rectangle 17" transform="translate(28.991 34.446)" d="M0 0h.325v1.519H0z"/><path id="Rectangle_18" data-name="Rectangle 18" transform="translate(29.008 34.463)" d="M0 0h.29v1.484H0z"/><path id="Rectangle_19" data-name="Rectangle 19" transform="translate(28.991 34.446)" d="M0 0h.325v1.519H0z"/><path id="Rectangle_20" data-name="Rectangle 20" transform="translate(29.008 34.463)" d="M0 0h.29v1.484H0z"/><path id="Rectangle_21" data-name="Rectangle 21" transform="translate(29 34.454)" d="M0 0h.308v1.501H0z"/><path id="Path_104" data-name="Path 104" d="M2084 2156.627v-1.467h.273v1.467z" transform="translate(-2054.987 -2120.688)"/><path id="Path_105" data-name="Path 105" d="M281.73 324.786v-.246l.788-.981h-.748v-.309h1.191v.241l-.8.993h.825v.3z" transform="translate(-251.715 -288.813)"/><path id="Path_106" data-name="Path 106" d="M281.89 324.912v-.229l.808-1h-.767v-.275h1.157v.224l-.821 1.01h.843v.268z" transform="translate(-251.858 -288.956)"/><path id="Path_107" data-name="Path 107" d="M281.81 324.849v-.238l.8-.99h-.758v-.292h1.174v.232l-.812 1h.833v.286z" transform="translate(-251.787 -288.884)"/><path id="Path_108" data-name="Path 108" d="M281.97 324.975v-.22l.817-1.008h-.777v-.257h1.14v.215l-.831 1.019h.852v.251z" transform="translate(-251.929 -289.027)"/><path id="Path_109" data-name="Path 109" d="M281.81 324.849v-.238l.8-.99h-.758v-.292h1.174v.232l-.812 1h.833v.286z" transform="translate(-251.787 -288.884)"/><path id="Path_110" data-name="Path 110" d="M281.97 324.975v-.22l.817-1.008h-.777v-.257h1.14v.215l-.831 1.019h.852v.251z" transform="translate(-251.929 -289.027)"/><path id="Path_111" data-name="Path 111" d="M281.89 324.912v-.229l.808-1h-.767v-.274h1.157v.224l-.821 1.01h.843v.268z" transform="translate(-251.858 -288.956)"/><path id="Path_112" data-name="Path 112" d="M2093.72 2156.618v-.213l.827-1.015h-.786v-.24h1.122v.207l-.839 1.027h.862v.233z" transform="translate(-2063.671 -2120.679)"/><path id="Path_113" data-name="Path 113" d="M298.93 324.786v-.246l.788-.981h-.748v-.309h1.191v.241l-.8.993h.825v.3z" transform="translate(-267.083 -288.813)"/><path id="Path_114" data-name="Path 114" d="M299.09 324.912v-.229l.808-1h-.767v-.275h1.157v.224l-.82 1.01h.843v.268z" transform="translate(-267.225 -288.956)"/><path id="Path_115" data-name="Path 115" d="M299.01 324.849v-.238l.8-.99h-.757v-.292h1.174v.232l-.812 1h.834v.286z" transform="translate(-267.154 -288.884)"/><path id="Path_116" data-name="Path 116" d="M299.17 324.975v-.22l.817-1.008h-.777v-.257h1.14v.215l-.831 1.019h.852v.251z" transform="translate(-267.297 -289.027)"/><path id="Path_117" data-name="Path 117" d="M299.01 324.849v-.238l.8-.99h-.757v-.292h1.174v.232l-.812 1h.834v.286z" transform="translate(-267.154 -288.884)"/><path id="Path_118" data-name="Path 118" d="M299.17 324.975v-.22l.817-1.008h-.777v-.257h1.14v.215l-.831 1.019h.852v.251z" transform="translate(-267.297 -289.027)"/><path id="Path_119" data-name="Path 119" d="M299.09 324.912v-.229l.808-1h-.767v-.274h1.156v.224l-.819 1.01h.843v.268z" transform="translate(-267.225 -288.956)"/><path id="Path_120" data-name="Path 120" d="M2110.92 2156.618v-.213l.826-1.015h-.786v-.24h1.122v.207l-.84 1.027h.858v.233z" transform="translate(-2079.038 -2120.679)"/><path id="Path_121" data-name="Path 121" d="M317.04 324.786v-1.536h1.136v.309h-.805v.3h.775v.31h-.775v.306h.815v.309z" transform="translate(-283.263 -288.813)"/><path id="Path_122" data-name="Path 122" d="M317.2 324.912v-1.5h1.1v.275h-.8v.337h.775v.276h-.775v.341h.815v.274z" transform="translate(-283.406 -288.956)"/><path id="Path_123" data-name="Path 123" d="M317.12 324.849v-1.519h1.119v.292h-.805v.32h.775v.293h-.775v.324h.815v.291z" transform="translate(-283.335 -288.884)"/><path id="Path_124" data-name="Path 124" d="M317.28 324.975v-1.485h1.085v.257h-.805v.355h.775v.259h-.775v.358h.815v.257z" transform="translate(-283.478 -289.027)"/><path id="Path_125" data-name="Path 125" d="M317.12 324.849v-1.519h1.119v.292h-.805v.32h.775v.293h-.775v.324h.815v.291z" transform="translate(-283.335 -288.884)"/><path id="Path_126" data-name="Path 126" d="M317.28 324.975v-1.485h1.085v.257h-.805v.355h.775v.259h-.775v.358h.815v.257z" transform="translate(-283.478 -289.027)"/><path id="Path_127" data-name="Path 127" d="M317.2 324.912v-1.5h1.1v.274h-.8v.338h.775v.276h-.775v.341h.815v.274z" transform="translate(-283.406 -288.956)"/><path id="Path_128" data-name="Path 128" d="M2129 2156.627v-1.467h1.065v.24h-.806v.372h.774v.241h-.774v.375h.816v.24z" transform="translate(-2095.192 -2120.688)"/><path id="Path_129" data-name="Path 129" d="m2147.255 2156.357-.312-.6-.359.009v.6h-.333v-1.537h.806a.4.4 0 0 1 .381.186.519.519 0 0 1 .06.279.58.58 0 0 1-.052.265.307.307 0 0 1-.171.144l.35.663zm-.237-.889a.138.138 0 0 0 .127-.05.359.359 0 0 0 .018-.106.409.409 0 0 0-.014-.118c-.021-.043-.07-.064-.152-.064h-.412v.344z" transform="translate(-2110.605 -2120.383)"/><path id="Path_130" data-name="Path 130" d="m2147.408 2156.481-.312-.6-.388.009v.594h-.3v-1.5h.789a.381.381 0 0 1 .366.178.515.515 0 0 1 .058.27.576.576 0 0 1-.051.258.289.289 0 0 1-.181.141l.346.655zm-.247-.853a.154.154 0 0 0 .143-.058.4.4 0 0 0 .018-.12.428.428 0 0 0-.015-.125c-.024-.05-.08-.074-.168-.074h-.426v.377z" transform="translate(-2110.748 -2120.526)"/><path id="Path_131" data-name="Path 131" d="m2147.29 2156.382-.3-.6h-.376v.594h-.32v-1.518h.8a.389.389 0 0 1 .374.182.518.518 0 0 1 .059.274.591.591 0 0 1-.051.262.309.309 0 0 1-.176.143l.349.657zm-.236-.87a.147.147 0 0 0 .135-.054.4.4 0 0 0 .017-.115.385.385 0 0 0-.015-.121c-.022-.047-.075-.069-.16-.069h-.42v.36z" transform="translate(-2110.64 -2120.417)"/><path id="Path_132" data-name="Path 132" d="m2147.48 2156.534-.3-.6h-.4v.6h-.282v-1.484h.78a.374.374 0 0 1 .359.173.506.506 0 0 1 .057.266.573.573 0 0 1-.049.253.281.281 0 0 1-.187.139l.346.652zm-.248-.836a.159.159 0 0 0 .15-.064.372.372 0 0 0 .019-.122.4.4 0 0 0-.016-.128c-.025-.054-.083-.08-.175-.08h-.437v.394z" transform="translate(-2110.819 -2120.589)"/><path id="Path_133" data-name="Path 133" d="m2147.29 2156.382-.3-.6h-.376v.594h-.32v-1.518h.8a.389.389 0 0 1 .374.182.518.518 0 0 1 .059.274.591.591 0 0 1-.051.262.309.309 0 0 1-.176.143l.349.657zm-.236-.87a.147.147 0 0 0 .135-.054.4.4 0 0 0 .017-.115.385.385 0 0 0-.015-.121c-.022-.047-.075-.069-.16-.069h-.42v.36z" transform="translate(-2110.64 -2120.417)"/><path id="Path_134" data-name="Path 134" d="m2147.48 2156.534-.3-.6h-.4v.6h-.282v-1.484h.78a.374.374 0 0 1 .359.173.506.506 0 0 1 .057.266.573.573 0 0 1-.049.253.281.281 0 0 1-.187.139l.346.652zm-.248-.836a.159.159 0 0 0 .15-.064.372.372 0 0 0 .019-.122.4.4 0 0 0-.016-.128c-.025-.054-.083-.08-.175-.08h-.437v.394z" transform="translate(-2110.819 -2120.589)"/><path id="Path_135" data-name="Path 135" d="m2147.4 2156.481-.3-.594h-.392v.594h-.3v-1.5h.789a.382.382 0 0 1 .366.178.513.513 0 0 1 .058.27.562.562 0 0 1-.051.258.287.287 0 0 1-.181.141l.346.655zm-.236-.853a.154.154 0 0 0 .143-.058.382.382 0 0 0 .018-.12.42.42 0 0 0-.015-.125c-.024-.051-.078-.074-.168-.074h-.426v.377z" transform="translate(-2110.747 -2120.526)"/><path id="Path_136" data-name="Path 136" d="M2147.708 2155.84a.266.266 0 0 1-.191.137l.343.65h-.3l-.3-.595h-.42v.595h-.263v-1.467h.77a.358.358 0 0 1 .351.169.483.483 0 0 1 .056.261.545.545 0 0 1-.046.25zm-.233-.358c-.028-.057-.088-.086-.184-.086h-.446v.412h.468a.166.166 0 0 0 .158-.068.37.37 0 0 0 .02-.126.448.448 0 0 0-.014-.131z" transform="translate(-2110.899 -2120.689)"/><path id="Rectangle_22" data-name="Rectangle 22" transform="translate(37.668 34.437)" d="M0 0h.342v1.536H0z"/><path id="Rectangle_23" data-name="Rectangle 23" transform="translate(37.685 34.454)" d="M0 0h.308v1.502H0z"/><path id="Rectangle_24" data-name="Rectangle 24" transform="translate(37.676 34.446)" d="M0 0h.325v1.519H0z"/><path id="Rectangle_25" data-name="Rectangle 25" transform="translate(37.693 34.463)" d="M0 0h.29v1.484H0z"/><path id="Rectangle_26" data-name="Rectangle 26" transform="translate(37.676 34.446)" d="M0 0h.325v1.519H0z"/><path id="Rectangle_27" data-name="Rectangle 27" transform="translate(37.693 34.463)" d="M0 0h.29v1.484H0z"/><path id="Rectangle_28" data-name="Rectangle 28" transform="translate(37.685 34.454)" d="M0 0h.308v1.501H0z"/><path id="Path_137" data-name="Path 137" d="M2165.55 2156.627v-1.467h.274v1.467z" transform="translate(-2127.848 -2120.688)"/><path id="Path_138" data-name="Path 138" d="m2174.847 2154.893.376-.013.575 1.538h-.34l-.147-.368-.577.011-.12.345-.355.013zm.362.868-.166-.463-.178.463z" transform="translate(-2135.631 -2120.438)"/><path id="Path_139" data-name="Path 139" d="m2175.047 2155.01.352-.01.562 1.5h-.3l-.146-.367-.6.012-.12.345-.32.011zm.374.869-.174-.486-.021-.069-.02.07-.187.485z" transform="translate(-2135.818 -2120.545)"/><path id="Path_140" data-name="Path 140" d="M2174.963 2155h.368l.562 1.518h-.328l-.138-.362-.586.006-.127.35-.333.007zm.365.875-.169-.474-.013-.042-.012.042-.181.474z" transform="translate(-2135.738 -2120.545)"/><path id="Path_141" data-name="Path 141" d="m2175.791 2156.554-.137-.362-.61.007-.128.35-.295.005.569-1.479.344-.005.55 1.484zm-.224-.6-.177-.5-.029-.1-.029.1-.19.5z" transform="translate(-2135.952 -2120.608)"/><path id="Path_142" data-name="Path 142" d="M2174.963 2155h.368l.562 1.518h-.328l-.138-.362-.586.006-.127.35-.333.007zm.365.875-.169-.474-.013-.042-.012.042-.181.474z" transform="translate(-2135.738 -2120.545)"/><path id="Path_143" data-name="Path 143" d="m2175.791 2156.554-.137-.362-.61.007-.128.35-.295.005.569-1.479.344-.005.55 1.484zm-.224-.6-.177-.5-.029-.1-.029.1-.19.5z" transform="translate(-2135.952 -2120.608)"/><path id="Path_144" data-name="Path 144" d="m2175.672 2156.5-.13-.356h-.594l-.135.356h-.312l.579-1.5h.359l.55 1.5zm-.224-.621-.174-.486-.021-.069-.02.07-.186.485z" transform="translate(-2135.845 -2120.545)"/><path id="Path_145" data-name="Path 145" d="M2175.015 2156.627h-.275l.565-1.467h.335l.533 1.467h-.279l-.13-.357h-.618zm.49-1.1-.037-.125-.037.126-.2.507h.452z" transform="translate(-2136.06 -2120.688)"/></g></g></svg>